<?xml version="1.0" encoding="UTF-8" standalone="no"?>
<!-- Created with Inkscape (http://www.inkscape.org/) -->
<svg
   xmlns:dc="http://purl.org/dc/elements/1.1/"
   xmlns:cc="http://creativecommons.org/ns#"
   xmlns:rdf="http://www.w3.org/1999/02/22-rdf-syntax-ns#"
   xmlns:svg="http://www.w3.org/2000/svg"
   xmlns="http://www.w3.org/2000/svg"
   xmlns:sodipodi="http://sodipodi.sourceforge.net/DTD/sodipodi-0.dtd"
   xmlns:inkscape="http://www.inkscape.org/namespaces/inkscape"
   width="24"
   height="24"
   id="svg2383"
   sodipodi:version="0.32"
   inkscape:version="0.46"
   sodipodi:docname="6-c-exp-2.svg"
   inkscape:output_extension="org.inkscape.output.svg.inkscape"
   version="1.0">
  <defs
     id="defs2385">
    <inkscape:perspective
       sodipodi:type="inkscape:persp3d"
       inkscape:vp_x="8.4119166 : 81.382702 : 1"
       inkscape:vp_y="1124.2745 : 0.016494058 : 0"
       inkscape:vp_z="8.4148196 : 46.887199 : 1"
       inkscape:persp3d-origin="2.4172406 : 64.134863 : 1"
       id="perspective2391" />
  </defs>
  <sodipodi:namedview
     id="base"
     pagecolor="#ffffff"
     bordercolor="#666666"
     borderopacity="1.0"
     inkscape:pageopacity="0.0"
     inkscape:pageshadow="2"
     inkscape:zoom="16.000001"
     inkscape:cx="12.342841"
     inkscape:cy="1.9738328"
     inkscape:current-layer="layer1"
     showgrid="true"
     inkscape:grid-bbox="true"
     inkscape:document-units="px"
     inkscape:window-width="1232"
     inkscape:window-height="990"
     inkscape:window-x="164"
     inkscape:window-y="91" />
  <metadata
     id="metadata2388">
    <rdf:RDF>
      <cc:Work
         rdf:about="">
        <dc:format>image/svg+xml</dc:format>
        <dc:type
           rdf:resource="http://purl.org/dc/dcmitype/StillImage" />
      </cc:Work>
    </rdf:RDF>
  </metadata>
  <g
     id="layer1"
     inkscape:label="Layer 1"
     inkscape:groupmode="layer">
    <g
       id="g4808"
       transform="translate(-14.562499,-23.874999)">
      <path
         transform="translate(26.316179,12.364276)"
         style="fill:none;fill-opacity:0.6755319;stroke:#1b1b1b;stroke-width:3.5;stroke-linejoin:round;stroke-miterlimit:4;stroke-opacity:0.11702127"
         d="M -3.28125 15.0625 C -5.5416667 17.677083 -7.8020833 20.291667 -10.0625 22.90625 C -7.8333333 26.34375 -5.6041667 29.78125 -3.375 33.21875 C 0.625 33.010417 4.625 32.802083 8.625 32.59375 C 9.7708333 29.46875 10.916667 26.34375 12.0625 23.21875 C 10.583333 20.291667 9.1041667 17.364583 7.625 14.4375 C 3.9895833 14.645833 0.35416667 14.854167 -3.28125 15.0625 z "
         id="path4794" />
      <path
         transform="matrix(1,0,0,-1,26.316178,60.135722)"
         style="fill:none;fill-opacity:0.6755319;stroke:#505050;stroke-width:2.5;stroke-linejoin:miter;stroke-miterlimit:4;stroke-opacity:0.18617021"
         d="M -10.21875 24.4375 C -7.9375 27.125 -5.65625 29.8125 -3.375 32.5 C 0.25 32.760417 3.875 33.020833 7.5 33.28125 C 9.0104167 30.364583 10.520833 27.447917 12.03125 24.53125 C 10.916667 21.354167 9.8020833 18.177083 8.6875 15 C 4.6979167 14.791667 0.70833333 14.583333 -3.28125 14.375 C -5.59375 17.729167 -7.90625 21.083333 -10.21875 24.4375 z "
         id="path4796" />
      <path
         transform="matrix(1,0,0,-1,26.253678,60.073222)"
         style="fill:none;fill-opacity:0.6755319;stroke:#353535;stroke-width:1;stroke-linejoin:miter;stroke-miterlimit:4;stroke-opacity:0.13829789"
         d="M -10.09375 24.59375 C -7.8541667 27.229167 -5.6145833 29.864583 -3.375 32.5 C 0.25 32.760417 3.875 33.020833 7.5 33.28125 C 9.03125 30.34375 10.5625 27.40625 12.09375 24.46875 C 10.989583 21.354167 9.8854167 18.239583 8.78125 15.125 C 4.7604167 14.875 0.73958333 14.625 -3.28125 14.375 C -5.5520833 17.78125 -7.8229167 21.1875 -10.09375 24.59375 z "
         id="path4798" />
    </g>
    <rect
       style="opacity:0.85714285000000001;fill:#b6b6b6;fill-opacity:0.95212764000000005;stroke:#c2c2c2;stroke-width:0.67542170999999995;stroke-linejoin:round;stroke-miterlimit:4;stroke-dasharray:none;stroke-opacity:1"
       id="rect4726"
       width="10.524577"
       height="0.087078273"
       x="-4.387289"
       y="33.362709" />
    <rect
       style="opacity:0.85714285;fill:#999999;fill-opacity:0.71345029;stroke:#000000;stroke-width:0.67542171;stroke-linejoin:round;stroke-miterlimit:4;stroke-dasharray:none;stroke-opacity:1"
       id="rect4732"
       width="10.524577"
       height="0.087078273"
       x="-7.5747886"
       y="30.268961" />
    <g
       id="g4854"
       transform="translate(-0.25,-0.5625)">
      <path
         transform="translate(9.5244953,-12.094038)"
         d="M 7.513009,33.280776 L -3.3733167,33.221339 L -8.7650055,23.763786 L -3.2703685,14.36567 L 7.6159572,14.425107 L 13.007646,23.88266 L 7.513009,33.280776 z"
         inkscape:randomized="0"
         inkscape:rounded="0"
         inkscape:flatsided="true"
         sodipodi:arg2="1.576256"
         sodipodi:arg1="1.0526573"
         sodipodi:r2="8.671073"
         sodipodi:r1="10.886488"
         sodipodi:cy="23.823223"
         sodipodi:cx="2.1213202"
         sodipodi:sides="6"
         id="path3235"
         style="fill:none;fill-opacity:0.6755319;stroke:#393939;stroke-width:1.20000005;stroke-linejoin:miter;stroke-miterlimit:4;stroke-dasharray:none;stroke-opacity:1"
         sodipodi:type="star" />
      <rect
         transform="matrix(0.5032269,-0.8641543,0.8641543,0.5032269,0,0)"
         y="22.431156"
         x="-37.522301"
         height="0.087078273"
         width="10.524577"
         id="rect4728"
         style="opacity:0.85714285;fill:#a0a0a0;fill-opacity:0.71345029;stroke:#9b9b9b;stroke-width:0.67542171;stroke-linejoin:round;stroke-miterlimit:4;stroke-dasharray:none;stroke-opacity:1" />
      <rect
         transform="matrix(0.5032269,-0.8641543,0.8641543,0.5032269,0,0)"
         y="25.34931"
         x="-9.4966412"
         height="0.087078273"
         width="10.524577"
         id="rect4730"
         style="opacity:0.85714285;fill:#999999;fill-opacity:0.71345029;stroke:#000000;stroke-width:1.20000005;stroke-linejoin:round;stroke-miterlimit:4;stroke-dasharray:none;stroke-opacity:1" />
      <rect
         transform="matrix(0.999993,3.7301293e-3,-3.7301293e-3,0.999993,0,0)"
         y="20.975683"
         x="6.3786955"
         height="0.087078273"
         width="10.524577"
         id="rect4845"
         style="opacity:0.85714285;fill:#999999;fill-opacity:0.71345029;stroke:#000000;stroke-width:1.20000005;stroke-linejoin:round;stroke-miterlimit:4;stroke-dasharray:none;stroke-opacity:1" />
      <rect
         transform="matrix(0.5032269,0.8641543,0.8641543,-0.5032269,0,0)"
         y="13.275986"
         x="10.739185"
         height="0.087078273"
         width="10.524577"
         id="rect4847"
         style="opacity:0.85714285;fill:#a0a0a0;fill-opacity:0.71345029;stroke:#9b9b9b;stroke-width:0.67542171;stroke-linejoin:round;stroke-miterlimit:4;stroke-dasharray:none;stroke-opacity:1" />
      <rect
         transform="matrix(0.5032269,0.8641543,0.8641543,-0.5032269,0,0)"
         y="-14.138255"
         x="25.151445"
         height="0.087078273"
         width="10.524577"
         id="rect4849"
         style="opacity:0.85714285;fill:#a0a0a0;fill-opacity:0.71345029;stroke:#9b9b9b;stroke-width:0.67542171;stroke-linejoin:round;stroke-miterlimit:4;stroke-dasharray:none;stroke-opacity:1" />
    </g>
    <rect
       transform="matrix(0.5032269,-0.8641543,0.8641543,0.5032269,0,0)"
       y="24.440687"
       x="-9.302515"
       height="0.087078273"
       width="10.524577"
       id="rect4862"
       style="opacity:0.85714285;fill:#a0a0a0;fill-opacity:0.71345029;stroke:#9b9b9b;stroke-width:0.67542171;stroke-linejoin:round;stroke-miterlimit:4;stroke-dasharray:none;stroke-opacity:1" />
  </g>
</svg>
