<?xml version="1.0" encoding="UTF-8" standalone="no"?>
<!-- Created with Inkscape (http://www.inkscape.org/) -->
<svg
   xmlns:dc="http://purl.org/dc/elements/1.1/"
   xmlns:cc="http://creativecommons.org/ns#"
   xmlns:rdf="http://www.w3.org/1999/02/22-rdf-syntax-ns#"
   xmlns:svg="http://www.w3.org/2000/svg"
   xmlns="http://www.w3.org/2000/svg"
   xmlns:sodipodi="http://sodipodi.sourceforge.net/DTD/sodipodi-0.dtd"
   xmlns:inkscape="http://www.inkscape.org/namespaces/inkscape"
   width="24"
   height="24"
   id="svg2383"
   sodipodi:version="0.32"
   inkscape:version="0.46"
   sodipodi:docname="6-c-arom.svg"
   inkscape:output_extension="org.inkscape.output.svg.inkscape"
   version="1.0">
  <defs
     id="defs2385">
    <inkscape:perspective
       sodipodi:type="inkscape:persp3d"
       inkscape:vp_x="8.4119166 : 81.382702 : 1"
       inkscape:vp_y="1124.2745 : 0.016494058 : 0"
       inkscape:vp_z="8.4148196 : 46.887199 : 1"
       inkscape:persp3d-origin="2.4172406 : 64.134863 : 1"
       id="perspective2391" />
  </defs>
  <sodipodi:namedview
     id="base"
     pagecolor="#ffffff"
     bordercolor="#666666"
     borderopacity="1.0"
     inkscape:pageopacity="0.0"
     inkscape:pageshadow="2"
     inkscape:zoom="16.000001"
     inkscape:cx="20.206185"
     inkscape:cy="11.760986"
     inkscape:current-layer="layer1"
     showgrid="true"
     inkscape:grid-bbox="true"
     inkscape:document-units="px"
     inkscape:window-width="1223"
     inkscape:window-height="880"
     inkscape:window-x="171"
     inkscape:window-y="109" />
  <metadata
     id="metadata2388">
    <rdf:RDF>
      <cc:Work
         rdf:about="">
        <dc:format>image/svg+xml</dc:format>
        <dc:type
           rdf:resource="http://purl.org/dc/dcmitype/StillImage" />
      </cc:Work>
    </rdf:RDF>
  </metadata>
  <g
     id="layer1"
     inkscape:label="Layer 1"
     inkscape:groupmode="layer">
    <rect
       transform="matrix(0.8593564,0.5113772,-0.5113772,0.8593564,0,0)"
       y="10.913637"
       x="12.197893"
       height="0.0082463874"
       width="8.8331375"
       id="rect5390"
       style="opacity:0.6;fill:#a0a0a0;fill-opacity:0.71345029;stroke:#9b9b9b;stroke-width:0.67542171;stroke-linejoin:round;stroke-miterlimit:4;stroke-dasharray:none;stroke-opacity:1" />
    <rect
       transform="matrix(-5.7275203e-3,0.9999836,0.9999836,5.7275203e-3,0,0)"
       y="18.872679"
       x="7.6198139"
       height="0.0082463874"
       width="8.8331375"
       id="rect5388"
       style="opacity:0.6;fill:#a0a0a0;fill-opacity:0.71345029;stroke:#9b9b9b;stroke-width:0.67542171;stroke-linejoin:round;stroke-miterlimit:4;stroke-dasharray:none;stroke-opacity:1" />
    <rect
       transform="matrix(0.8725438,-0.4885359,0.4885359,0.8725438,0,0)"
       y="10.428283"
       x="0.2287938"
       height="0.0082463874"
       width="8.8331375"
       id="rect4862"
       style="opacity:0.6;fill:#a0a0a0;fill-opacity:0.71345029;stroke:#9b9b9b;stroke-width:0.67542171;stroke-linejoin:round;stroke-miterlimit:4;stroke-dasharray:none;stroke-opacity:1" />
    <path
       sodipodi:type="star"
       style="fill:none;fill-opacity:0.6755319;stroke:#393939;stroke-width:1.20000005;stroke-linejoin:miter;stroke-miterlimit:4;stroke-dasharray:none;stroke-opacity:1"
       id="path3257"
       sodipodi:sides="6"
       sodipodi:cx="4.4194174"
       sodipodi:cy="4.2010102"
       sodipodi:r1="10.667423"
       sodipodi:r2="8.0227947"
       sodipodi:arg1="0.97573474"
       sodipodi:arg2="1.4993336"
       inkscape:flatsided="true"
       inkscape:rounded="0"
       inkscape:randomized="0"
       d="M 10.399146,13.034853 L -0.24105037,13.796528 L -6.2207785,4.9626856 L -1.5603108,-4.6328321 L 9.0798851,-5.3945074 L 15.059613,3.4393349 L 10.399146,13.034853 z"
       transform="matrix(0.8094378,0.5560985,-0.5560985,0.8094378,10.433325,5.6071214)" />
    <path
       style="fill:none;fill-rule:evenodd;stroke:#3a3a3a;stroke-width:0.98205656px;stroke-linecap:butt;stroke-linejoin:miter;stroke-opacity:1"
       d="M 17.882945,6.627875 L 17.798872,16.023642"
       id="path3299"
       sodipodi:nodetypes="cc" />
    <path
       style="fill:none;fill-rule:evenodd;stroke:#3a3a3a;stroke-width:0.98205656px;stroke-linecap:butt;stroke-linejoin:miter;stroke-opacity:1"
       d="M 4.243216,14.856091 L 12.338152,19.626784"
       id="path3303"
       sodipodi:nodetypes="cc" />
    <path
       style="fill:none;fill-rule:evenodd;stroke:#3a3a3a;stroke-width:0.98205656px;stroke-linecap:butt;stroke-linejoin:miter;stroke-opacity:1"
       d="M 12.806684,3.79456 L 4.622963,8.4112903"
       id="path3305"
       sodipodi:nodetypes="cc" />
    <g
       id="g4808"
       transform="matrix(0.8612579,0.5081681,-0.5081681,0.8612579,6.7580085,-33.196714)">
      <path
         transform="translate(26.316179,12.364276)"
         style="fill:none;fill-opacity:0.6755319;stroke:#1b1b1b;stroke-width:3.5;stroke-linejoin:round;stroke-miterlimit:4;stroke-opacity:0.11702127"
         d="M -9.375,22.9375 C -7.375,26.364583 -5.375,29.791667 -3.375,33.21875 C 0.22916667,33.145833 3.8333333,33.072917 7.4375,33 C 8.9583333,29.802083 10.479167,26.604167 12,23.40625 C 10.364583,20.5625 8.7291667,17.71875 7.09375,14.875 C 3.5,14.854167 -0.09375,14.833333 -3.6875,14.8125 C -5.5833333,17.520833 -7.4791667,20.229167 -9.375,22.9375 z"
         id="path4794" />
      <path
         transform="matrix(1,0,0,-1,26.316178,60.135722)"
         style="fill:none;fill-opacity:0.6755319;stroke:#505050;stroke-width:2.5;stroke-linejoin:miter;stroke-miterlimit:4;stroke-opacity:0.18617021"
         d="M -9.5,24.4375 C -7.5416667,27.197917 -5.5833333,29.958333 -3.625,32.71875 C -0.083333333,32.760417 3.4583333,32.802083 7,32.84375 C 8.65625,30.010417 10.3125,27.177083 11.96875,24.34375 C 10.479167,21.09375 8.9895833,17.84375 7.5,14.59375 C 3.90625,14.520833 0.3125,14.447917 -3.28125,14.375 C -5.3541667,17.729167 -7.4270833,21.083333 -9.5,24.4375 z"
         id="path4796" />
      <path
         transform="matrix(1,0,0,-1,26.253678,60.073222)"
         style="fill:none;fill-opacity:0.6755319;stroke:#353535;stroke-width:1;stroke-linejoin:miter;stroke-miterlimit:4;stroke-opacity:0.13829789"
         d="M -9.375,24.5625 C -7.4479167,27.28125 -5.5208333,30 -3.59375,32.71875 C -0.0625,32.760417 3.46875,32.802083 7,32.84375 C 8.6770833,29.989583 10.354167,27.135417 12.03125,24.28125 C 10.541667,21.09375 9.0520833,17.90625 7.5625,14.71875 C 3.9479167,14.604167 0.33333333,14.489583 -3.28125,14.375 C -5.3125,17.770833 -7.34375,21.166667 -9.375,24.5625 z"
         id="path4798" />
    </g>
  </g>
</svg>
