<?xml version="1.0" encoding="UTF-8" standalone="no"?>
<!-- Created with Inkscape (http://www.inkscape.org/) -->
<svg
   xmlns:dc="http://purl.org/dc/elements/1.1/"
   xmlns:cc="http://web.resource.org/cc/"
   xmlns:rdf="http://www.w3.org/1999/02/22-rdf-syntax-ns#"
   xmlns:svg="http://www.w3.org/2000/svg"
   xmlns="http://www.w3.org/2000/svg"
   xmlns:sodipodi="http://inkscape.sourceforge.net/DTD/sodipodi-0.dtd"
   xmlns:inkscape="http://www.inkscape.org/namespaces/inkscape"
   width="16px"
   height="16px"
   id="svg2160"
   sodipodi:version="0.32"
   inkscape:version="0.43"
   sodipodi:docbase="/lmb/wear/emsley/Projects/coot/pixmaps"
   sodipodi:docname="auto-fit-rotamer.svg"
   inkscape:export-filename="/home/paule/Projects/coot/pixmaps/auto-fit-rotamer.png"
   inkscape:export-xdpi="100"
   inkscape:export-ydpi="100">
  <defs
     id="defs2162" />
  <sodipodi:namedview
     id="base"
     pagecolor="#ffffff"
     bordercolor="#666666"
     borderopacity="1.0"
     inkscape:pageopacity="0.0"
     inkscape:pageshadow="2"
     inkscape:zoom="15.696216"
     inkscape:cx="8"
     inkscape:cy="8.4865631"
     inkscape:current-layer="layer1"
     showgrid="true"
     inkscape:grid-bbox="true"
     inkscape:document-units="px"
     inkscape:window-width="822"
     inkscape:window-height="584"
     inkscape:window-x="65"
     inkscape:window-y="358" />
  <metadata
     id="metadata2165">
    <rdf:RDF>
      <cc:Work
         rdf:about="">
        <dc:format>image/svg+xml</dc:format>
        <dc:type
           rdf:resource="http://purl.org/dc/dcmitype/StillImage" />
      </cc:Work>
    </rdf:RDF>
  </metadata>
  <g
     id="layer1"
     inkscape:label="Layer 1"
     inkscape:groupmode="layer">
    <g
       id="g3579"
       transform="matrix(1.222222,0,0,1.151128,-12.15285,-0.790414)">
      <path
         style="fill:#27c42b;fill-opacity:1;fill-rule:evenodd;stroke:none;stroke-width:1px;stroke-linecap:butt;stroke-linejoin:miter;stroke-opacity:1"
         d="M 13.186592,1.2872962 C 13.186592,1.2872962 13.501862,2.7661174 14.322174,3.6176799 C 15.142487,4.4692424 14.804368,4.7142764 15.296555,6.4955264 C 15.788743,8.2767764 16.790924,9.5161174 16.290924,10.74268 C 15.790924,11.969242 16.095612,10.937992 16.134674,11.08643 C 16.173737,11.234867 15.650299,10.734867 16.447174,11.33643 C 17.244049,11.937992 17.996679,14.147831 18.871679,14.483769 C 19.746679,14.819706 20.746896,12.594025 20.262521,11.914338 C 19.778146,11.23465 19.455988,11.600706 19.186655,10.278385 C 18.918971,8.9641624 19.08882,9.0657616 19.58882,7.8157616 C 20.08882,6.5657616 19.431549,5.9223674 19.384674,5.7739299 C 19.337799,5.6254924 20.083638,2.7012195 18.950825,1.9512195 C 17.818013,1.2012195 13.186592,1.2872962 13.186592,1.2872962 z "
         id="path3393"
         sodipodi:nodetypes="czzzzzzzzzzzc" />
      <path
         style="fill:#3ec000;fill-opacity:1;fill-rule:evenodd;stroke:none;stroke-width:1px;stroke-linecap:butt;stroke-linejoin:miter;stroke-opacity:1"
         d="M 17.15132,9.1570363 C 16.331007,9.4759255 15.575021,10.679746 14.512521,10.804746 C 13.450021,10.929746 13.788805,8.6051644 13.171617,8.3956502 C 12.55443,8.186136 10.800856,8.9073302 11.097731,9.6963924 C 11.394606,10.485454 12.008436,11.665653 12.602186,12.40784 C 13.195936,13.150028 13.780775,13.378123 14.46382,13.250786 C 15.10338,13.131556 15.616852,14.371841 16.460602,13.520278 C 17.304352,12.668716 17.260695,10.766411 17.83882,9.8445363 C 18.416945,8.9226613 17.971632,8.8381471 17.15132,9.1570363 z "
         id="path3395"
         sodipodi:nodetypes="czzzzzzzz" />
    </g>
    <g
       id="g3387"
       transform="matrix(1.222222,0,0,1.151128,0.759738,-0.982171)">
      <path
         id="path2168"
         d="M 8.9993192,12.5 L 6.1160188,10.335149 L 8.1265601,5.3857008 L 3.9504951,2.6160946"
         style="fill:none;fill-rule:evenodd;stroke:#12125a;stroke-width:1px;stroke-linecap:butt;stroke-linejoin:miter;stroke-opacity:1" />
      <path
         id="path3383"
         d="M 6.5,9.5 L 3.5,12.5 L 1.5,9.958911"
         style="fill:none;fill-rule:evenodd;stroke:#000050;stroke-width:1px;stroke-linecap:butt;stroke-linejoin:miter;stroke-opacity:1" />
    </g>
  </g>
</svg>
