<?xml version="1.0" encoding="UTF-8" standalone="no"?>
<!-- Created with Inkscape (http://www.inkscape.org/) -->
<svg
   xmlns:dc="http://purl.org/dc/elements/1.1/"
   xmlns:cc="http://web.resource.org/cc/"
   xmlns:rdf="http://www.w3.org/1999/02/22-rdf-syntax-ns#"
   xmlns:svg="http://www.w3.org/2000/svg"
   xmlns="http://www.w3.org/2000/svg"
   xmlns:sodipodi="http://inkscape.sourceforge.net/DTD/sodipodi-0.dtd"
   xmlns:inkscape="http://www.inkscape.org/namespaces/inkscape"
   width="16px"
   height="16px"
   id="svg2355"
   sodipodi:version="0.32"
   inkscape:version="0.43"
   sodipodi:docbase="/lmb/wear/emsley/Projects/coot/pixmaps"
   sodipodi:docname="ghosts.svg"
   inkscape:export-filename="/lmb/wear/emsley/Projects/coot/pixmaps/ghosts.png"
   inkscape:export-xdpi="90"
   inkscape:export-ydpi="90">
  <defs
     id="defs2357" />
  <sodipodi:namedview
     id="base"
     pagecolor="#ffffff"
     bordercolor="#666666"
     borderopacity="1.0"
     inkscape:pageopacity="0.0"
     inkscape:pageshadow="2"
     inkscape:zoom="15.696216"
     inkscape:cx="8"
     inkscape:cy="9.4928093"
     inkscape:current-layer="layer1"
     showgrid="true"
     inkscape:grid-bbox="true"
     inkscape:document-units="px"
     inkscape:window-width="799"
     inkscape:window-height="646"
     inkscape:window-x="107"
     inkscape:window-y="389" />
  <metadata
     id="metadata2360">
    <rdf:RDF>
      <cc:Work
         rdf:about="">
        <dc:format>image/svg+xml</dc:format>
        <dc:type
           rdf:resource="http://purl.org/dc/dcmitype/StillImage" />
      </cc:Work>
    </rdf:RDF>
  </metadata>
  <g
     id="layer1"
     inkscape:label="Layer 1"
     inkscape:groupmode="layer">
    <path
       style="fill:#8b93d9;fill-opacity:1;fill-rule:evenodd;stroke:#000000;stroke-width:0.52617997px;stroke-linecap:butt;stroke-linejoin:miter;stroke-opacity:1"
       d="M 9.5879581,5.8182795 C 8.8382591,5.2623154 8.5863357,4.3981901 9.8535757,3.367395 C 10.946247,2.4785979 9.2838674,0.17681818 8.2892116,0.27340624 C 7.0532961,0.39342232 5.7768577,0.48806833 5.2330849,2.0100572 C 4.9696179,2.747486 7.5730254,3.6956139 5.8108161,5.3630737 C 5.428245,5.7250749 -0.99177133,6.7535567 0.82984177,7.8054851 C 1.5312078,8.2105031 2.0382045,7.739409 2.3192552,9.1584432 C 3.2161413,8.9761072 6.3792416,7.3247679 5.6751506,9.2233019 C 4.9710596,11.121836 3.1048246,15.779346 4.8364546,15.779346 C 6.5680836,15.779346 5.7645578,14.884703 6.7605408,14.608924 C 7.7565238,14.333143 7.2688895,15.972821 8.7628635,15.661811 C 10.256839,15.350801 8.8583978,13.296318 9.8543805,13.52696 C 10.850365,13.757603 10.384258,14.412579 11.878232,14.968543 C 13.372207,15.524508 15.045625,14.823702 12.555667,10.931953 C 10.06571,7.0402044 10.713507,5.9551619 13.862999,8.0317476 C 13.866451,6.2383509 16.413055,7.4709004 15.856882,6.663927 C 14.564647,4.788972 9.6552611,5.8579125 9.5879581,5.8182795 z "
       id="path2365"
       sodipodi:nodetypes="cssssscssssssscsc" />
  </g>
</svg>
