<?xml version="1.0" encoding="UTF-8" standalone="no"?>
<!-- Created with Inkscape (http://www.inkscape.org/) -->
<svg
   xmlns:dc="http://purl.org/dc/elements/1.1/"
   xmlns:cc="http://web.resource.org/cc/"
   xmlns:rdf="http://www.w3.org/1999/02/22-rdf-syntax-ns#"
   xmlns:svg="http://www.w3.org/2000/svg"
   xmlns="http://www.w3.org/2000/svg"
   xmlns:sodipodi="http://sodipodi.sourceforge.net/DTD/sodipodi-0.dtd"
   xmlns:inkscape="http://www.inkscape.org/namespaces/inkscape"
   width="16px"
   height="16px"
   id="svg2301"
   sodipodi:version="0.32"
   inkscape:version="0.45+devel"
   sodipodi:docname="merge-molecules.svg"
   inkscape:output_extension="org.inkscape.output.svg.inkscape">
  <defs
     id="defs2303">
    <marker
       inkscape:stockid="Arrow1Send"
       orient="auto"
       refY="0.0"
       refX="0.0"
       id="Arrow1Send"
       style="overflow:visible;">
      <path
         id="path4064"
         d="M 0.0,0.0 L 5.0,-5.0 L -12.5,0.0 L 5.0,5.0 L 0.0,0.0 z "
         style="fill-rule:evenodd;stroke:#000000;stroke-width:1.0pt;marker-start:none;"
         transform="scale(0.2) rotate(180) translate(6,0)" />
    </marker>
    <marker
       inkscape:stockid="Arrow1Sstart"
       orient="auto"
       refY="0.0"
       refX="0.0"
       id="Arrow1Sstart"
       style="overflow:visible">
      <path
         id="path4061"
         d="M 0.0,0.0 L 5.0,-5.0 L -12.5,0.0 L 5.0,5.0 L 0.0,0.0 z "
         style="fill-rule:evenodd;stroke:#000000;stroke-width:1.0pt;marker-start:none"
         transform="scale(0.2) translate(6,0)" />
    </marker>
    <marker
       inkscape:stockid="Arrow1Lstart"
       orient="auto"
       refY="0.0"
       refX="0.0"
       id="Arrow1Lstart"
       style="overflow:visible">
      <path
         id="path4049"
         d="M 0.0,0.0 L 5.0,-5.0 L -12.5,0.0 L 5.0,5.0 L 0.0,0.0 z "
         style="fill-rule:evenodd;stroke:#000000;stroke-width:1.0pt;marker-start:none"
         transform="scale(0.8) translate(12.5,0)" />
    </marker>
  </defs>
  <sodipodi:namedview
     id="base"
     pagecolor="#ffffff"
     bordercolor="#666666"
     borderopacity="1.0"
     inkscape:pageopacity="0.0"
     inkscape:pageshadow="2"
     inkscape:zoom="5.5494505"
     inkscape:cx="8"
     inkscape:cy="13.552475"
     inkscape:current-layer="layer1"
     showgrid="true"
     inkscape:grid-bbox="true"
     inkscape:document-units="px"
     inkscape:window-width="839"
     inkscape:window-height="655"
     inkscape:window-x="343"
     inkscape:window-y="58">
    <inkscape:grid
       type="xygrid"
       id="grid2311" />
  </sodipodi:namedview>
  <metadata
     id="metadata2306">
    <rdf:RDF>
      <cc:Work
         rdf:about="">
        <dc:format>image/svg+xml</dc:format>
        <dc:type
           rdf:resource="http://purl.org/dc/dcmitype/StillImage" />
      </cc:Work>
    </rdf:RDF>
  </metadata>
  <g
     id="layer1"
     inkscape:label="Layer 1"
     inkscape:groupmode="layer">
    <path
       style="opacity:1;fill:#a27918;fill-opacity:1;fill-rule:evenodd;stroke:none;stroke-width:0.5;stroke-miterlimit:4;stroke-dasharray:none;stroke-dashoffset:0;stroke-opacity:1"
       d="M 3.1744407,2.9624829 C 1.3189836,3.8751924 0.049504957,5.7532931 0.049504947,7.9392326 C 0.049504947,11.01535 2.5614325,13.517822 5.6743894,13.517822 C 6.5425793,13.517822 7.3700279,13.30907 8.1048951,12.962277 C 8.2576001,12.31532 8.3774043,11.630555 8.4289625,10.925282 C 8.7626556,6.3606529 2.3492375,8.8143978 2.5494536,5.2772502 C 2.5956009,4.4619808 2.8306343,3.6798759 3.1744407,2.9624829 z"
       id="path2309" />
    <path
       style="opacity:1;fill:#3bd218;fill-opacity:1;fill-rule:evenodd;stroke:none;stroke-width:0.50000000000000000;stroke-miterlimit:4;stroke-dasharray:none;stroke-dashoffset:0;stroke-opacity:1"
       d="M 10.318133,2.1147786 C 9.4172949,2.1147786 8.5737804,2.3217887 7.8181848,2.6934704 C 7.4743785,3.4108633 7.2393448,4.1929682 7.1931976,5.0082376 C 6.9929824,8.545385 13.406399,6.0916406 13.072706,10.65627 C 13.021148,11.361543 12.901344,12.046307 12.748639,12.693265 C 14.648689,11.796608 15.966166,9.8884216 15.966165,7.67022 C 15.966165,4.5941027 13.431091,2.1147785 10.318133,2.1147786 z"
       id="path2317" />
    <path
       style="fill:none;fill-rule:evenodd;stroke:#000000;stroke-width:0.50035775px;stroke-linecap:butt;stroke-linejoin:miter;marker-start:none;marker-end:url(#Arrow1Send);stroke-opacity:1"
       d="M 6.9930215,4.0165831 L 5.8459777,5.0481674 C 4.5483453,6.2185044 4.5483453,6.2185044 4.5483453,6.2185044"
       id="path3282" />
    <path
       style="fill:none;fill-rule:evenodd;stroke:#000000;stroke-width:0.50035775px;stroke-linecap:butt;stroke-linejoin:miter;marker-start:none;marker-end:url(#Arrow1Send);stroke-opacity:1"
       d="M 11.848963,9.1066821 L 10.701918,10.138266 C 9.4042859,11.308603 9.4042859,11.308603 9.4042859,11.308603"
       id="path6225" />
  </g>
</svg>
