<?xml version="1.0" encoding="UTF-8" standalone="no"?>
<!-- Created with Inkscape (http://www.inkscape.org/) -->

<svg
   inkscape:export-ydpi="32.455299"
   inkscape:export-xdpi="32.455299"
   inkscape:export-filename="/home/paule/Projects/coot/git/coot-gtk3/coot/pixmaps/add-alt-conf.png"
   sodipodi:docname="add-alt-conf.svg"
   inkscape:version="1.1.1 (3bf5ae0d25, 2021-09-20)"
   sodipodi:version="0.32"
   id="svg2160"
   height="48"
   width="48"
   version="1.1"
   xmlns:inkscape="http://www.inkscape.org/namespaces/inkscape"
   xmlns:sodipodi="http://sodipodi.sourceforge.net/DTD/sodipodi-0.dtd"
   xmlns="http://www.w3.org/2000/svg"
   xmlns:svg="http://www.w3.org/2000/svg"
   xmlns:rdf="http://www.w3.org/1999/02/22-rdf-syntax-ns#"
   xmlns:cc="http://creativecommons.org/ns#"
   xmlns:dc="http://purl.org/dc/elements/1.1/">
  <defs
     id="defs2162">
    <inkscape:perspective
       sodipodi:type="inkscape:persp3d"
       inkscape:vp_x="0 : 8 : 1"
       inkscape:vp_y="0 : 1000 : 0"
       inkscape:vp_z="16 : 8 : 1"
       inkscape:persp3d-origin="8 : 5.3333333 : 1"
       id="perspective5638" />
    <marker
       style="overflow:visible"
       id="TriangleOutS"
       refX="0"
       refY="0"
       orient="auto"
       inkscape:stockid="TriangleOutS">
      <path
         transform="scale(0.2,0.2)"
         style="fill-rule:evenodd;stroke:#000000;stroke-width:1pt;marker-start:none"
         d="m 5.77,0 -8.65,5 0,-10 8.65,5 z"
         id="path3674" />
    </marker>
    <marker
       style="overflow:visible"
       id="TriangleOutL"
       refX="0"
       refY="0"
       orient="auto"
       inkscape:stockid="TriangleOutL">
      <path
         transform="scale(0.8,0.8)"
         style="fill-rule:evenodd;stroke:#000000;stroke-width:1pt;marker-start:none"
         d="m 5.77,0 -8.65,5 0,-10 8.65,5 z"
         id="path3680" />
    </marker>
  </defs>
  <sodipodi:namedview
     inkscape:window-y="138"
     inkscape:window-x="718"
     inkscape:window-height="1062"
     inkscape:window-width="2273"
     inkscape:document-units="px"
     inkscape:grid-bbox="true"
     showgrid="true"
     inkscape:current-layer="layer1"
     inkscape:cy="29.242717"
     inkscape:cx="47.33625"
     inkscape:zoom="7.848108"
     inkscape:pageshadow="2"
     inkscape:pageopacity="0.0"
     borderopacity="1.0"
     bordercolor="#666666"
     pagecolor="#ffffff"
     id="base"
     inkscape:window-maximized="0"
     inkscape:pagecheckerboard="0" />
  <metadata
     id="metadata2165">
    <rdf:RDF>
      <cc:Work
         rdf:about="">
        <dc:format>image/svg+xml</dc:format>
        <dc:type
           rdf:resource="http://purl.org/dc/dcmitype/StillImage" />
      </cc:Work>
    </rdf:RDF>
  </metadata>
  <g
     inkscape:groupmode="layer"
     inkscape:label="Layer 1"
     id="layer1"
     transform="translate(0,32)">
    <path
       id="path3383"
       style="color:#000000;fill:#f1e85d;stroke:#000000;stroke-opacity:1;stroke-width:0.7;stroke-miterlimit:4;stroke-dasharray:none"
       d="M 34.115234 26.056641 L 30.443359 26.082031 L 30.513672 36.648438 L 23.630859 42.904297 L 13.90625 35.503906 A 1.8362244 1.8362244 0 0 0 11.333984 35.853516 A 1.8362244 1.8362244 0 0 0 11.683594 38.427734 L 23.839844 47.675781 L 32.595703 39.71875 L 43.886719 47.666016 A 1.8362244 1.8362244 0 0 0 46.445312 47.220703 A 1.8362244 1.8362244 0 0 0 46 44.662109 L 34.183594 36.34375 L 34.115234 26.056641 z "
       transform="translate(0,-32)" />
    <path
       style="color:#000000;fill:#ede561;stroke-linecap:round;stroke:#000000;stroke-opacity:1;stroke-width:0.7;stroke-miterlimit:4;stroke-dasharray:none"
       d="m 20.498047,-20.041016 a 1.8362244,1.8362244 0 0 0 -1.335938,0.435547 1.8362244,1.8362244 0 0 0 -0.201172,2.589844 l 12.613282,14.7460937 a 1.8362244,1.8362244 0 0 0 2.589843,0.2011719 1.8362244,1.8362244 0 0 0 0.201172,-2.5898437 L 21.75,-19.404297 a 1.8362244,1.8362244 0 0 0 -1.251953,-0.636719 z"
       id="path3819" />
    <path
       style="color:#000000;fill:#1fd815;stroke-linecap:round;stroke:#000000;stroke-opacity:1;stroke-width:0.7;stroke-miterlimit:4;stroke-dasharray:none"
       d="M 44.021484,-18.800781 31.019531,-5.9433594 A 2.5224886,2.5224886 0 0 0 31,-2.3769531 a 2.5224886,2.5224886 0 0 0 3.566406,0.019531 L 47.568359,-15.214844 a 2.5224886,2.5224886 0 0 0 0.01953,-3.566406 2.5224886,2.5224886 0 0 0 -3.566407,-0.01953 z"
       id="path3821" />
    <path
       id="path2292"
       style="color:#000000;fill:#c0c0c0;stroke:#232323;stroke-width:0.7;stroke-opacity:1;stroke-miterlimit:4;stroke-dasharray:none"
       d="M 9.890625 0.84960938 L 6.9511719 0.8671875 L 6.9824219 6.6074219 L 1.0195312 6.640625 L 1.0292969 9.640625 L 6.9980469 9.6074219 L 7.0332031 15.882812 L 9.9707031 15.871094 L 9.9375 9.5917969 L 15.748047 9.5585938 L 15.730469 6.5585938 L 9.921875 6.5917969 L 9.890625 0.84960938 z "
       transform="translate(0,-32)" />
  </g>
</svg>
