<?xml version="1.0" encoding="UTF-8" standalone="no"?>
<!-- Created with Inkscape (http://www.inkscape.org/) -->

<svg
   width="48"
   height="48"
   id="svg1340"
   sodipodi:version="0.32"
   inkscape:version="1.1.1 (3bf5ae0d25, 2021-09-20)"
   sodipodi:docname="anchor.svg"
   version="1.1"
   inkscape:export-filename="/home/paule/Projects/coot/git/coot-gtk4/coot/pixmaps/anchor.png"
   inkscape:export-xdpi="31.5"
   inkscape:export-ydpi="31.5"
   xmlns:inkscape="http://www.inkscape.org/namespaces/inkscape"
   xmlns:sodipodi="http://sodipodi.sourceforge.net/DTD/sodipodi-0.dtd"
   xmlns="http://www.w3.org/2000/svg"
   xmlns:svg="http://www.w3.org/2000/svg"
   xmlns:rdf="http://www.w3.org/1999/02/22-rdf-syntax-ns#"
   xmlns:cc="http://creativecommons.org/ns#"
   xmlns:dc="http://purl.org/dc/elements/1.1/">
  <defs
     id="defs1342">
    <linearGradient
       id="linearGradient2247">
      <stop
         style="stop-color:#1b554f;stop-opacity:1;"
         offset="0"
         id="stop2249" />
      <stop
         style="stop-color:#b5e8e3;stop-opacity:0.89898992;"
         offset="1"
         id="stop2251" />
    </linearGradient>
    <linearGradient
       id="linearGradient2231">
      <stop
         style="stop-color:#29414b;stop-opacity:1;"
         offset="0"
         id="stop2233" />
      <stop
         style="stop-color:#d4e2e8;stop-opacity:1;"
         offset="1"
         id="stop2235" />
    </linearGradient>
  </defs>
  <sodipodi:namedview
     id="base"
     pagecolor="#ffffff"
     bordercolor="#666666"
     borderopacity="1.0"
     inkscape:pageopacity="0.0"
     inkscape:pageshadow="2"
     inkscape:zoom="16"
     inkscape:cx="20.125"
     inkscape:cy="13"
     inkscape:current-layer="layer1"
     showgrid="true"
     inkscape:grid-bbox="true"
     inkscape:document-units="px"
     inkscape:window-width="1492"
     inkscape:window-height="1133"
     inkscape:window-x="743"
     inkscape:window-y="214"
     inkscape:window-maximized="0"
     inkscape:pagecheckerboard="0" />
  <metadata
     id="metadata1345">
    <rdf:RDF>
      <cc:Work
         rdf:about="">
        <dc:format>image/svg+xml</dc:format>
        <dc:type
           rdf:resource="http://purl.org/dc/dcmitype/StillImage" />
      </cc:Work>
    </rdf:RDF>
  </metadata>
  <g
     id="layer1"
     inkscape:label="Layer 1"
     inkscape:groupmode="layer"
     transform="translate(0,32)">
    <path
       id="path2265"
       style="fill:#a1bcb9;fill-opacity:1;stroke:#000000;stroke-width:1.0469;stroke-miterlimit:4;stroke-dasharray:none;stroke-opacity:1"
       d="m 20.981557,-31.389436 -0.02418,5.533293 H 6.7374067 v 6.734594 h 0.4849207 c -0.4640851,0.830749 -0.7231859,1.928747 -0.7245726,3.070539 -1.458e-4,2.478769 1.1900214,4.488643 2.6586386,4.48973 1.4693486,6.58e-4 2.6606566,-2.009727 2.6605106,-4.48973 -3.73e-4,-1.140927 -0.258108,-2.238812 -0.720828,-3.070539 h 9.861303 V 6.0194357 L 13.706488,3.434669 15.409811,0.40072146 8.433693,0.52054743 1.4557029,0.64224555 5.0429927,6.9630652 8.6302825,13.285757 11.169394,8.7252499 c 5.054536,3.0481521 11.363742,5.5041361 12.884736,5.5041361 1.542936,0 7.184216,-2.601613 12.560556,-5.0023967 L 38.818936,13.28014 42.406227,6.9574487 45.993516,0.63475595 39.017398,0.51492998 32.041281,0.39323186 33.614479,3.1901781 C 31.102021,4.5810282 28.613385,5.2949832 26.64724,5.7816559 V -19.121549 h 9.758327 c -0.610391,0.850826 -0.964516,2.116342 -0.966098,3.452485 4.67e-4,2.479272 1.191596,4.488516 2.660511,4.487857 1.468915,6.6e-4 2.660045,-2.008585 2.660512,-4.487857 -1.96e-4,-1.334584 -0.352187,-2.599832 -0.96048,-3.452485 h 1.0672 v -6.734594 H 26.64724 l 0.02418,-5.533293 z"
       inkscape:export-filename="/home/paule/Projects/coot/git/coot-gtk4/coot/pixmaps/anchor.png"
       inkscape:export-xdpi="31.5"
       inkscape:export-ydpi="31.5"
       sodipodi:nodetypes="ccccccccccccccccccsccccccccccccccccccc" />
  </g>
</svg>
