<?xml version="1.0" encoding="UTF-8" standalone="no"?>
<!-- Created with Inkscape (http://www.inkscape.org/) -->

<svg
   xmlns:dc="http://purl.org/dc/elements/1.1/"
   xmlns:cc="http://creativecommons.org/ns#"
   xmlns:rdf="http://www.w3.org/1999/02/22-rdf-syntax-ns#"
   xmlns:svg="http://www.w3.org/2000/svg"
   xmlns="http://www.w3.org/2000/svg"
   xmlns:sodipodi="http://sodipodi.sourceforge.net/DTD/sodipodi-0.dtd"
   xmlns:inkscape="http://www.inkscape.org/namespaces/inkscape"
   width="48"
   height="48"
   id="svg2160"
   sodipodi:version="0.32"
   inkscape:version="0.47 r22583"
   sodipodi:docname="auto-fit-rotamer.svg"
   inkscape:export-filename="/home/paule/Projects/coot/pixmaps/auto-fit-rotamer.png"
   inkscape:export-xdpi="100"
   inkscape:export-ydpi="100"
   version="1.1">
  <defs
     id="defs2162">
    <inkscape:perspective
       sodipodi:type="inkscape:persp3d"
       inkscape:vp_x="0 : 8 : 1"
       inkscape:vp_y="0 : 1000 : 0"
       inkscape:vp_z="16 : 8 : 1"
       inkscape:persp3d-origin="8 : 5.3333333 : 1"
       id="perspective4034" />
    <inkscape:perspective
       id="perspective4536"
       inkscape:persp3d-origin="0.5 : 0.33333333 : 1"
       inkscape:vp_z="1 : 0.5 : 1"
       inkscape:vp_y="0 : 1000 : 0"
       inkscape:vp_x="0 : 0.5 : 1"
       sodipodi:type="inkscape:persp3d" />
    <inkscape:perspective
       id="perspective4558"
       inkscape:persp3d-origin="0.5 : 0.33333333 : 1"
       inkscape:vp_z="1 : 0.5 : 1"
       inkscape:vp_y="0 : 1000 : 0"
       inkscape:vp_x="0 : 0.5 : 1"
       sodipodi:type="inkscape:persp3d" />
  </defs>
  <sodipodi:namedview
     id="base"
     pagecolor="#ffffff"
     bordercolor="#666666"
     borderopacity="1.0"
     inkscape:pageopacity="0.0"
     inkscape:pageshadow="2"
     inkscape:zoom="3.924054"
     inkscape:cx="21.564707"
     inkscape:cy="-14.145074"
     inkscape:current-layer="layer1"
     showgrid="true"
     inkscape:grid-bbox="true"
     inkscape:document-units="px"
     inkscape:window-width="993"
     inkscape:window-height="722"
     inkscape:window-x="56"
     inkscape:window-y="141"
     inkscape:window-maximized="0" />
  <metadata
     id="metadata2165">
    <rdf:RDF>
      <cc:Work
         rdf:about="">
        <dc:format>image/svg+xml</dc:format>
        <dc:type
           rdf:resource="http://purl.org/dc/dcmitype/StillImage" />
      </cc:Work>
    </rdf:RDF>
  </metadata>
  <g
     id="layer1"
     inkscape:label="Layer 1"
     inkscape:groupmode="layer"
     transform="translate(0,32)">
    <g
       id="g3579"
       transform="matrix(3.7779685,0,0,3.5582123,-36.097808,-35.991473)">
      <path
         style="fill:#27c42b;fill-opacity:1;fill-rule:evenodd;stroke:none"
         d="m 13.186595,1.2872962 c 0,0 -0.831448,2.0517797 -0.01113,2.9033422 0.820313,0.8515625 2.438355,-0.1209403 2.930542,1.6603097 0.492188,1.78125 -0.04021,2.9489712 -0.540206,4.1755339 -0.5,1.226562 0.529817,0.91151 0.568879,1.059948 0.03906,0.148437 -0.484375,-0.351563 0.3125,0.25 0.796875,0.601562 1.549505,2.811401 2.424505,3.147339 0.875,0.335937 1.875217,-1.889744 1.390842,-2.569431 -0.484375,-0.679688 -0.806533,-0.313632 -1.075866,-1.635953 -0.267684,-1.3142226 -0.09783,-1.2126234 0.402165,-2.4626234 0.5,-1.25 -0.157271,-1.8933942 -0.204146,-2.0418317 -0.04687,-0.1484375 0.698964,-3.0727104 -0.433849,-3.8227104 -1.132812,-0.75 -5.764233,-0.6639233 -5.764233,-0.6639233 z"
         id="path3393"
         sodipodi:nodetypes="czzzzzzzzzzzc" />
      <path
         style="fill:#3ec000;fill-opacity:1;fill-rule:evenodd;stroke:none"
         d="m 17.15132,9.1570363 c -0.820313,0.3188892 -1.626889,1.2183257 -2.689389,1.3433257 -1.0625,0.125 -0.673126,-1.8951976 -1.290314,-2.1047118 -0.617187,-0.2095142 -2.370761,0.51168 -2.073886,1.3007422 0.296875,0.7890616 0.910705,1.9692606 1.504455,2.7114476 0.59375,0.742188 1.178589,0.970283 1.861634,0.842946 0.63956,-0.11923 1.153032,1.121055 1.996782,0.269492 0.84375,-0.851562 0.800093,-2.753867 1.378218,-3.6757417 0.578125,-0.921875 0.132812,-1.0063892 -0.6875,-0.6875 z"
         id="path3395"
         sodipodi:nodetypes="czzzzzzzz" />
    </g>
    <path
       style="fill:#ffffff;fill-opacity:0.50261778;stroke:none"
       d="m 24.008024,-29.916458 c 1.870996,-0.785522 14.329762,1.790755 11.998416,6.187066 -1.55597,2.934155 1.505879,17.0566714 -0.351074,12.414288 -2,-5 -4.580277,-14.213081 -4.580277,-14.213081 l -7.067065,-4.388273 z"
       id="path3221"
       sodipodi:nodetypes="csscc" />
    <path
       style="fill:#ffffff;fill-opacity:0.46596858;stroke:none"
       d="m 36.358687,12.916661 c -2.011611,0.145691 -5.698183,-2.639945 -2.294182,-4.6233417 2.271874,-1.3237448 0.142897,-13.6239317 0.715587,-10.9098158 0.616805,2.92319263 3.840629,11.5747268 3.840629,11.5747268 l -2.262034,3.9584307 z"
       id="path3221-8"
       sodipodi:nodetypes="csscc" />
    <g
       id="g3387"
       transform="matrix(3.7779685,0,0,3.5582123,3.8158502,-36.584206)">
      <path
         id="path2168"
         d="M 8.9993192,12.5 6.1160188,10.335149 8.1265601,5.3857008 3.9504951,2.6160946"
         style="fill:none;stroke:#12125a;stroke-width:1px;stroke-linecap:butt;stroke-linejoin:miter;stroke-opacity:1" />
      <path
         id="path3383"
         d="m 6.5,9.5 -3,3 -2,-2.541089"
         style="fill:none;stroke:#000050;stroke-width:1px;stroke-linecap:butt;stroke-linejoin:miter;stroke-opacity:1" />
    </g>
  </g>
</svg>
