<?xml version="1.0" encoding="UTF-8" standalone="no"?>
<!-- Created with Inkscape (http://www.inkscape.org/) -->

<svg
   xmlns:dc="http://purl.org/dc/elements/1.1/"
   xmlns:cc="http://creativecommons.org/ns#"
   xmlns:rdf="http://www.w3.org/1999/02/22-rdf-syntax-ns#"
   xmlns:svg="http://www.w3.org/2000/svg"
   xmlns="http://www.w3.org/2000/svg"
   xmlns:xlink="http://www.w3.org/1999/xlink"
   xmlns:sodipodi="http://sodipodi.sourceforge.net/DTD/sodipodi-0.dtd"
   xmlns:inkscape="http://www.inkscape.org/namespaces/inkscape"
   width="16px"
   height="16px"
   id="svg6806"
   sodipodi:version="0.32"
   inkscape:version="0.92.5 (2060ec1f9f, 2020-04-08)"
   sodipodi:docname="connect-to-usf.svg"
   inkscape:output_extension="org.inkscape.output.svg.inkscape"
   version="1.1">
  <defs
     id="defs6808">
    <linearGradient
       id="linearGradient3285">
      <stop
         style="stop-color:#ffffff;stop-opacity:1;"
         offset="0"
         id="stop3287" />
      <stop
         style="stop-color:#6e6e6e;stop-opacity:1;"
         offset="1"
         id="stop3289" />
    </linearGradient>
    <linearGradient
       id="linearGradient3270">
      <stop
         style="stop-color:#1a1a1a;stop-opacity:1;"
         offset="0"
         id="stop3272" />
      <stop
         style="stop-color:#c3c3c3;stop-opacity:0;"
         offset="1"
         id="stop3274" />
    </linearGradient>
    <linearGradient
       id="linearGradient3254">
      <stop
         id="stop3256"
         offset="0"
         style="stop-color:#9bda9e;stop-opacity:1;" />
      <stop
         id="stop3258"
         offset="1"
         style="stop-color:#399a3d;stop-opacity:1;" />
    </linearGradient>
    <linearGradient
       id="linearGradient3240">
      <stop
         id="stop3242"
         offset="0"
         style="stop-color:#b6b8ff;stop-opacity:1;" />
      <stop
         id="stop3244"
         offset="1"
         style="stop-color:#0000ff;stop-opacity:1;" />
    </linearGradient>
    <linearGradient
       id="linearGradient2851">
      <stop
         style="stop-color:#000000;stop-opacity:1;"
         offset="0"
         id="stop2853" />
      <stop
         style="stop-color:#000000;stop-opacity:0;"
         offset="1"
         id="stop2855" />
    </linearGradient>
    <linearGradient
       inkscape:collect="always"
       id="linearGradient7278">
      <stop
         style="stop-color:#ffffff;stop-opacity:1;"
         offset="0"
         id="stop7280" />
      <stop
         style="stop-color:#ffffff;stop-opacity:0;"
         offset="1"
         id="stop7282" />
    </linearGradient>
    <linearGradient
       id="linearGradient7262">
      <stop
         style="stop-color:#888bfe;stop-opacity:1;"
         offset="0"
         id="stop7264" />
      <stop
         style="stop-color:#ffffff;stop-opacity:1;"
         offset="1"
         id="stop7266" />
    </linearGradient>
    <linearGradient
       inkscape:collect="always"
       xlink:href="#linearGradient7262"
       id="linearGradient7268"
       x1="4.5967698"
       y1="5.5516224"
       x2="6.8072529"
       y2="0.5822717"
       gradientUnits="userSpaceOnUse"
       gradientTransform="translate(-0.9556444,0.3822577)" />
    <linearGradient
       inkscape:collect="always"
       xlink:href="#linearGradient7262"
       id="linearGradient7272"
       gradientUnits="userSpaceOnUse"
       gradientTransform="translate(4.9362903,0.2935463)"
       x1="4.5967698"
       y1="5.5516224"
       x2="6.8072529"
       y2="0.5822717" />
    <linearGradient
       inkscape:collect="always"
       xlink:href="#linearGradient7278"
       id="linearGradient7284"
       x1="2.8404164"
       y1="2.8324013"
       x2="12.407449"
       y2="9.1989975"
       gradientUnits="userSpaceOnUse" />
    <radialGradient
       inkscape:collect="always"
       xlink:href="#linearGradient3240"
       id="radialGradient2857"
       cx="-203.72662"
       cy="389.86661"
       fx="-203.72662"
       fy="389.86661"
       r="779.43323"
       gradientTransform="translate(0,5.1869245e-5)"
       gradientUnits="userSpaceOnUse" />
    <radialGradient
       inkscape:collect="always"
       xlink:href="#linearGradient3254"
       id="radialGradient3252"
       cx="3.0902102"
       cy="6.5143447"
       fx="3.0902102"
       fy="6.5143447"
       r="3.6374371"
       gradientTransform="matrix(0.9975375,-4.2549656e-2,4.9462775e-2,1.1596092,-0.3492926,-2.3757353)"
       gradientUnits="userSpaceOnUse" />
    <linearGradient
       inkscape:collect="always"
       xlink:href="#linearGradient3270"
       id="linearGradient3276"
       x1="15.382335"
       y1="9.6849165"
       x2="10.059765"
       y2="6.1808877"
       gradientUnits="userSpaceOnUse"
       gradientTransform="matrix(0.9984446,0,0,0.9984446,-8.3930412e-4,2.2814117e-4)" />
    <radialGradient
       inkscape:collect="always"
       xlink:href="#linearGradient3285"
       id="radialGradient3291"
       cx="5.6866803"
       cy="3.5061159"
       fx="5.6866803"
       fy="3.5061159"
       r="1.9960537"
       gradientTransform="matrix(2.7917669,-0.3524404,0.1956759,2.6382996,-11.53804,-2.109557)"
       gradientUnits="userSpaceOnUse" />
    <linearGradient
       inkscape:collect="always"
       xlink:href="#linearGradient7262"
       id="linearGradient3293"
       gradientUnits="userSpaceOnUse"
       gradientTransform="matrix(0.6958568,0,0,0.6958568,8.9903963,-11.195944)"
       x1="4.5967698"
       y1="5.5516224"
       x2="6.8072529"
       y2="0.5822717" />
    <linearGradient
       inkscape:collect="always"
       xlink:href="#linearGradient7262"
       id="linearGradient3295"
       gradientUnits="userSpaceOnUse"
       gradientTransform="matrix(0.6958568,0,0,0.6958568,4.8904534,-11.134213)"
       x1="4.5967698"
       y1="5.5516224"
       x2="6.8072529"
       y2="0.5822717" />
    <linearGradient
       inkscape:collect="always"
       xlink:href="#linearGradient7278"
       id="linearGradient3297"
       gradientUnits="userSpaceOnUse"
       gradientTransform="matrix(0,0.6958568,-0.6958568,0,11.40021,5.5554451)"
       x1="2.8404164"
       y1="2.8324013"
       x2="12.407449"
       y2="9.1989975" />
    <linearGradient
       inkscape:collect="always"
       xlink:href="#linearGradient7278"
       id="linearGradient3301"
       gradientUnits="userSpaceOnUse"
       gradientTransform="matrix(0,0.6958568,-0.6958568,0,10.707713,15.430436)"
       x1="2.8404164"
       y1="2.8324013"
       x2="12.407449"
       y2="9.1989975" />
    <linearGradient
       inkscape:collect="always"
       xlink:href="#linearGradient7262"
       id="linearGradient3305"
       gradientUnits="userSpaceOnUse"
       gradientTransform="matrix(0.8211366,0,0,0.8211366,14.189562,-11.558889)"
       x1="4.5967698"
       y1="5.5516224"
       x2="6.8072529"
       y2="0.5822717" />
    <linearGradient
       inkscape:collect="always"
       xlink:href="#linearGradient7262"
       id="linearGradient3308"
       gradientUnits="userSpaceOnUse"
       gradientTransform="matrix(0.6958568,0,0,0.6958568,18.865388,-10.503447)"
       x1="4.5967698"
       y1="5.5516224"
       x2="6.8072529"
       y2="0.5822717" />
    <linearGradient
       inkscape:collect="always"
       xlink:href="#linearGradient7262"
       id="linearGradient3312"
       gradientUnits="userSpaceOnUse"
       gradientTransform="matrix(0.8211366,0,0,0.8211366,17.876022,-11.517944)"
       x1="4.5967698"
       y1="5.5516224"
       x2="6.8072529"
       y2="0.5822717" />
    <linearGradient
       inkscape:collect="always"
       xlink:href="#linearGradient7262"
       id="linearGradient3321"
       gradientUnits="userSpaceOnUse"
       gradientTransform="matrix(0.8211366,0,0,0.8211366,17.876022,-11.517944)"
       x1="4.5967698"
       y1="5.5516224"
       x2="6.8072529"
       y2="0.5822717" />
    <linearGradient
       inkscape:collect="always"
       xlink:href="#linearGradient7262"
       id="linearGradient3323"
       gradientUnits="userSpaceOnUse"
       gradientTransform="matrix(0.8211366,0,0,0.8211366,14.189562,-11.558889)"
       x1="4.5967698"
       y1="5.5516224"
       x2="6.8072529"
       y2="0.5822717" />
    <linearGradient
       inkscape:collect="always"
       xlink:href="#linearGradient7278"
       id="linearGradient3325"
       gradientUnits="userSpaceOnUse"
       gradientTransform="matrix(0,0.6958568,-0.6958568,0,10.707713,15.430436)"
       x1="2.8404164"
       y1="2.8324013"
       x2="12.407449"
       y2="9.1989975" />
    <linearGradient
       inkscape:collect="always"
       xlink:href="#linearGradient7278"
       id="linearGradient3329"
       gradientUnits="userSpaceOnUse"
       gradientTransform="matrix(0,0.6958568,-0.6958568,0,11.269701,16.5939)"
       x1="2.8404164"
       y1="2.8324013"
       x2="12.407449"
       y2="9.1989975" />
    <linearGradient
       inkscape:collect="always"
       xlink:href="#linearGradient7262"
       id="linearGradient3333"
       gradientUnits="userSpaceOnUse"
       gradientTransform="matrix(0.8211366,0,0,0.8211366,15.034478,-12.655556)"
       x1="4.5967698"
       y1="5.5516224"
       x2="6.8072529"
       y2="0.5822717" />
    <linearGradient
       inkscape:collect="always"
       xlink:href="#linearGradient7262"
       id="linearGradient3336"
       gradientUnits="userSpaceOnUse"
       gradientTransform="matrix(0.8211366,0,0,0.8211366,19.039486,-12.079932)"
       x1="4.5967698"
       y1="5.5516224"
       x2="6.8072529"
       y2="0.5822717" />
    <linearGradient
       inkscape:collect="always"
       xlink:href="#linearGradient7262"
       id="linearGradient3340"
       gradientUnits="userSpaceOnUse"
       gradientTransform="matrix(0.8211366,0,0,0.8211366,20.189562,-15.558889)"
       x1="4.5967698"
       y1="5.5516224"
       x2="6.8072529"
       y2="0.5822717" />
    <linearGradient
       inkscape:collect="always"
       xlink:href="#linearGradient7262"
       id="linearGradient3344"
       gradientUnits="userSpaceOnUse"
       gradientTransform="matrix(0.8211366,0,0,0.8211366,18.882057,-12.655555)"
       x1="4.5967698"
       y1="5.5516224"
       x2="6.8072529"
       y2="0.5822717" />
    <linearGradient
       inkscape:collect="always"
       xlink:href="#linearGradient7262"
       id="linearGradient3353"
       gradientUnits="userSpaceOnUse"
       gradientTransform="matrix(0.8211366,0,0,0.8211366,18.882057,-12.655555)"
       x1="4.5967698"
       y1="5.5516224"
       x2="6.8072529"
       y2="0.5822717" />
    <linearGradient
       inkscape:collect="always"
       xlink:href="#linearGradient7262"
       id="linearGradient3355"
       gradientUnits="userSpaceOnUse"
       gradientTransform="matrix(0.8211366,0,0,0.8211366,15.034478,-12.655556)"
       x1="4.5967698"
       y1="5.5516224"
       x2="6.8072529"
       y2="0.5822717" />
    <linearGradient
       inkscape:collect="always"
       xlink:href="#linearGradient7278"
       id="linearGradient3357"
       gradientUnits="userSpaceOnUse"
       gradientTransform="matrix(0,0.6958568,-0.6958568,0,11.269701,16.5939)"
       x1="2.8404164"
       y1="2.8324013"
       x2="12.407449"
       y2="9.1989975" />
    <linearGradient
       inkscape:collect="always"
       xlink:href="#linearGradient7278"
       id="linearGradient3361"
       gradientUnits="userSpaceOnUse"
       gradientTransform="matrix(0,0.6958568,-0.6958568,0,9.6769605,16.211643)"
       x1="2.8404164"
       y1="2.8324013"
       x2="12.407449"
       y2="9.1989975" />
    <linearGradient
       inkscape:collect="always"
       xlink:href="#linearGradient7262"
       id="linearGradient3365"
       gradientUnits="userSpaceOnUse"
       gradientTransform="matrix(0.8211366,0,0,0.8211366,14.142544,-19.950307)"
       x1="4.5967698"
       y1="5.5516224"
       x2="6.8072529"
       y2="0.5822717" />
    <linearGradient
       inkscape:collect="always"
       xlink:href="#linearGradient7262"
       id="linearGradient3368"
       gradientUnits="userSpaceOnUse"
       gradientTransform="matrix(0.8211366,0,0,0.8211366,17.798994,-19.950309)"
       x1="4.5967698"
       y1="5.5516224"
       x2="6.8072529"
       y2="0.5822717" />
    <linearGradient
       inkscape:collect="always"
       xlink:href="#linearGradient7262"
       id="linearGradient3378"
       gradientUnits="userSpaceOnUse"
       gradientTransform="matrix(0.8211366,0,0,0.8211366,17.798994,-19.950309)"
       x1="4.5967698"
       y1="5.5516224"
       x2="6.8072529"
       y2="0.5822717" />
    <linearGradient
       inkscape:collect="always"
       xlink:href="#linearGradient7262"
       id="linearGradient3380"
       gradientUnits="userSpaceOnUse"
       gradientTransform="matrix(0.8211366,0,0,0.8211366,14.142544,-19.950307)"
       x1="4.5967698"
       y1="5.5516224"
       x2="6.8072529"
       y2="0.5822717" />
    <linearGradient
       inkscape:collect="always"
       xlink:href="#linearGradient7262"
       id="linearGradient3390"
       gradientUnits="userSpaceOnUse"
       gradientTransform="matrix(0.8211366,0,0,0.8211366,17.798994,-19.950309)"
       x1="4.5967698"
       y1="5.5516224"
       x2="6.8072529"
       y2="0.5822717" />
    <linearGradient
       inkscape:collect="always"
       xlink:href="#linearGradient7262"
       id="linearGradient3392"
       gradientUnits="userSpaceOnUse"
       gradientTransform="matrix(0.8211366,0,0,0.8211366,14.142544,-19.950307)"
       x1="4.5967698"
       y1="5.5516224"
       x2="6.8072529"
       y2="0.5822717" />
    <linearGradient
       inkscape:collect="always"
       xlink:href="#linearGradient7278"
       id="linearGradient3394"
       gradientUnits="userSpaceOnUse"
       gradientTransform="matrix(0,0.6958568,-0.6958568,0,9.6769605,16.211643)"
       x1="2.8404164"
       y1="2.8324013"
       x2="12.407449"
       y2="9.1989975" />
    <radialGradient
       inkscape:collect="always"
       xlink:href="#linearGradient3240"
       id="radialGradient4759"
       gradientUnits="userSpaceOnUse"
       gradientTransform="translate(0,5.1869245e-5)"
       cx="-203.72662"
       cy="389.86661"
       fx="-203.72662"
       fy="389.86661"
       r="779.43323" />
  </defs>
  <sodipodi:namedview
     id="base"
     pagecolor="#ffffff"
     bordercolor="#666666"
     borderopacity="1.0"
     inkscape:pageopacity="0.0"
     inkscape:pageshadow="2"
     inkscape:zoom="22.197802"
     inkscape:cx="3.018039"
     inkscape:cy="7.2205596"
     inkscape:current-layer="g2368"
     showgrid="true"
     inkscape:grid-bbox="true"
     inkscape:document-units="px"
     inkscape:window-width="1399"
     inkscape:window-height="892"
     inkscape:window-x="480"
     inkscape:window-y="297"
     showguides="true"
     inkscape:guide-bbox="true"
     inkscape:window-maximized="0">
    <inkscape:grid
       type="xygrid"
       id="grid6875" />
  </sodipodi:namedview>
  <metadata
     id="metadata6811">
    <rdf:RDF>
      <cc:Work
         rdf:about="">
        <dc:format>image/svg+xml</dc:format>
        <dc:type
           rdf:resource="http://purl.org/dc/dcmitype/StillImage" />
      </cc:Work>
    </rdf:RDF>
  </metadata>
  <g
     id="layer1"
     inkscape:label="Layer 1"
     inkscape:groupmode="layer">
    <g
       id="g3068"
       style="opacity:0.34895833">
      <a
         style="fill:url(#radialGradient2857);fill-opacity:1"
         transform="matrix(1.0107939e-2,0,0,1.0107939e-2,5.5094359,1.8352673)"
         id="a7312">
        <path
           sodipodi:type="arc"
           style="opacity:1;fill:url(#radialGradient4759);fill-opacity:1;stroke:#000000;stroke-width:16.14737320000000054;stroke-miterlimit:4;stroke-dasharray:none;stroke-opacity:1"
           id="path1961"
           sodipodi:cx="48.57143"
           sodipodi:cy="558.07648"
           sodipodi:rx="771.42859"
           sodipodi:ry="785.71429"
           d="M 820.00002,558.07648 A 771.42859,785.71429 0 1 1 -722.85716,558.07648 A 771.42859,785.71429 0 1 1 820.00002,558.07648 z"
           transform="matrix(1.000006,0,0,0.981824,197.1427,64.42932)" />
      </a>
      <path
         id="path3740"
         d="M 6.111787,2.7780566 C 6.0437131,2.4777347 6.0742489,2.18268 6.3779191,2.0836319 C 6.6223201,2.0039167 6.8094463,2.1164877 7.0432514,2.0402307 C 7.3065187,1.9543618 7.5275483,1.8605714 7.7751163,1.7798217 C 8.0284815,1.6971809 8.1457801,2.1270332 8.4071786,2.1270332 C 8.6805826,2.1270332 8.8242067,1.9476105 9.0725108,1.8666241 C 9.2983588,1.7929612 9.5222685,2.1304679 9.5715098,2.3874421 C 9.6510068,2.8023017 9.7402184,2.9113605 9.9707084,3.2120721 C 10.170126,3.4722415 9.8241616,3.7598352 9.7711096,4.036702 C 9.7089196,4.3612439 9.6225055,4.8237078 9.3386428,4.731122 C 9.0502152,4.6370462 9.0147077,5.0897243 8.6733107,4.6443178 C 8.5642911,4.5020847 8.2885699,4.8613258 8.074516,4.8613258 C 7.8467524,4.8613258 7.6317728,4.570925 7.4424464,4.8179245 C 7.2687701,5.0445128 7.141872,5.1209653 6.8769182,4.94813 C 6.7248246,4.8489162 6.3756056,4.6978153 6.211586,4.6443178 C 5.9472538,4.5581054 5.7466813,4.5162685 5.6127877,4.1669059 C 5.495511,3.860891 5.7716471,3.5690358 5.9121875,3.3856789 C 6.0545314,3.1999668 6.0355151,3.0268257 6.111787,2.7780566 z"
         style="fill:url(#radialGradient3291);fill-opacity:1;fill-rule:evenodd;stroke:#000000;stroke-width:0.10639331000000000;stroke-linecap:butt;stroke-linejoin:miter;stroke-miterlimit:4;stroke-dasharray:none;stroke-opacity:1" />
      <path
         sodipodi:nodetypes="csssssssssssssssssssssssssssssssssssssssssssssscsccsssssssssssssssssssssssssssssssss"
         id="path3742"
         d="M 5.1917576,3.0865371 C 5.2990692,3.3011571 5.1400741,3.4989525 5.3072803,3.7218938 C 5.472814,3.9426096 5.5655298,4.1270467 5.855994,3.9818129 C 6.1465725,3.8365247 6.1349024,4.2516211 6.0003933,4.3861303 C 5.9448523,4.4416723 5.541129,4.3861303 5.4516767,4.3861303 C 5.1755123,4.3861303 5.0601856,4.3786578 4.9029619,4.58829 C 4.75685,4.7831052 4.5667034,4.8399307 4.6719235,5.0503678 C 4.746388,5.1992994 4.6705164,5.5152556 4.6141633,5.6279614 C 4.5198554,5.8165786 4.4894857,6.0139652 4.5852836,6.2055588 C 4.6766752,6.3883459 4.9896018,6.5369954 4.9896018,6.2344387 C 4.9896018,5.949398 5.156566,5.951952 5.3361569,5.7723609 C 5.4520418,5.6564788 5.3271208,5.3193189 5.4805595,5.1658865 C 5.6555951,4.9908488 5.7570564,5.4589657 5.7982346,5.5413219 C 5.9133818,5.7716159 5.9537814,5.8890211 6.1447927,6.0322797 C 6.2876065,6.1393919 6.342689,6.490094 6.4624723,6.609877 C 6.6437725,6.7911776 6.3099675,7.0754998 6.289192,7.1585944 C 6.2259487,7.4115726 6.0030609,7.3786121 5.7693549,7.3318736 C 5.4626614,7.2705321 5.4625816,7.2884573 5.2784008,7.5340326 C 5.1775438,7.6685049 5.4922326,7.9730671 5.1339982,7.7939481 C 4.9020711,7.6779862 4.788115,7.9380116 4.6141633,8.0249869 C 4.423704,8.1202168 4.1941346,7.8856727 4.1232057,8.1693862 C 4.0624432,8.4124374 4.0688979,8.6046562 3.7766478,8.4293051 C 3.5734114,8.3073639 3.4375455,8.616552 3.3434497,8.8047435 C 3.2219674,9.0477115 3.4054233,9.1925166 3.1412899,9.3245808 C 2.8231561,9.4836496 3.0835306,9.0967579 3.0835306,8.9780225 C 3.0835306,8.801747 2.8440648,8.5279702 2.7658522,8.3715454 C 2.6513,8.1424387 2.5480464,8.0860557 2.3037775,8.0249869 C 2.0193128,7.9538749 1.91087,8.1465691 1.8128201,8.3426656 C 1.7199909,8.5283261 1.8313173,8.7307445 1.7839406,8.9202629 C 1.7238359,9.1606733 1.9831033,9.2971977 2.1593782,9.2090615 C 2.3980297,9.0897342 2.5576901,9.3305837 2.3904176,9.4978605 C 2.2044475,9.6838267 2.1635653,9.695979 2.3615369,9.9599378 C 2.5940464,10.26995 2.5059333,10.030275 2.5059333,10.422012 C 2.5059333,10.537531 2.5059333,10.653052 2.5059333,10.768574 C 2.5059333,10.88129 2.4908946,11.001715 2.6539444,11.10069 C 2.8518364,11.220814 2.9476385,11.294288 3.1575361,11.252308 C 3.3369078,11.216434 3.4571361,11.287677 3.6033688,11.346168 C 3.8103324,11.428953 3.9178013,11.673451 4.0943261,11.779367 C 4.320104,11.914833 4.4972772,12.004083 4.7296829,12.097045 C 4.9073053,12.168094 5.1388463,12.267162 5.2495169,12.414722 C 5.3789343,12.587278 5.5544717,12.758957 5.7115946,12.876801 C 5.8958091,13.014958 6.1190591,13.053224 6.289192,13.223357 C 6.4477653,13.38193 6.6034526,13.392076 6.7801505,13.627674 C 6.9461459,13.849005 7.1775179,13.869678 7.3866276,13.974234 C 7.5687727,14.065306 7.7034381,13.684567 7.9353412,13.916473 C 8.0561823,14.037313 8.2508411,14.196555 8.2819004,14.320791 C 8.3399419,14.552951 8.034728,14.638469 7.8775819,14.638469 C 7.7544827,14.638469 7.8608372,14.663588 7.8198216,14.725109 C 7.6645979,14.725109 7.7329065,15.071778 7.5887864,15.129424 C 7.5196529,15.157079 7.4204519,15.17151 7.3577437,15.187185 L 7.2133486,15.187185 C 7.1748411,15.177559 7.1363364,15.167931 7.0978289,15.158308 C 6.973333,15.127182 6.6428805,15.356898 6.5202314,15.418226 C 6.3654726,15.495603 6.1000528,15.464059 5.9390253,15.544574 C 5.2719251,15.333661 4.5747982,15.024583 3.9751987,14.670957 C 3.9544528,14.656491 4.0405136,14.126523 3.9788064,14.003113 C 3.8828154,13.81113 3.7063968,13.617331 3.5167287,13.569915 C 3.2618087,13.506186 3.1070364,13.201854 3.0546509,12.992321 C 2.9976398,12.764268 2.9194199,12.563705 2.7369757,12.472483 C 2.4306147,12.319301 2.7094129,12.110826 2.8524954,12.039286 C 3.0568861,11.937088 3.1294877,11.661302 2.9968916,11.519447 C 2.7776113,11.284854 2.6880656,11.357815 2.5059333,11.266749 C 2.356479,11.192021 2.2326095,11.119257 2.1882579,10.941851 C 2.1396511,10.747423 2.035941,10.563616 1.9860993,10.364256 C 1.9362248,10.164761 1.8897452,9.9788384 1.8416999,9.7866586 C 1.8194175,9.6975357 1.5376969,9.3620676 1.4662611,9.2668212 C 1.3075955,8.6531473 1.15012,8.2278776 1.1503887,8.1062124 C 1.1512534,7.7152136 1.2852996,7.8598258 1.2803487,7.678432 C 1.2715855,7.3574378 1.2820612,7.2281933 1.3471337,7.0178033 C 1.38623,6.891399 1.4538901,6.8203036 1.4085018,6.6387568 C 1.3531067,6.4171761 1.3862929,6.2210962 1.4770895,6.0394996 C 1.587099,5.8194886 1.6287096,5.8124481 1.6287096,5.5431278 C 1.6287096,5.2385153 1.8898082,4.98299 2.1593782,4.848208 C 2.3965135,4.7296389 2.5721073,4.5263227 2.794735,4.41501 C 2.9911672,4.3167945 3.2927862,4.1986575 3.4012091,3.9818129 C 3.4988401,3.7865507 3.5942496,3.5957325 3.6900078,3.4042154 C 3.7230586,3.3381147 3.6733531,3.2717213 3.7044481,3.2110824 C 3.8571175,2.9133537 3.8312517,2.9454097 4.1520854,2.7399811 C 4.2951815,2.596886 4.5275242,2.3705731 4.5275242,2.1623848 C 4.5275242,1.9290735 4.4376952,1.790135 4.6141633,1.613667 C 4.7007235,1.5271067 5.0747478,1.5847873 5.1917576,1.5847873 C 5.4544029,1.5847873 5.5445919,1.6140133 5.7693549,1.7039146 C 6.0813102,1.8286961 5.7768537,2.0357545 5.6321785,2.1804328 C 5.2625668,2.4391746 5.1521858,2.5450787 5.1917576,3.0865371 z"
         style="fill:url(#radialGradient3252);fill-opacity:1;fill-rule:evenodd;stroke:#000000;stroke-width:0.08086351000000000;stroke-linecap:butt;stroke-linejoin:miter;stroke-miterlimit:4;stroke-dasharray:none;stroke-opacity:1" />
      <path
         sodipodi:nodetypes="cssssssssssssssssssssc"
         id="path5518"
         d="M 7.1851472,4.7944611 C 7.1514842,4.8634802 7.1178183,4.9324939 7.0841553,5.0015129 C 7.0100347,5.1534749 7.1440087,5.0367439 7.2140028,5.2650323 C 7.2627037,5.4238869 7.2032435,5.5148319 7.2284297,5.6791348 C 7.2555103,5.8557936 7.3523815,5.9952477 7.3727038,6.187353 C 7.3798207,6.2546415 7.2495622,6.4715886 7.2140028,6.526163 C 7.0837065,6.7261224 7.1583129,7.0326508 7.127438,7.2790731 C 7.0962537,7.4417983 7.2717121,7.6106318 7.2717121,7.7684669 C 7.2717121,7.894262 7.3947266,7.9378726 7.4736955,7.9378726 C 7.6262201,7.9378726 7.636674,7.9145066 7.6756758,7.7872899 C 7.7058566,7.6888622 7.7176822,7.4683027 7.7910985,7.4108328 C 7.8424951,7.3705992 8.0219344,7.2186422 8.0219344,7.1473131 C 8.0219344,7.0049361 8.1898828,6.8717333 8.2672003,6.7708605 C 8.3541638,6.6574028 8.473042,6.5707026 8.5701755,6.507341 C 8.712486,6.4145056 8.7577321,6.3569958 8.7577321,6.149706 C 8.7577321,6.0138194 8.605995,5.8219277 8.6278857,5.6791348 C 8.6512676,5.526619 8.6012339,5.274167 8.5413208,5.170918 C 8.4423496,5.0003558 8.4347136,4.9344062 8.4114746,4.7379936 C 8.3928235,4.5803618 8.3390585,4.5311236 8.2239179,4.6062325 C 8.0915259,4.6925964 8.0100648,4.7379936 7.8632325,4.7379936 C 7.776117,4.7379936 7.6835507,4.7191702 7.5891151,4.7191702 C 7.4380521,4.8142159 7.3503256,4.786801 7.1851472,4.7944611 z"
         style="fill:#299d3d;fill-opacity:1;fill-rule:evenodd;stroke:#000000;stroke-width:0.09228356000000000;stroke-linecap:butt;stroke-linejoin:miter;stroke-miterlimit:4;stroke-dasharray:none;stroke-opacity:1" />
      <path
         sodipodi:nodetypes="csssssssssssssssssssssssssccssssssssssssssssssssssssssssssscssssscscccssssssssssssssssssssssssssz"
         id="path5522"
         d="M 10.493687,3.6422615 C 10.320398,3.6005744 10.310245,3.6553671 10.183229,3.9094002 C 10.070952,4.3224642 10.238111,4.271639 10.284308,4.4653377 C 10.324977,4.63588 10.428704,4.8583512 10.428704,5.0284948 C 10.428704,5.2665576 10.470334,5.4901465 10.703062,5.5483323 C 10.981689,5.6179879 10.97542,5.6349687 11.244561,5.6349687 C 11.542541,5.6349687 11.398461,5.2785361 11.3312,5.1440146 C 11.225295,4.9322006 11.127434,4.7745887 10.926882,4.6241763 C 10.802562,4.5309357 10.887243,4.2272213 11.07128,4.5952967 C 11.200867,4.8544675 11.337272,4.9160119 11.562239,5.0284948 C 11.814818,5.1547832 11.725331,5.4429995 11.591118,5.5772122 C 11.431321,5.7370059 11.317302,5.822149 11.157921,5.9815271 C 11.059414,6.0800358 11.076861,6.4212831 11.0424,6.5591242 C 10.987305,6.779508 10.729065,6.881146 10.898001,7.0500819 C 11.058147,7.2102283 11.270673,7.1003226 11.129041,7.4544002 C 11.028852,7.7048742 10.889991,7.6770085 10.724722,7.8009586 C 10.519473,7.9548957 10.586978,8.1030632 10.695846,8.3207929 C 10.812031,8.5531719 10.757453,8.6384713 11.07128,8.6384713 C 11.370398,8.6384713 11.375922,8.7092676 11.591118,8.4940721 C 11.689175,8.3960187 11.559605,8.0497497 11.591118,7.923698 C 11.677057,7.5799431 11.813048,7.7926212 11.677758,7.4544002 C 11.613304,7.2932661 11.843548,7.042862 12.017097,7.042862 C 12.191593,7.042862 12.512022,7.3342781 12.724651,7.281121 C 13.035255,7.2034705 12.641747,6.9345626 12.486395,6.9345626 C 12.284272,6.9345626 11.955888,6.7928304 12.313116,6.7035237 C 12.547659,6.6448892 12.445083,6.6209646 12.739089,6.6963036 C 12.863203,6.7281068 12.871659,6.7895514 12.961312,6.8997497 C 13.029179,6.9831768 13.09062,6.9564587 13.237268,6.8984628 C 13.284552,6.6936299 13.089309,6.7342892 13.081667,6.6173264 C 13.072871,6.482771 13.200323,6.4308576 13.237268,6.3569652 C 13.324841,6.181817 13.059037,5.9978227 13.020668,5.8443476 C 12.972456,5.6515037 12.919702,5.1079142 13.143408,5.1079142 C 13.370907,5.1079142 13.721271,5.1739582 13.785984,5.4328131 C 13.842457,5.658697 13.525899,5.8231036 13.439426,6.0392867 C 13.357995,6.2428625 13.264807,6.4422646 13.410547,6.5880041 C 13.557979,6.7354365 13.641586,6.2953344 13.641586,6.6457639 C 13.641586,6.8785787 13.945519,6.3253051 13.959264,6.2703256 C 14.039106,5.9509576 14.190302,6.3992508 14.190302,6.5591242 C 14.190302,6.78863 14.125828,6.9820228 13.988144,7.1656016 C 13.837871,7.3659614 13.668493,7.3717048 13.554946,7.5987995 C 13.416935,7.874821 13.526556,7.916232 13.237268,8.0608774 C 13.05139,8.1538157 12.767664,8.0822313 12.659673,7.9742378 C 12.440121,7.7546856 12.409725,7.7957139 12.197595,8.0608774 C 12.040749,8.2569306 11.895618,8.3628555 11.735517,8.5229518 C 11.568913,8.6895565 11.319542,8.7195405 11.21568,8.92727 C 11.123846,9.1109419 10.99652,9.3502251 11.0424,9.5337475 C 11.102053,9.7723583 10.901038,9.9350256 10.753602,10.082464 C 10.608718,10.227349 10.538279,10.510561 10.493687,10.688942 C 10.422528,10.973564 10.494322,10.979011 10.609202,11.208777 C 10.659649,11.309666 10.484073,11.670775 10.464803,11.786373 C 10.448312,11.885328 10.836211,12.15375 10.898001,12.277332 C 10.979686,12.4407 11.288684,12.321456 11.41784,12.450611 C 11.528643,12.561414 11.85386,12.415388 11.966556,12.392851 C 12.197109,12.346738 12.322935,12.206056 12.544154,12.161811 C 12.674859,12.135668 12.825011,11.876983 13.006228,11.786373 C 13.211185,11.683897 13.375381,11.674001 13.554946,11.584214 C 13.70132,11.511027 13.408571,12.001985 13.554946,12.075172 C 13.758546,12.17697 13.885055,12.198729 13.814865,12.47949 C 13.770058,12.658713 13.687798,12.796713 13.627146,12.963224 C 13.491519,13.33556 13.592962,13.21401 13.583826,13.475842 C 14.211827,12.717154 14.294771,12.650421 14.796776,11.815253 C 15.287512,10.921218 15.575563,10.129077 15.692053,9.0427893 C 15.712156,8.855333 15.720932,8.6616943 15.720932,8.465192 C 15.720932,8.2788299 15.743643,7.957982 15.576533,7.887598 C 15.216396,7.735909 15.237647,7.6482351 14.88342,7.5410398 C 14.715012,7.4568345 14.434302,7.1825622 14.479102,6.9923223 C 14.649564,6.9650719 14.837126,7.1621496 15.001018,7.2674459 C 15.172784,7.377804 15.205166,7.6066712 15.475454,7.6854391 C 15.594491,7.584732 15.303698,6.3755822 15.388817,6.2053459 C 15.323625,5.7393638 14.794402,4.7390381 14.90508,4.4942174 C 14.36339,3.5784956 14.234926,3.3302131 13.547727,2.5592694 C 12.95199,1.8909352 12.22398,1.4041543 11.41784,0.99975719 C 10.44703,0.56487586 9.5533257,0.31917788 8.4720963,0.33552284 C 8.220016,0.31054787 8.2409708,0.55212194 7.9522591,0.55212194 C 7.7310837,0.55212194 7.6037849,0.43708175 7.3746648,0.49436262 C 7.3155981,0.50912821 7.259145,0.53286702 7.2013858,0.55212194 C 6.9855885,0.62405297 6.8850107,0.93892426 6.6815487,0.66763847 C 6.6510257,0.62694288 7.3851177,0.49958737 6.9703464,0.29220387 C 6.7526874,0.1833718 6.4816872,0.54555705 6.5949086,0.69651809 C 6.6598583,0.78312138 6.471398,0.95643717 6.2194699,0.95643717 C 6.0012318,0.95643717 5.7869539,0.93028062 5.8440323,1.1585959 C 5.9015628,1.388717 6.086791,1.1209267 5.7285125,1.3896351 C 5.5119901,1.5520291 6.0665645,1.4582765 6.1328308,1.4185149 C 6.331618,1.2992437 6.4745671,1.2741155 6.7104284,1.2741155 C 6.8852668,1.2741155 7.0788962,1.1368866 7.259145,1.1008365 C 7.5120901,1.0502496 7.7016218,1.1487957 7.8944988,1.2452358 C 7.9798324,1.2879 8.3632086,1.1697232 8.4432167,1.1297162 C 8.7630137,0.96981972 8.601368,1.186103 8.6742561,1.3318748 C 8.7221387,1.4276402 9.0319184,1.4118472 9.1363338,1.6206736 C 9.2654113,1.8788339 9.162696,1.9659756 9.4540121,2.1116321 C 9.4714051,2.1203282 9.7476783,2.0142035 10.031609,2.2271507 C 10.21989,2.368361 10.385326,2.2944624 10.551443,2.5159494 C 10.588428,2.5652624 10.646513,2.602197 10.666963,2.6603487 C 10.741717,2.8729172 10.622437,2.7446078 10.768042,2.9419279 C 10.797188,2.981423 10.87153,2.9298926 10.912441,3.1440865 C 10.993185,3.5667962 11.310558,3.6950793 11.194022,3.8660803 C 11.091401,4.0166582 11.079255,3.8964698 10.710282,3.7000208 C 10.691309,3.6952788 10.659324,3.6711412 10.652523,3.6711412 C 10.605794,3.6711412 10.571008,3.6422615 10.529783,3.6422615 C 10.517751,3.6422615 10.50572,3.6422615 10.493687,3.6422615 z"
         style="fill:#2d913e;fill-opacity:1;fill-rule:evenodd;stroke:#000000;stroke-width:0.08086351000000000;stroke-linecap:butt;stroke-linejoin:miter;stroke-miterlimit:4;stroke-dasharray:none;stroke-opacity:1" />
      <path
         sodipodi:nodetypes="czczc"
         id="path3260"
         d="M 8.9965169,15.758529 C 9.7103995,15.76874 13.831873,14.908162 15.452152,10.30335 C 17.052528,5.7550961 13.491781,2.2910673 12.884559,2.0549253 C 12.563583,2.5922987 14.250579,4.567302 12.574771,9.4121793 C 10.918601,14.200284 9.8728965,14.7385 8.9965169,15.758529 z"
         style="fill:url(#linearGradient3276);fill-opacity:1;fill-rule:evenodd;stroke:none;stroke-width:1px;stroke-linecap:butt;stroke-linejoin:miter;stroke-opacity:1" />
    </g>
    <g
       id="g3382"
       transform="matrix(0.9984446,0,0,0.9984446,2.1926489,-10.160549)">
      <g
         transform="translate(-9.4927336,0.7008058)"
         id="g3370">
        <rect
           style="fill:url(#linearGradient3390);fill-opacity:1;fill-rule:evenodd;stroke:#000000;stroke-width:0.5;stroke-miterlimit:4;stroke-dasharray:none;stroke-dashoffset:0;stroke-opacity:1"
           id="rect3342"
           width="1.7263724"
           height="6.2777166"
           x="21.984138"
           y="-19.733755"
           ry="0.86318618"
           transform="matrix(0,1,-1,0,0,0)" />
        <rect
           style="fill:url(#linearGradient3392);fill-opacity:1;fill-rule:evenodd;stroke:#000000;stroke-width:0.5;stroke-miterlimit:4;stroke-dasharray:none;stroke-dashoffset:0;stroke-opacity:1"
           id="rect6879"
           width="1.7263724"
           height="6.2777166"
           x="18.327688"
           y="-19.733755"
           ry="0.86318618"
           transform="matrix(0,1,-1,0,0,0)" />
      </g>
      <path
         sodipodi:nodetypes="czcczcc"
         id="path6877"
         d="M -1.8481363,20.977845 C -1.8481363,20.977845 1.1328627,21.427246 2.1783152,20.727061 C 3.2447045,20.012853 3.1903628,16.928192 6.2235129,18.093829 C 6.1976766,21.448065 6.1975434,20.387118 6.1661953,25.496843 C 3.2289349,26.724253 3.5575733,24.472567 2.2334048,23.419456 C 0.9092366,22.366345 -1.8427588,23.005248 -1.8427588,23.005248 L -1.8481363,20.977845 z "
         style="fill:#e56e03;fill-opacity:1;fill-rule:evenodd;stroke:#000000;stroke-width:0.69585681px;stroke-linecap:butt;stroke-linejoin:miter;stroke-opacity:1" />
      <path
         sodipodi:nodetypes="cczczc"
         id="path7276"
         d="M 5.8027434,24.845451 C 5.8581594,22.573396 5.8803258,20.079678 5.8581594,18.306367 C 5.1931679,18.140119 4.8086301,18.161191 4.3951779,18.295284 C 3.9850998,18.428282 3.5196056,19.226272 3.2757754,19.780432 C 3.8631845,19.536601 4.5281762,18.395032 5.1155855,19.547685 C 5.7029947,20.700336 5.1377518,22.79506 5.8027434,24.845451 z "
         style="fill:url(#linearGradient3394);fill-opacity:1;fill-rule:evenodd;stroke:none;stroke-width:1px;stroke-linecap:butt;stroke-linejoin:miter;stroke-opacity:1" />
      <path
         sodipodi:nodetypes="ccccccc"
         id="path7286"
         d="M -1.4998517,22.579207 C -1.4890387,22.317339 -1.5018126,22.257659 -1.4998517,22.014942 C -0.3556495,21.920898 1.5640218,21.531901 3.076957,22.20303 C 4.589892,22.87416 4.6625573,24.692181 4.8976673,25.507229 C 4.5657685,25.499967 4.414904,25.541708 4.0618452,25.278103 C 3.3951712,24.684421 3.5551296,24.267619 2.4410262,23.117712 C 1.0838806,22.26371 -0.3880158,22.448456 -1.4998517,22.579207 z "
         style="fill:#3c3c3c;fill-opacity:0.45454544;fill-rule:evenodd;stroke:none;stroke-width:1px;stroke-linecap:butt;stroke-linejoin:miter;stroke-opacity:1" />
    </g>
    <g
       id="g2368"
       transform="translate(-0.2327981,0.2251646)">
      <text
         transform="scale(0.87549084,1.1422164)"
         id="text2482"
         y="6.244647"
         x="2.5180614"
         style="font-style:normal;font-variant:normal;font-weight:bold;font-stretch:normal;line-height:0%;font-family:'Microsoft Sans Serif', 'Bitstream Vera Sans', Helvetica, Arial;text-align:start;writing-mode:lr-tb;text-anchor:start;fill:#000000;fill-opacity:1;stroke:none;stroke-width:1px;stroke-linecap:butt;stroke-linejoin:miter;stroke-opacity:1"
         xml:space="preserve"><tspan
           y="6.244647"
           x="2.5180614"
           id="tspan2484"
           sodipodi:role="line"
           style="font-style:normal;font-variant:normal;font-weight:bold;font-stretch:normal;font-size:7.75226688px;line-height:1.25;font-family:'Noto Sans';-inkscape-font-specification:'Noto Sans, Bold';font-variant-ligatures:normal;font-variant-caps:normal;font-variant-numeric:normal;font-feature-settings:normal;text-align:start;writing-mode:lr-tb;text-anchor:start">USF</tspan></text>
      <text
         transform="scale(0.87549084,1.1422164)"
         id="text2478"
         y="5.7536659"
         x="2.1576259"
         style="font-style:normal;font-variant:normal;font-weight:bold;font-stretch:normal;line-height:0%;font-family:'Microsoft Sans Serif', 'Bitstream Vera Sans', Helvetica, Arial;text-align:start;writing-mode:lr-tb;text-anchor:start;fill:#834f2a;fill-opacity:1;stroke:none;stroke-width:1px;stroke-linecap:butt;stroke-linejoin:miter;stroke-opacity:1"
         xml:space="preserve"><tspan
           y="5.7536659"
           x="2.1576259"
           id="tspan2480"
           sodipodi:role="line"
           style="font-style:normal;font-variant:normal;font-weight:bold;font-stretch:normal;font-size:7.75226688px;line-height:1.25;font-family:'Noto Sans';-inkscape-font-specification:'Noto Sans, Bold';font-variant-ligatures:normal;font-variant-caps:normal;font-variant-numeric:normal;font-feature-settings:normal;text-align:start;writing-mode:lr-tb;text-anchor:start">USF</tspan></text>
    </g>
  </g>
</svg>
