<?xml version="1.0" encoding="UTF-8" standalone="no"?>
<!-- Created with Inkscape (http://www.inkscape.org/) -->

<svg
   xmlns:osb="http://www.openswatchbook.org/uri/2009/osb"
   xmlns:dc="http://purl.org/dc/elements/1.1/"
   xmlns:cc="http://creativecommons.org/ns#"
   xmlns:rdf="http://www.w3.org/1999/02/22-rdf-syntax-ns#"
   xmlns:svg="http://www.w3.org/2000/svg"
   xmlns="http://www.w3.org/2000/svg"
   xmlns:xlink="http://www.w3.org/1999/xlink"
   xmlns:sodipodi="http://sodipodi.sourceforge.net/DTD/sodipodi-0.dtd"
   xmlns:inkscape="http://www.inkscape.org/namespaces/inkscape"
   width="128px"
   height="128px"
   viewBox="0 0 128 128"
   version="1.1"
   id="SVGRoot"
   inkscape:version="0.92.2 5c3e80d, 2017-08-06"
   sodipodi:docname="curlew-128-filled.svg">
  <sodipodi:namedview
     id="base"
     pagecolor="#ffffff"
     bordercolor="#666666"
     borderopacity="1.0"
     inkscape:pageopacity="0.0"
     inkscape:pageshadow="2"
     inkscape:zoom="2"
     inkscape:cx="53.625772"
     inkscape:cy="99.961882"
     inkscape:document-units="px"
     inkscape:current-layer="layer1"
     showgrid="false"
     inkscape:window-width="1241"
     inkscape:window-height="733"
     inkscape:window-x="0"
     inkscape:window-y="1"
     inkscape:window-maximized="0"
     inkscape:grid-bbox="true" />
  <defs
     id="defs815">
    <linearGradient
       inkscape:collect="always"
       id="linearGradient1347">
      <stop
         style="stop-color:#000000;stop-opacity:1;"
         offset="0"
         id="stop1343" />
      <stop
         style="stop-color:#000000;stop-opacity:0;"
         offset="1"
         id="stop1345" />
    </linearGradient>
    <linearGradient
       osb:paint="gradient"
       id="linearGradient1314">
      <stop
         id="stop1326"
         offset="0"
         style="stop-color:#ffffff;stop-opacity:0" />
      <stop
         id="stop1328"
         offset="1"
         style="stop-color:#ece2c2;stop-opacity:1" />
    </linearGradient>
    <linearGradient
       inkscape:collect="always"
       id="linearGradient1314-0"
       osb:paint="gradient">
      <stop
         style="stop-color:#d1b166;stop-opacity:0.27843139"
         offset="0"
         id="stop1310" />
      <stop
         style="stop-color:#7b2525;stop-opacity:0;"
         offset="1"
         id="stop1312" />
    </linearGradient>
    <radialGradient
       inkscape:collect="always"
       xlink:href="#linearGradient1314"
       id="radialGradient1333"
       cx="47.149693"
       cy="31.870602"
       fx="47.149693"
       fy="31.870602"
       r="38.753536"
       gradientTransform="matrix(0.9999999,0,0,0.72425611,4.2931517e-6,8.9758293)"
       gradientUnits="userSpaceOnUse" />
    <radialGradient
       inkscape:collect="always"
       xlink:href="#linearGradient1347"
       id="radialGradient1349"
       cx="44.274557"
       cy="38.667805"
       fx="44.274557"
       fy="38.667805"
       r="38.254623"
       gradientTransform="matrix(1,0,0,0.89643978,0,4.0044464)"
       gradientUnits="userSpaceOnUse" />
  </defs>
  <metadata
     id="metadata818">
    <rdf:RDF>
      <cc:Work
         rdf:about="">
        <dc:format>image/svg+xml</dc:format>
        <dc:type
           rdf:resource="http://purl.org/dc/dcmitype/StillImage" />
        <dc:title></dc:title>
      </cc:Work>
    </rdf:RDF>
  </metadata>
  <g
     id="layer1"
     inkscape:groupmode="layer"
     inkscape:label="Layer 1">
    <path
       style="fill:url(#radialGradient1333);fill-rule:evenodd;stroke:url(#radialGradient1349);stroke-width:1px;stroke-linecap:butt;stroke-linejoin:miter;stroke-opacity:1;fill-opacity:1"
       d="m 50.639555,66.808497 c 3.628491,-1.555406 8.712105,-3.593581 9.632603,-4.746438 L 71.5,48 c 0,0 0.771771,-7.590654 1.330448,-16.934898 0.596865,-9.982979 7.940988,-10.216446 9.334515,-14.085568 C 83.558489,13.110412 81.118375,7.782886 71.971899,4.75418 62.825422,1.7254732 53.091109,17.797707 52.029321,18.782706 c -1.061788,0.984999 -9.913204,-1.807832 -20.913204,4.192168 -11,6 -17.654867,8.364822 -19.880012,16.089055 -1.5321305,5.318547 -11.68088865,18.920743 1.317889,22.91685 7.944415,2.442286 11.648769,5.912586 18.495172,9.026978 11.137597,5.066433 12.016632,-0.952659 19.590389,-4.19926 z"
       id="path1308"
       inkscape:connector-curvature="0"
       sodipodi:nodetypes="sscsssssssss" />
    <g
       transform="matrix(0.04680614,0,0,0.04301419,-26.706971,-73.316228)"
       id="g4699"
       inkscape:export-xdpi="96"
       inkscape:export-ydpi="96">
      <path
         style="fill:#b3b3b3;stroke:none;stroke-width:1px;stroke-linecap:butt;stroke-linejoin:miter;stroke-opacity:1"
         d="m 1659.4939,2164.0285 c 0,0 -212.1733,-23.1462 -317.2561,3.0506 -127.3141,31.739 -250.6579,94.9706 -349.2869,181.5071 -293.89141,257.8586 -406.71893,884.5086 -413.03931,878.5557 47.44741,-11.5167 66.06947,8.0431 72.90406,53.3844 0,0 154.788,-295.9324 269.97282,-413.3482 154.92823,-157.929 529.32323,-345.2807 529.32323,-345.2807 l 50.2794,-121.452 -112.8699,44.2329 c -295.0107,251.7926 -471.05237,218.3491 -661.96731,546.0467 5.14012,-49.3671 59.34621,-413.1349 414.87341,-660.442 149.6535,-104.1 465.2075,-99.1426 465.2075,-99.1426 z"
         id="path4623"
         inkscape:connector-curvature="0"
         sodipodi:nodetypes="cssccsccccscc" />
      <path
         style="fill:#000000;stroke:none;stroke-width:1px;stroke-linecap:butt;stroke-linejoin:miter;stroke-opacity:1"
         d="m 598.85208,3155.2452 c 119.10978,-430.6964 175.84234,-727.7963 577.55032,-948.9194 150.8197,-83.0198 327.3593,-75.7653 505.7763,-65.1967 -7.6082,13.407 -27.7081,24.8215 -24.552,38.304 -106.7831,-2.0979 -320.9494,0.1831 -447.2548,58.079 -362.96668,166.3767 -480.08607,458.2313 -587.31046,901.5176 z"
         id="path4568"
         inkscape:connector-curvature="0"
         sodipodi:nodetypes="csccscc" />
      <path
         style="fill:#000000;stroke:none;stroke-width:1px;stroke-linecap:butt;stroke-linejoin:miter;stroke-opacity:1"
         d="m 704.7557,3200.953 6.1109,-1.2962 c 0,0 119.32704,-244.229 268.24359,-364.4757 153.23941,-123.7375 160.76541,-108.2368 362.95111,-228.4076 70.2796,-41.7713 91.9985,-56.3795 135.98,-103.1794 l -15.5583,-10.7305 12.9652,-20.7445 c -57.453,48.506 -63.0912,63.3313 -142.618,105.0187 -60.7828,31.862 -313.7614,182.7376 -379.88248,241.1541 -117.94476,104.2016 -261.89856,392.8479 -261.89856,392.8479 z"
         id="path4570"
         inkscape:connector-curvature="0"
         sodipodi:nodetypes="ccsscccsscc" />
      <path
         style="fill:#000000;stroke:none;stroke-width:1px;stroke-linecap:butt;stroke-linejoin:miter;stroke-opacity:1"
         d="m 819.91554,3141.2943 4.61528,17.8602 c 0,0 162.31851,24.5308 224.29928,73.778 21.0225,16.7036 40.6202,45.8172 40.6202,45.8172 l 2.7814,-16.617 c -2.0284,-12.5569 4.7026,-5.9912 16.4716,-24.7931 -90.405,-69.5704 -186.94619,-72.6607 -288.78776,-96.0453 z"
         id="path4572"
         inkscape:connector-curvature="0"
         sodipodi:nodetypes="ccscccc" />
      <path
         style="fill:#b3b3b3;stroke:none;stroke-width:1px;stroke-linecap:butt;stroke-linejoin:miter;stroke-opacity:1"
         d="m 1614.1768,2275.0469 c -4.0805,12.244 -6.8696,23.8424 -18.7442,39.9834 37.7527,-4.9218 39.0947,5.761 50.3339,12.2021 67.3384,-89.7644 170.8171,-258.0473 205.9116,-271.498 116.6831,-44.7213 181.9463,104.9076 290.6601,71.1545 18.6403,-16.4961 33.6835,-29.0134 40.6494,-49.401 0,0 -23.5756,34.6071 -126.9234,-3.4503 -52.967,-19.5049 -67.1207,-67.4392 -118.9711,-79.3141 -34.7091,-7.9492 -43.0188,2.1177 -43.0188,2.1177 0,0 29.0456,-36.5055 52.1258,-48.5718 32.3858,-16.9314 84.5025,-25.1907 122.0663,-23.7083 84.7789,3.3457 174.0649,91.3781 131.1732,123.5469 30.2352,-6.7937 86.3199,28.3012 108.2942,45.7581 -21.9661,-46.9498 -26.4261,-81.0851 -54.3298,-110.2505 -48.5426,-50.7375 -115.3313,-78.9052 -140.9047,-86.5094 -66.9851,-19.9179 -131.5708,-26.7246 -184.5578,-4.5758 -8.6424,-1.4404 83.4783,-44.8281 120.4964,-48.8086 86.8752,-9.3415 217.1934,35.6438 268.0357,159.8635 13.1056,-10.6566 25.3317,5.1549 39.3169,5.6735 -84.031,-161.8282 -147.8539,-208.6436 -275.3219,-217.3962 -99.2881,-6.8176 -200.6354,9.3617 -288.2761,155.5775 -68.4014,114.1177 -87.6747,249.407 -178.0157,327.6068 z"
         id="path4644"
         inkscape:connector-curvature="0"
         sodipodi:nodetypes="cccsccsscssccsscsccssc" />
      <path
         style="fill:#000000;stroke:none;stroke-width:1px;stroke-linecap:butt;stroke-linejoin:miter;stroke-opacity:1"
         d="m 1614.1768,2275.0469 37.5992,-7.7792 c 0,0 97.0295,-147.0549 125.568,-229.5829 42.2467,-111.3493 117.7662,-207.6429 215.2528,-222.1418 247.4673,-36.805 343.7458,184.6401 343.7458,184.6401 l 19.4479,9.0757 c 0,0 -51.6462,-122.1868 -121.8736,-171.1417 -89.9524,-62.7049 -171.658,-83.7211 -275.9307,-49.8014 -70.5208,22.9402 -138.9285,89.5385 -173.3998,152.6924 -41.9183,76.7974 -52.8904,155.0285 -91.3215,226.427 -21.099,39.1985 -79.0881,107.6118 -79.0881,107.6118 z"
         id="path4574"
         inkscape:connector-curvature="0"
         sodipodi:nodetypes="cccsccssssc" />
      <path
         style="fill:#000000;stroke:none;stroke-width:1px;stroke-linecap:butt;stroke-linejoin:miter;stroke-opacity:1"
         d="m 2123.3534,1962.9422 c -43.9636,-7.1375 -71.7743,24.5267 -80.4124,59.9264 35.5863,-9.1399 83.7585,22.6122 111.9604,51.9944 l 5.802,-4.0188 -4.0842,-18.6166 c 7.4133,-6.019 7.5829,-6.7756 13.407,-15.3811 3.4096,6.4831 2.9442,2.29 4.8018,7.0721 7.8117,-52.7424 -21.9653,-76.3156 -51.4746,-80.9764 z m 0.9325,30.8462 c 10.1929,2.5812 15.0384,6.9295 24.2332,16.4078 -1.4162,8.8586 -5.0249,15.5987 -7.7625,25.4447 -9.6243,-8.8482 -17.2272,-11.9841 -26.4095,-16.4818 7.7467,-7.2726 10.4214,-15.1209 9.9388,-25.3707 z"
         id="path4576"
         inkscape:connector-curvature="0"
         sodipodi:nodetypes="ccccccccccccc" />
      <path
         style="fill:#000000;stroke:none;stroke-width:1px;stroke-linecap:butt;stroke-linejoin:miter;stroke-opacity:1"
         d="m 1263.483,3380.6047 c 17.928,11.0359 40.7121,24.4408 62.6538,18.4632 -11.2819,116.9433 16.2726,261.2788 7.0107,313.8737 l -15.0382,-4.8164 c -6.6713,-143.6916 -30.2946,-197.4756 -54.6263,-327.5205 z"
         id="path4584"
         inkscape:connector-curvature="0"
         sodipodi:nodetypes="ccccc" />
      <path
         style="fill:#000000;stroke:none;stroke-width:1px;stroke-linecap:butt;stroke-linejoin:miter;stroke-opacity:1"
         d="m 1332.178,3791.23 -9.633,-12.0412 -11.2384,55.3895 c 0,0 -28.012,66.8191 -27.6654,88.2246 2.8426,175.5652 11.203,256.3954 41.4756,535.7322 l 23.1161,-1.0257 c -21.9373,-161.5855 -30.9005,-265.296 -16.0549,-666.2794 z"
         id="path4586"
         inkscape:connector-curvature="0"
         sodipodi:nodetypes="cccsccc" />
      <path
         style="fill:#000000;stroke:none;stroke-width:1px;stroke-linecap:butt;stroke-linejoin:miter;stroke-opacity:1"
         d="m 1473.8421,3777.1613 -39.8507,29.9776 c -13.8024,161.4512 91.9168,431.9706 128.0239,619.7357 l 27.3755,-3.6845 c -38.3311,-175.4721 -107.7951,-397.6466 -117.1969,-540.109 -2.3208,-35.1656 14.1501,-115.2959 14.1501,-115.2959 z"
         id="path4588"
         inkscape:connector-curvature="0"
         sodipodi:nodetypes="ccccscc" />
      <path
         style="fill:#b3b3b3;stroke:none;stroke-width:1px;stroke-linecap:butt;stroke-linejoin:miter;stroke-opacity:1"
         d="m 1549.2525,3351.1897 c -11.1205,14.0515 -37.118,36.5985 -51.9383,32.1512 8.0316,119.2897 -1.7485,228.1411 -39.4762,329.9504 l 32.9582,-16.64 c -6.2203,-99.6863 50.063,-216.8152 58.4563,-345.4616 z"
         id="path4625-3"
         inkscape:connector-curvature="0"
         sodipodi:nodetypes="ccccc" />
      <path
         style="fill:#000000;stroke:none;stroke-width:1px;stroke-linecap:butt;stroke-linejoin:miter;stroke-opacity:1"
         d="m 1567.3675,3345.0485 c 20.8357,-4.4482 48.3346,-16.5069 69.1703,-29.1237 -65.4216,190.0628 -98.3402,258.2393 -145.7416,380.7265 l -28.1283,14.0641 c 60.5044,-171.0496 134.1227,-348.9881 104.6996,-365.6669 z"
         id="path4590"
         inkscape:connector-curvature="0"
         sodipodi:nodetypes="ccccc" />
      <path
         style="fill:#b3b3b3;stroke:none;stroke-width:1px;stroke-linecap:butt;stroke-linejoin:miter;stroke-opacity:1"
         d="m 2085.0443,2496.5374 c -24.041,388.8387 -76.6404,575.5161 -549.0972,776.3626 9.9381,6.8876 18.5231,12.422 24.4043,15.2527 -11.6358,20.4733 -45.0053,27.9065 -76.2635,36.6064 73.213,-3.5793 219.6389,-28.9801 219.6389,-28.9801 16.8116,13.1528 398.2916,-259.2412 413.3482,-443.8536 11.2134,-137.4906 -20.4123,-214.0084 -32.0307,-355.388 z"
         id="path4642"
         inkscape:connector-curvature="0"
         sodipodi:nodetypes="cccccsc" />
      <path
         style="fill:#000000;stroke:none;stroke-width:1px;stroke-linecap:butt;stroke-linejoin:miter;stroke-opacity:1"
         d="m 2181.5004,2279.3011 h -20.3148 c -47.8263,89.3277 -100.2583,221.4723 -66.2684,334.5191 117.4919,390.7652 -343.6729,631.9219 -343.6729,631.9219 l 26.9226,9.0742 c 339.333,-216.3572 369.3752,-404.1624 370.4105,-562.526 0.6661,-101.8721 -77.5212,-275.8646 32.923,-412.9892 z"
         id="path4592"
         inkscape:connector-curvature="0"
         sodipodi:nodetypes="ccsccsc" />
      <path
         style="fill:#b3b3b3;stroke:none;stroke-width:1px;stroke-linecap:butt;stroke-linejoin:miter;stroke-opacity:1"
         d="m 2326.0182,2099.2087 -36.6929,31.6378 c 431.4468,271.8719 742.7468,546.9567 915.7173,1023.0165 -119.9714,-480.2618 -466.257,-802.781 -879.0244,-1054.6543 z"
         id="path4646"
         inkscape:connector-curvature="0"
         sodipodi:nodetypes="cccc" />
      <path
         style="fill:#000000;stroke:none;stroke-width:0.97253668px;stroke-linecap:butt;stroke-linejoin:miter;stroke-opacity:1"
         d="m 2344.7953,2040.6615 c -5.3733,25.9538 23.0023,41.3609 -18.7771,58.5472 747.6524,518.7187 776.2271,840.8958 879.0244,1054.6543 l 16.1268,-12.0365 c -252.6938,-585.856 -257.7144,-548.0361 -876.3741,-1101.165 z"
         id="path4594"
         inkscape:connector-curvature="0"
         sodipodi:nodetypes="ccccc" />
      <path
         style="fill:#000000;stroke:none;stroke-width:1px;stroke-linecap:butt;stroke-linejoin:miter;stroke-opacity:1"
         d="m 2289.3253,2130.8465 -18.7522,18.7522 c 125.1905,32.4791 241.0402,133.392 371.1298,223.4691 -65.3493,-53.7757 -163.4587,-170.9661 -352.3776,-242.2213 z"
         id="path4596"
         inkscape:connector-curvature="0"
         sodipodi:nodetypes="cccc" />
      <path
         style="fill:#000000;stroke:none;stroke-width:1px;stroke-linecap:butt;stroke-linejoin:miter;stroke-opacity:1"
         d="m 1187.7769,4509.291 -15.5092,33.2266 c 51.6984,-22.4332 117.2826,-64.8308 167.5816,-54.2774 15.4335,12.8118 19.3181,31.7218 45.0816,58.2761 l 16.4932,-6.5973 c -21.5014,-21.1756 -38.6392,-42.706 -42.8825,-53.8779 44.5183,21.8553 92.1322,13.5251 118.7515,38.4842 l 26.5282,-3.3745 c -12.056,-27.6578 -93.3775,-28.9091 -148.9911,-54.845 l -32.8099,-0.9585 c -43.8984,5.723 -92.5698,26.1231 -134.2434,43.9437 z"
         id="path4617"
         inkscape:connector-curvature="0"
         sodipodi:nodetypes="ccccccccccc" />
      <path
         style="fill:#000000;stroke:none;stroke-width:0.93522984px;stroke-linecap:butt;stroke-linejoin:miter;stroke-opacity:1"
         d="m 1505.9791,4465.7477 c 31.6224,-1.7805 47.5729,-6.8295 81.7467,-26.1113 0,0 4.0003,23.4536 10.8559,26.8064 46.5266,22.7545 107.5667,31.884 142.1574,31.8122 l -27.3979,19.5586 c -47.3805,-20.464 -116.5795,-20.9108 -135.9175,-51.3708 l -83.6703,20.8914 z"
         id="path4619"
         inkscape:connector-curvature="0"
         sodipodi:nodetypes="ccsccccc" />
      <path
         style="fill:#000000;stroke:none;stroke-width:1px;stroke-linecap:butt;stroke-linejoin:miter;stroke-opacity:1"
         d="m 1587.7258,4439.6364 c 3.3071,9.4488 -0.156,8.22 4.6146,22.8807 47.9304,12.7935 171.2397,11.2146 199.0186,21.9911 l -10.5152,-18.6293 c -70.4506,-9.8165 -150.7893,-0.355 -193.118,-26.2425 z"
         id="path4621"
         inkscape:connector-curvature="0"
         sodipodi:nodetypes="ccccc" />
      <path
         style="fill:#b3b3b3;stroke:none;stroke-width:1px;stroke-linecap:butt;stroke-linejoin:miter;stroke-opacity:1"
         d="m 1233.9436,3355.2645 c -11.1205,14.0515 -20.2609,38.0033 -35.0812,33.556 38.537,94.8854 68.627,186.8519 74.7382,302.0035 l 24.6802,14.2507 c -6.2203,-99.6863 -21.7184,-209.6812 -64.3372,-349.8102 z"
         id="path4625"
         inkscape:connector-curvature="0"
         sodipodi:nodetypes="ccccc" />
    </g>
  </g>
</svg>
