<?xml version="1.0" encoding="UTF-8" standalone="no"?>
<!-- Generator: Adobe Illustrator 12.0.0, SVG Export Plug-In . SVG Version: 6.00 Build 51448)  -->
<svg height="129.182" id="Layer_1" inkscape:version="0.42" sodipodi:docbase="F:\openclip\svg da inviare" sodipodi:docname="chiave.svg" sodipodi:version="0.32" space="preserve" style="overflow: visible;" version="1.1" viewBox="0 0 134.148 129.182" width="134.148" xmlns="http://www.w3.org/2000/svg" xmlns:cc="http://web.resource.org/cc/" xmlns:dc="http://purl.org/dc/elements/1.1/" xmlns:inkscape="http://www.inkscape.org/namespaces/inkscape" xmlns:rdf="http://www.w3.org/1999/02/22-rdf-syntax-ns#" xmlns:sodipodi="http://inkscape.sourceforge.net/DTD/sodipodi-0.dtd" xmlns:svg="http://www.w3.org/2000/svg">
  <metadata>
    <rdf:RDF xmlns:cc="http://web.resource.org/cc/" xmlns:dc="http://purl.org/dc/elements/1.1/" xmlns:rdf="http://www.w3.org/1999/02/22-rdf-syntax-ns#">
      <cc:Work rdf:about="">
        <dc:title>Chiave</dc:title>
        <dc:description/>
        <dc:subject>
          <rdf:Bag>
            <rdf:li>unsorted</rdf:li>
          </rdf:Bag>
        </dc:subject>
        <dc:publisher>
          <cc:Agent rdf:about="http://www.openclipart.org/">
            <dc:title>Open Clip Art Library</dc:title>
          </cc:Agent>
        </dc:publisher>
        <dc:creator>
          <cc:Agent>
            <dc:title>Architetto Francesco Rollandin</dc:title>
          </cc:Agent>
        </dc:creator>
        <dc:rights>
          <cc:Agent>
            <dc:title>Architetto Francesco Rollandin</dc:title>
          </cc:Agent>
        </dc:rights>
        <dc:date/>
        <dc:format>image/svg+xml</dc:format>
        <dc:type rdf:resource="http://purl.org/dc/dcmitype/StillImage"/>
        <cc:license rdf:resource="http://web.resource.org/cc/PublicDomain"/>
        <dc:language>en</dc:language>
      </cc:Work>
      <cc:License rdf:about="http://web.resource.org/cc/PublicDomain">
        <cc:permits rdf:resource="http://web.resource.org/cc/Reproduction"/>
        <cc:permits rdf:resource="http://web.resource.org/cc/Distribution"/>
        <cc:permits rdf:resource="http://web.resource.org/cc/DerivativeWorks"/>
      </cc:License>
    </rdf:RDF>
  </metadata>
  <defs id="defs57"/>
  <sodipodi:namedview bordercolor="#666666" borderopacity="1.0" id="base" inkscape:pageopacity="0.0" inkscape:pageshadow="2" inkscape:window-height="480" inkscape:window-width="640" pagecolor="#ffffff"/>
  <g id="g3">
    <radialGradient cx="67.2695" cy="64.7437" gradientUnits="userSpaceOnUse" id="XMLID_4_" r="65.1257">
      <stop id="stop6" offset="0" style="stop-color: rgb(187, 187, 187);"/>
      <stop id="stop8" offset="0.264" style="stop-color: rgb(184, 184, 184);"/>
      <stop id="stop10" offset="0.4681" style="stop-color: rgb(174, 174, 174);"/>
      <stop id="stop12" offset="0.6521" style="stop-color: rgb(158, 158, 158);"/>
      <stop id="stop14" offset="0.8242" style="stop-color: rgb(134, 134, 134);"/>
      <stop id="stop16" offset="0.9867" style="stop-color: rgb(105, 105, 105);"/>
      <stop id="stop18" offset="1" style="stop-color: rgb(102, 102, 102);"/>
    </radialGradient>
    <path d="M127.129,98.151c-12.559-11.979-25.117-23.959-37.676-35.938   c-4.66-4.445-9.321-8.89-13.982-13.336c0.055,0.053,5.816-19.615,6.028-21.822c0.647-6.682,0.692-15.334-4.287-20.541   c-4.351-4.546-11.067-5.757-17.106-5.476c-4.203,0.196-8.358,1.089-12.354,2.373C45.853,4.02,36.88,8.919,35.728,8.194   C24.932,1.418,9.435,2.385,2.792,14.585C-0.533,20.691,0.72,27.932,3.417,34.01c0.961,2.16,2.111,4.241,3.425,6.205   c1.611,2.411,0.106,4.666-0.627,7.422c-1.993,7.474-4.54,16.159-1.97,23.807C6.938,79.46,15.103,82.667,22.972,82.48   c10.812-0.257,21.452-4.837,30.928-9.698c1.609,0.202,4.951,4.677,6.139,5.8c2.467,2.33,2.842,1.965,6.316,1.646   c1.399-0.129,5.391-1.391,5.563,0.318c0.337,3.349,0.674,6.697,1.012,10.045c0.604,5.992,9.58,3.229,13.355,2.881   c-0.109,3.014-1.272,7.698-0.024,10.486c1.975,4.423,7.798,1.091,11.064,0.171c-0.122,3.008-1.203,7.37-0.134,10.219   c1.619,4.318,7.689,0.899,10.594,0.041c-0.113,2.465-1.95,9.542,1.105,10.72c5.466,2.114,15.262,4.976,20.995,2.287   c5.771-2.708,3.488-13.293,3.031-18.24C132.46,104.198,130.646,101.5,127.129,98.151 M37.6,36.527   c-7.437,7.83-19.516-3.599-12.113-11.469C32.933,17.225,45.012,28.649,37.6,36.527" id="path20" style="fill: url(#XMLID_4_) rgb(0, 0, 0);"/>
    <linearGradient gradientTransform="matrix(0, -68.2436, -68.2436, 0, 33618.1, -16303.3)" gradientUnits="userSpaceOnUse" id="XMLID_5_" x1="-240.1382" x2="-238.4367" y1="492.1577" y2="492.1577">
      <stop id="stop23" offset="0" style="stop-color: rgb(255, 255, 255);"/>
      <stop id="stop25" offset="1" style="stop-color: rgb(0, 0, 0);"/>
    </linearGradient>
    <path d="M24.877,24.482c-8.173,8.647,5.164,21.263,13.343,12.62   C46.397,28.458,33.056,15.838,24.877,24.482 M26.37,36.266c-7.015-6.635,3.339-17.587,10.355-10.951   C43.759,31.962,33.38,42.9,26.37,36.266" id="path27" style="fill: url(#XMLID_5_) rgb(0, 0, 0);"/>
    <path d="M7.598,37.291c-2.002-2.288-6.401-19.489-3.509-18.876c2.105,0.447,3.667,10.338,5.443,12.267   c0.928,1.009,2.492,3.118,3.903,3.354c2.044,0.34-1.064,5.85-1.417,6.922C8.516,51.601,8.282,68.378,22.053,71.502   c11.389,2.584,24.523-2.817,34.697-7.438c1.88-0.853,7.063-4.864,8.688-3.33c1.619,1.531,3.236,3.061,4.855,4.591   C82.076,76.461,93.86,87.6,105.645,98.738c2.817,2.665,5.54,5.529,8.502,8.037c2.215,1.689,9.808,8.765,13.145,6.096   c4.276-3.421,0.626-12.276-1.66-15.5c2.632,2.453,5.282,4.742,6.112,8.392c1.155,5.068,3.081,16.411-0.84,20.444   c-4.947,5.087-16.667,0.642-22.153-0.929c-3.365-2.448-1.823-6.82-1.636-10.889c-2.347,0.694-7.493,3.532-9.697,1.423   c-2.522-2.351-0.896-8.708-0.779-11.683c-3.266,0.923-9.076,4.25-11.051-0.171c-1.245-2.788-0.082-7.473,0.027-10.486   c-3.088,0.285-6.999,1.384-10.049,0.816c-4.513-0.838-3.768-8.271-4.111-11.689c-0.475-4.701-3.909-2.542-8.176-2.148   c-3.512,0.322-6.323-4.148-8.757-6.444c-2.64-2.496-14.46,4.712-18.308,5.91c-7.172,2.236-15.52,3.912-22.827,1.287   C-5.715,74.341,1.379,50.6,7.598,37.291" id="path29" style="fill: rgb(141, 141, 145);"/>
    <path d="M38.829,23.278c-9.645-9.129-23.801,5.844-14.151,14.966C34.328,47.369,48.484,32.403,38.829,23.278    M37.604,36.518c-7.43,7.848-19.533-3.6-12.109-11.452C32.921,17.215,45.025,28.664,37.604,36.518" id="path31" style="fill: rgb(117, 117, 120);"/>
    <path d="M68.767,11.805c-8.89-5.957-18.245-4.007-27.608-0.012c-1.441,0.617-4.71,3.232-6.25,1.868   c-2.289-2.026-3.615-3.76-6.591-5.029c-3.34-1.425-7.337-2.517-10.946-1.5c4.248-2.122,9.14-0.973,13.161,1.09   c2.758,1.414,4.304,4.168,7.047,2.594c8.351-4.797,19.75-9.266,29.46-6.387C76.397,7.2,78.323,17.17,77.758,25.73   c-0.308,4.639-1.244,9.25-2.651,13.678c-0.311,0.975-4.523,9.122-4.355,9.441c-0.943-1.795,3.484-12.098,3.854-14.354   C75.878,26.749,75.867,16.863,68.767,11.805" id="path33" style="fill: rgb(196, 196, 199);"/>
    <path d="M62.879,79.445c2.426-0.166,4.852-0.332,7.278-0.499c2.938-0.201,2.151,1.035,2.507,3.884   c0.727,5.832,0.774,10.438,7.786,9.957c0.654-0.044,5.935-0.69,5.996-0.201c0.362,2.911,0.723,5.821,1.085,8.729   c0.594,4.783,6.189,2.073,9.771,1.554c0.313,2.518-0.142,8.37,1.294,10.371c2.167,3.023,5.782,0.644,9.036-0.248   c0.306,2.462-0.11,8.299,1.432,10.153c5.229,1.609,16.725,6.358,21.665,1.713c-21.688-20.509-43.376-41.017-65.063-61.523   c-3.233,3.952-6.811,6.083-11.111,8.528C57.329,74.391,60.104,76.917,62.879,79.445" id="path35" style="fill: rgb(157, 157, 160);"/>
    <path d="M63.514,80.221c1.502-0.169,7.796-1.852,8.842-1.002c1.282,1.041,1.18,8.366,1.427,10.118   c0.572,4.053,3.647,4.284,6.867,4.064c5.075-0.345,5.602-1.492,6.285,3.537c0.299,2.194-0.083,6.36,2.021,7.609   c1.714,1.019,7.542-2.479,7.972,0.073c0.496,2.948,0.522,6.565,1.632,9.35c1.096,2.763,6.43,0.215,8.339-0.23   c0.41,2.433,0.235,7.785,1.778,9.633c4.627,1.62,15.826,6.816,20.379,2.539c-11.8-11.267-23.597-22.532-35.395-33.798   c-7.333-7.002-14.664-14.004-21.998-21.005c-1.898-1.814-3.796-3.628-5.694-5.439c-1.158-1.105-8.43,6.154-10.139,7.351   C58.391,75.419,60.952,77.823,63.514,80.221" id="path37" style="fill: rgb(157, 157, 160);"/>
    <path d="M66.531,78.496c4.057-0.409,6.599-2.17,7.866,1.947c1.142,3.706,1.703,9.372,5.907,10.929   c2.984,1.106,7.228-2.05,8.176,1.722c0.614,2.453,0.711,9.028,4.174,8.675c6.159-0.63,5.873-1.258,7.261,4.738   c1.106,4.776,1.287,6.014,6.398,4.937c4.232-0.892,3.535,4.468,4.369,8.122c0.396,1.732,15.144,7.599,17.053,4.875   c-20.663-19.289-41.326-38.575-61.991-57.864c-1.682,2.293-4.046,3.984-6.579,5.23C61.622,74.036,64.076,76.266,66.531,78.496" id="path39" style="fill: rgb(188, 188, 191);"/>
    <path d="M102.185,82.889c-7.743-6.938-16.208-12.905-24.299-19.41c-2.363-1.9-9.448-6.931-7.108-10.92   c1.783-3.042,32.503,26.479,34.887,28.853c6.933,6.9,13.687,14.045,19.912,21.598c1.607,1.951,6.809,7.553,4.529,10.622   c-1.037,1.396-8.711-8.998-9.292-9.739C115.057,96.528,109.166,89.149,102.185,82.889" id="path41" style="fill: rgb(188, 188, 191);"/>
    <path d="M59.407,62.688C58.899,63.235,59.32,62.783,59.407,62.688" id="path43" style="fill: rgb(184, 184, 187);"/>
    <path d="M11.443,36.767c-1.202,0-3.532,8.501-3.835,9.623c-1.163,4.328-1.709,8.86-1.38,13.337   c0.484,6.574,2.943,13.093,9.396,15.789c14.694,6.136,33.476-1.481,43.565-12.59c-3.066,1.533-5.676,5.134-8.829,6.931   c-4.304,2.453-9.052,4.105-13.925,4.973c-8.144,1.45-19.849,1.582-25.257-5.877C7.164,63.411,7.247,55.868,8.24,49.4   C8.385,48.461,10.442,36.767,11.443,36.767" id="path45" style="fill: rgb(169, 169, 172);"/>
    <path d="M60.338,61.635c-0.311,0.352-0.621,0.7-0.931,1.052C59.717,62.335,60.027,61.987,60.338,61.635" id="path47" style="fill: rgb(184, 184, 187);"/>
    <linearGradient gradientTransform="matrix(-287.006, 566.011, 566.011, 287.006, -327553, 2544.57)" gradientUnits="userSpaceOnUse" id="XMLID_6_" x1="-237.6328" x2="-235.9301" y1="458.6733" y2="458.6733">
      <stop id="stop50" offset="0" style="stop-color: rgb(255, 255, 255);"/>
      <stop id="stop52" offset="1" style="stop-color: rgb(0, 0, 0);"/>
    </linearGradient>
    <path d="M36.122,7.442C19.757-2.606-4.967,7.539,0.875,29.297c1.139,4.245,3.131,8.309,5.628,11.92   c1.288,1.862-2.045,9.726-2.499,11.679c-2.548,10.956-2.869,24.488,9.705,29.097c10.325,3.786,22.507-0.389,32.085-4.467   c2.693-1.147,5.34-2.398,7.951-3.727c0.929,0.88,1.857,1.759,2.786,2.637c0.96,0.909,4.266,5.162,5.615,5.035   c2.977-0.276,5.954-0.554,8.931-0.829c0.313,3.106,0.627,6.212,0.941,9.317c0.733,7.274,8.279,4.919,13.39,4.451   c-0.103,2.791-1.108,6.841-0.097,9.48c2.064,5.382,7.219,2.472,11.112,1.367c-0.119,3.008-1.179,7.235,0.261,10.045   c2.06,4.02,7.215,1.12,10.201,0.243c-0.13,2.779-1.818,8.95,1.642,10.329c5.459,2.173,13.306,4.016,19.235,3.035   c6.724-1.114,6.478-7.512,6.34-13.035c-0.109-4.402,0.185-9.836-2.226-13.757c-1.967-3.199-5.571-5.93-8.29-8.521   c-6.037-5.759-12.074-11.517-18.112-17.275c-6.759-6.444-13.516-12.889-20.271-19.333c-2.145-2.044-4.288-4.088-6.434-6.134   c-2.806-2.677-2.179-2.124-0.577-6.313c4.175-10.924,9.101-31.532-2.049-40.106C64.758-4.318,47.308,1.61,36.122,7.442    M36.457,9.158C46.945,3.61,62.795-2.167,73.979,4.977c11.062,7.068,7.049,25.754,3.737,35.928   c-0.506,1.553-4.059,7.423-2.895,8.531c1.624,1.55,3.248,3.1,4.873,4.649c6.584,6.279,13.167,12.558,19.75,18.836   c9.636,9.188,19.483,18.201,28.921,27.592c2.512,2.501,3.398,5.23,3.721,8.728c0.426,4.606,2.672,15.281-2.854,17.512   c-3.207,1.293-20.366,0.317-21.022-3.518c-1.059-1.93,0.374-7.706,0.484-9.989c-2.361,0.694-9.237,4.361-10.646,0.96   c-1.244-2.996,0.034-8.017,0.168-11.221c-2.649,0.751-9.361,4.274-11.062,0.867c-1.424-2.855-0.093-8.163,0.023-11.309   c-4.992,0.463-12.851,3.381-13.539-3.445c-0.339-3.368-0.679-6.736-1.019-10.104c-0.043-0.427-8.608,0.598-9.677,0.697   c-1.775,0.166-5.548-4.778-6.822-5.983c-3.254-3.08-4.746-0.522-8.814,1.296c-9.943,4.443-23.723,9.743-34.408,4.79   c-13.131-6.086-8.336-22.736-5.447-33.509c0.458-1.738,1.809-4.121,0.723-5.641c-2.283-3.199-4.125-6.803-5.306-10.551   C-0.91,18.118,6.458,5.73,19.488,4.688c4.351-0.348,8.734,0.71,12.668,2.535C33.628,7.903,35.08,9.09,36.457,9.158" id="path54" style="fill: url(#XMLID_6_) rgb(0, 0, 0);"/>
  </g>
</svg>