<?xml version="1.0" encoding="UTF-8" standalone="no"?>
<!-- Created with Inkscape (http://www.inkscape.org/) -->

<svg
   width="47.492714mm"
   height="34.548782mm"
   viewBox="0 0 47.492714 34.548782"
   version="1.1"
   id="svg5"
   inkscape:version="1.1.2 (0a00cf5339, 2022-02-04)"
   sodipodi:docname="MoorhenLogo.svg"
   xmlns:inkscape="http://www.inkscape.org/namespaces/inkscape"
   xmlns:sodipodi="http://sodipodi.sourceforge.net/DTD/sodipodi-0.dtd"
   xmlns="http://www.w3.org/2000/svg"
   xmlns:svg="http://www.w3.org/2000/svg"
   xmlns:rdf="http://www.w3.org/1999/02/22-rdf-syntax-ns#"
   xmlns:cc="http://creativecommons.org/ns#"
   xmlns:dc="http://purl.org/dc/elements/1.1/">
  <metadata
     id="metadata65">
    <rdf:RDF>
      <cc:Work
         rdf:about="">
        <dc:format>image/svg+xml</dc:format>
        <dc:type
           rdf:resource="http://purl.org/dc/dcmitype/StillImage" />
      </cc:Work>
    </rdf:RDF>
  </metadata>
  <sodipodi:namedview
     id="namedview7"
     pagecolor="#ffffff"
     bordercolor="#666666"
     borderopacity="1.0"
     inkscape:pageshadow="2"
     inkscape:pageopacity="0.0"
     inkscape:pagecheckerboard="false"
     inkscape:document-units="mm"
     showgrid="false"
     inkscape:zoom="2.8284271"
     inkscape:cx="163.69522"
     inkscape:cy="99.348503"
     inkscape:window-width="2560"
     inkscape:window-height="1403"
     inkscape:window-x="2560"
     inkscape:window-y="0"
     inkscape:window-maximized="1"
     inkscape:current-layer="layer2"
     fit-margin-top="0"
     fit-margin-left="0"
     fit-margin-right="0"
     fit-margin-bottom="0" />
  <defs
     id="defs2" />
  <g
     inkscape:groupmode="layer"
     id="layer2"
     inkscape:label="drawing"
     style="display:inline;opacity:1"
     transform="translate(-46.209302,-14.099776)">
    <g
       id="g11997"
       transform="translate(-171.35571,-115.62047)"
       style="display:inline"
       inkscape:export-filename="/home/filo/Downloads/MoorhenLogo.png"
       inkscape:export-xdpi="300.07999"
       inkscape:export-ydpi="300.07999">
      <path
         style="fill:#000000;stroke:none;stroke-width:0.999999px;stroke-linecap:butt;stroke-linejoin:miter;stroke-opacity:1"
         d="m 841.25977,523.90625 c 3.27285,3.18438 7.02161,6.68482 11.16406,10.22461 13.04137,11.14405 29.4636,22.08789 41.89258,22.08789 12.33339,0 19.52181,-3.96135 24.47851,-9.94336 4.85662,-5.86131 7.4951,-13.84725 9.94141,-22.05078 z"
         transform="scale(0.26458333)"
         id="path7719" />
      <path
         style="fill:#000000;stroke:none;stroke-width:0.999999px;stroke-linecap:butt;stroke-linejoin:miter;stroke-opacity:1"
         d="m 962.0957,491.95898 c -10.86516,0.0385 -16.92947,3.95295 -21.20703,9.95118 -4.27755,5.99826 -6.60106,14.25083 -9.10156,22.66992 -2.50054,8.41908 -5.19245,17.01293 -10.66797,23.62109 -5.47551,6.6082 -13.8018,11.04297 -26.80273,11.04297 -14.13279,0 -30.63059,-11.50889 -43.86329,-22.81641 -5.16337,-4.41218 -9.78576,-8.79887 -13.53906,-12.53711 l -14.62109,-0.0527 c 0,0 34.48985,64.87695 76.54492,64.87695 55.25907,0 64.97266,-64.3457 64.97266,-64.3457 l 25.09961,-0.20703 c -0.34951,-2.39558 -0.77188,-4.83189 -1.36914,-7.26758 -1.59205,-6.49247 -4.17913,-12.80845 -8.22266,-17.40625 -4.04357,-4.59779 -9.45607,-7.55575 -17.22266,-7.5293 z"
         transform="scale(0.26458333)"
         id="path7717" />
      <path
         style="fill:#ff0000;fill-opacity:1;stroke:none;stroke-width:0.999999px;stroke-linecap:butt;stroke-linejoin:miter;stroke-opacity:1"
         d="m 970.83789,490.28125 c 4.36517,1.45434 7.93059,4.00257 10.75391,7.21289 4.52141,5.14114 7.2253,11.90025 8.88867,18.68359 0.65848,2.68534 1.11515,5.35414 1.48437,7.95899 l 9.82816,-0.082 c -7.746,-16.95333 -16.63859,-31.73889 -30.95511,-33.77344 z"
         transform="scale(0.26458333)"
         id="path102306" />
      <circle
         style="fill:#000000;fill-opacity:1;stroke:#ff0000;stroke-width:0.8;stroke-linecap:round;stroke-linejoin:round;stroke-miterlimit:4;stroke-dasharray:none;stroke-opacity:1"
         id="path104902"
         cx="254.75253"
         cy="133.20264"
         r="1.12087" />
      <path
         id="path7423"
         style="color:#000000;fill:#000000;stroke-width:3.77953;-inkscape-stroke:none"
         d="m 880.3418,578.25977 -2.92969,0.73046 10.39648,41.47852 3.125,0.041 z m 26.73047,0.082 -2.93165,0.73047 10.4668,41.74609 3.12305,0.041 z"
         transform="scale(0.26458333)" />
    </g>
  </g>
</svg>
