<?xml version="1.0" encoding="UTF-8" standalone="no"?>
<!-- Created with Inkscape (http://www.inkscape.org/) -->

<svg
   width="180"
   height="180"
   viewBox="0 0 180 180"
   version="1.1"
   id="svg1"
   inkscape:version="1.4.2 (ebf0e940, 2025-05-08)"
   sodipodi:docname="sad-square.svg"
   xmlns:inkscape="http://www.inkscape.org/namespaces/inkscape"
   xmlns:sodipodi="http://sodipodi.sourceforge.net/DTD/sodipodi-0.dtd"
   xmlns:xlink="http://www.w3.org/1999/xlink"
   xmlns="http://www.w3.org/2000/svg"
   xmlns:svg="http://www.w3.org/2000/svg">
  <sodipodi:namedview
     id="namedview1"
     pagecolor="#505050"
     bordercolor="#eeeeee"
     borderopacity="1"
     inkscape:showpageshadow="0"
     inkscape:pageopacity="0"
     inkscape:pagecheckerboard="0"
     inkscape:deskcolor="#505050"
     inkscape:document-units="px"
     inkscape:zoom="2.0708875"
     inkscape:cx="68.811076"
     inkscape:cy="109.85628"
     inkscape:window-width="1512"
     inkscape:window-height="916"
     inkscape:window-x="24"
     inkscape:window-y="45"
     inkscape:window-maximized="0"
     inkscape:current-layer="layer1" />
  <defs
     id="defs1">
    <radialGradient
       inkscape:collect="always"
       xlink:href="#linearGradient1593"
       id="radialGradient1595"
       cx="83.326286"
       cy="107.88188"
       fx="83.326286"
       fy="107.88188"
       r="98.807518"
       gradientTransform="matrix(1.0960093,0.04845649,-0.05100835,1.1537283,-20.873971,-90.463964)"
       gradientUnits="userSpaceOnUse" />
    <linearGradient
       inkscape:collect="always"
       id="linearGradient1593">
      <stop
         style="stop-color:#facda1;stop-opacity:1;"
         offset="0"
         id="stop1589" />
      <stop
         style="stop-color:#a7731b;stop-opacity:1;"
         offset="0.58460701"
         id="stop1591" />
    </linearGradient>
    <filter
       inkscape:collect="always"
       style="color-interpolation-filters:sRGB"
       id="filter1"
       x="-0.17636947"
       y="-0.095085566"
       width="1.3527389"
       height="1.1901711">
      <feGaussianBlur
         inkscape:collect="always"
         stdDeviation="0.54384527"
         id="feGaussianBlur1" />
    </filter>
    <filter
       inkscape:collect="always"
       style="color-interpolation-filters:sRGB"
       id="filter1-2"
       x="-0.17636947"
       y="-0.095085566"
       width="1.3527389"
       height="1.1901711">
      <feGaussianBlur
         inkscape:collect="always"
         stdDeviation="0.54384527"
         id="feGaussianBlur1-8" />
    </filter>
    <filter
       inkscape:collect="always"
       style="color-interpolation-filters:sRGB"
       id="filter2"
       x="-0.10633026"
       y="-0.025925969"
       width="1.2124818"
       height="1.0519047">
      <feGaussianBlur
         inkscape:collect="always"
         stdDeviation="0.50878925"
         id="feGaussianBlur2" />
    </filter>
    <filter
       inkscape:collect="always"
       style="color-interpolation-filters:sRGB"
       id="filter2-9"
       x="-0.10633028"
       y="-0.025925967"
       width="1.2124818"
       height="1.0519047">
      <feGaussianBlur
         inkscape:collect="always"
         stdDeviation="0.50878925"
         id="feGaussianBlur2-3" />
    </filter>
  </defs>
  <g
     inkscape:label="Layer 1"
     inkscape:groupmode="layer"
     id="layer1">
    <path
       style="opacity:0.98;fill:url(#radialGradient1595);fill-opacity:1;stroke:none;stroke-width:0.0660703;stroke-linecap:round;stroke-miterlimit:4;stroke-dasharray:none;stroke-dashoffset:0;stroke-opacity:1"
       d="m 91.901985,0.61165859 c -32.825373,0 -59.435598,26.61025441 -59.435598,59.43562641 0.0081,11.552587 3.382904,22.852471 9.711552,32.517498 l 23.373013,41.834677 25.552092,43.91979 25.506986,-43.66031 23.08391,-38.923027 c 6.99072,-11.32106 11.61727,-22.832874 11.64364,-35.688628 0,-32.825372 -26.61024,-59.43562641 -59.435595,-59.43562641 z"
       id="path815"
       inkscape:connector-curvature="0"
       sodipodi:nodetypes="scccccccs" />
    <ellipse
       style="font-variation-settings:'opsz' 32, 'wght' 700;fill:#ffffff;fill-opacity:1;stroke:#000000;stroke-width:0.363085;stroke-linecap:round;stroke-linejoin:round;stroke-dasharray:none;stroke-opacity:1"
       id="path1-5"
       cx="-88.167274"
       cy="99.128181"
       rx="13.834858"
       ry="19.711716"
       transform="matrix(-0.95345227,0.30154398,0.29180474,0.95647791,0,0)" />
    <path
       style="fill:#070500;fill-opacity:1;stroke:none;stroke-width:0.101476px;stroke-linecap:butt;stroke-linejoin:miter;stroke-opacity:1"
       d="m 65.617463,109.98957 c -1.107309,-4.28619 30.510209,-8.78135 44.627747,-4.27684 4.91427,2.09172 7.39767,2.43043 9.87566,5.39369 1.77935,2.04802 -2.74074,3.46875 -2.83087,1.50712 -1.53628,-3.06509 -6.47442,-4.37678 -11.94007,-5.65869 -4.89951,-1.06486 -7.121614,-1.73178 -12.859847,-1.29464 -6.290074,0.32294 -12.36167,1.27376 -17.277269,2.30065 -3.040548,0.75486 -9.205856,2.35829 -9.595351,2.02871 z"
       id="path1510"
       inkscape:connector-curvature="0"
       sodipodi:nodetypes="cccccccc" />
    <ellipse
       style="font-variation-settings:'opsz' 32, 'wght' 700;fill:#ffffff;fill-opacity:1;stroke:#000000;stroke-width:0.363085;stroke-linecap:round;stroke-linejoin:round;stroke-dasharray:none;stroke-opacity:1"
       id="path1"
       cx="88.547791"
       cy="45.330429"
       rx="13.834858"
       ry="19.711716"
       transform="matrix(0.95345227,0.30154398,-0.29180474,0.95647791,0,0)" />
    <ellipse
       style="font-variation-settings:'opsz' 32, 'wght' 700;fill:#6c3333;fill-opacity:1;stroke:#000000;stroke-width:0.275712;stroke-linecap:round;stroke-linejoin:round;stroke-dasharray:none;stroke-opacity:1"
       id="path1-5-2-6"
       cx="-90.442535"
       cy="105.88402"
       rx="10.11285"
       ry="15.549596"
       transform="matrix(-0.94475057,0.32779011,0.267926,0.96343949,0,0)" />
    <ellipse
       style="font-variation-settings:'opsz' 32, 'wght' 700;fill:#6c3333;fill-opacity:1;stroke:#000000;stroke-width:0.273965;stroke-linecap:round;stroke-linejoin:round;stroke-dasharray:none;stroke-opacity:1"
       id="path1-5-2-6-6-6"
       cx="87.94783"
       cy="47.227203"
       rx="10.056973"
       ry="15.438652"
       transform="matrix(0.94495053,0.32721322,-0.26841709,0.96330279,0,0)" />
    <ellipse
       style="font-variation-settings:'opsz' 32, 'wght' 700;fill:#313131;fill-opacity:1;stroke:#000000;stroke-width:0.219037;stroke-linecap:round;stroke-linejoin:round;stroke-dasharray:none;stroke-opacity:1"
       id="path1-5-2"
       cx="-90.479599"
       cy="109.06004"
       rx="8.0159864"
       ry="12.381112"
       transform="matrix(-0.9441905,0.32939992,0.26656313,0.96381746,0,0)" />
    <ellipse
       style="font-variation-settings:'opsz' 32, 'wght' 700;fill:#313131;fill-opacity:1;stroke:#000000;stroke-width:0.219037;stroke-linecap:round;stroke-linejoin:round;stroke-dasharray:none;stroke-opacity:1"
       id="path1-5-2-1"
       cx="88.194481"
       cy="49.73127"
       rx="8.0159864"
       ry="12.381112"
       transform="matrix(0.9441905,0.32939992,-0.26656313,0.96381746,0,0)" />
    <ellipse
       style="font-variation-settings:'opsz' 32, 'wght' 700;fill:#313131;fill-opacity:1;stroke:#000000;stroke-width:0.161649;stroke-linecap:round;stroke-linejoin:round;stroke-dasharray:none;stroke-opacity:1"
       id="path1-5-2-1-0"
       cx="108.59399"
       cy="-52.507389"
       rx="5.8708558"
       ry="9.2072363"
       transform="matrix(0.18194681,0.98330837,-0.96654908,0.25648172,0,0)" />
    <ellipse
       style="font-variation-settings:'opsz' 32, 'wght' 700;fill:#ad7c29;fill-opacity:1;stroke:none;stroke-width:0.175659;stroke-linecap:round;stroke-linejoin:round;stroke-dasharray:none;stroke-opacity:1"
       id="path1-5-2-1-0-5"
       cx="110.28251"
       cy="-53.067795"
       rx="6.4421062"
       ry="9.9081059"
       transform="matrix(0.17817564,0.9839987,-0.96514559,0.26171357,0,0)" />
    <ellipse
       style="font-variation-settings:'opsz' 32, 'wght' 700;mix-blend-mode:normal;fill:#f2d8b6;fill-opacity:0.504387;stroke:none;stroke-width:0.110802;stroke-linecap:round;stroke-linejoin:round;stroke-dasharray:none;stroke-opacity:1;filter:url(#filter1)"
       id="path1-5-2-1-0-5-2"
       cx="164.53668"
       cy="-33.375416"
       rx="3.7002683"
       ry="6.8634429"
       transform="matrix(0.22515546,0.55780132,-0.55829718,0.22392302,14.373935,7.4661865)" />
    <ellipse
       style="font-variation-settings:'opsz' 32, 'wght' 700;fill:#313131;fill-opacity:1;stroke:#000000;stroke-width:0.161649;stroke-linecap:round;stroke-linejoin:round;stroke-dasharray:none;stroke-opacity:1"
       id="path1-5-2-1-0-7"
       cx="58.463486"
       cy="128.26538"
       rx="5.8708558"
       ry="9.2072363"
       transform="matrix(-0.18194681,0.98330837,0.96654908,0.25648172,0,0)" />
    <ellipse
       style="font-variation-settings:'opsz' 32, 'wght' 700;fill:#aa7523;fill-opacity:1;stroke:none;stroke-width:0.175659;stroke-linecap:round;stroke-linejoin:round;stroke-dasharray:none;stroke-opacity:1"
       id="path1-5-2-1-0-5-3"
       cx="59.153034"
       cy="127.97934"
       rx="6.4421062"
       ry="9.9081059"
       transform="matrix(-0.17817564,0.9839987,0.96514559,0.26171357,0,0)" />
    <ellipse
       style="font-variation-settings:'opsz' 32, 'wght' 700;mix-blend-mode:normal;fill:#f2d8b6;fill-opacity:0.504387;stroke:none;stroke-width:0.110802;stroke-linecap:round;stroke-linejoin:round;stroke-dasharray:none;stroke-opacity:1;filter:url(#filter1-2)"
       id="path1-5-2-1-0-5-2-6"
       cx="164.53668"
       cy="-33.375416"
       rx="3.7002683"
       ry="6.8634429"
       transform="matrix(-0.22515546,0.55780132,0.55829718,0.22392302,169.47294,4.5373601)" />
    <path
       style="fill:#412e00;fill-opacity:1;stroke:none;stroke-width:0.113738px;stroke-linecap:butt;stroke-linejoin:miter;stroke-opacity:1"
       d="m 47.436944,52.315564 c 1.45103,7.222016 25.946548,7.497029 33.500606,-2.977137 2.357417,-4.498412 3.921986,-5.602609 4.119002,-10.976935 0.182931,-3.729222 -3.867216,-4.575362 -2.911083,-1.362781 -1.859064,4.542428 -1.203691,6.016224 -4.368293,9.319547 -2.880645,2.823915 -6.200142,4.357779 -11.26327,6.223707 -4.576336,0.875085 -8.79471,0.726009 -12.773461,0.149529 -2.523279,-0.55146 -6.201769,-0.999062 -6.303501,-0.37593 z"
       id="path1510-6"
       inkscape:connector-curvature="0"
       sodipodi:nodetypes="cccccccc" />
    <path
       style="fill:#412e00;fill-opacity:1;stroke:none;stroke-width:0.113738px;stroke-linecap:butt;stroke-linejoin:miter;stroke-opacity:1"
       d="m 138.58597,50.91608 c -1.45102,7.222016 -25.94653,7.497104 -33.50059,-2.977136 -2.35742,-4.498339 -3.92199,-5.602536 -4.11901,-10.976862 -0.18292,-3.72922 3.86723,-4.575362 2.9111,-1.362782 1.85903,4.542429 1.20368,6.016225 4.36829,9.319549 2.88063,2.823915 6.20012,4.357703 11.26325,6.223708 4.57633,0.875082 8.7947,0.726007 12.77346,0.149452 2.52327,-0.551383 6.20178,-0.999061 6.3035,-0.375929 z"
       id="path1510-6-2"
       inkscape:connector-curvature="0"
       sodipodi:nodetypes="cccccccc" />
    <ellipse
       style="opacity:0.98;fill:#f7f7f7;fill-opacity:1;stroke:none;stroke-width:0.0660703;stroke-linecap:round;stroke-miterlimit:4;stroke-dasharray:none;stroke-dashoffset:0;stroke-opacity:1"
       id="path1468-7-7"
       cx="115.19735"
       cy="65.900375"
       rx="1.7923412"
       ry="1.7305365" />
    <ellipse
       style="opacity:0.98;fill:#f7f7f7;fill-opacity:1;stroke:none;stroke-width:0.0660703;stroke-linecap:round;stroke-miterlimit:4;stroke-dasharray:none;stroke-dashoffset:0;stroke-opacity:1"
       id="path1468-7-7-9"
       cx="73.251083"
       cy="67.269066"
       rx="1.7923412"
       ry="1.7305365" />
    <ellipse
       style="opacity:0.98;fill:#f7f7f7;fill-opacity:1;stroke:none;stroke-width:0.0451614;stroke-linecap:round;stroke-miterlimit:4;stroke-dasharray:none;stroke-dashoffset:0;stroke-opacity:1"
       id="path1468-7-8"
       cx="121.49586"
       cy="78.369652"
       rx="0.83741379"
       ry="1.7305365" />
    <ellipse
       style="opacity:0.98;fill:#f7f7f7;fill-opacity:1;stroke:none;stroke-width:0.0451614;stroke-linecap:round;stroke-miterlimit:4;stroke-dasharray:none;stroke-dashoffset:0;stroke-opacity:1"
       id="path1468-7-8-9"
       cx="96.134476"
       cy="54.258186"
       rx="0.83741379"
       ry="1.7305365"
       transform="rotate(16.845386)" />
    <path
       style="fill:#412e00;fill-opacity:0.202835;stroke:#000000;stroke-width:0.264583px;stroke-linecap:butt;stroke-linejoin:miter;stroke-opacity:0.0117388;filter:url(#filter2)"
       d="m 90.317053,93.684651 c 2.666015,5.3788 6.407789,14.031649 3.086967,27.034309 -3.872954,15.16454 -9.349166,18.48377 -10.091846,18.24854 -1.26746,-0.40145 8.510981,-8.30904 7.800005,-28.77228 -0.552257,-15.894992 -9.588292,-22.403864 -9.12057,-23.245763 0.46772,-0.841898 5.65943,1.356393 8.325444,6.735194 z"
       id="path2"
       sodipodi:nodetypes="zssssz"
       transform="matrix(0.60152912,0,0,0.60152912,28.704179,-0.28776781)" />
    <path
       style="fill:#412e00;fill-opacity:0.202835;stroke:#000000;stroke-width:0.264583px;stroke-linecap:butt;stroke-linejoin:miter;stroke-opacity:0.0117388;filter:url(#filter2-9)"
       d="m 155.54787,94.848347 c 2.66601,5.378803 6.40779,14.031653 3.08697,27.034313 -3.87296,15.16454 -9.34917,18.48377 -10.09185,18.24854 -1.26746,-0.40145 8.51098,-8.30904 7.80001,-28.77228 -0.55226,-15.894993 -9.5883,-22.40387 -9.12057,-23.245769 0.46772,-0.841898 5.65943,1.356393 8.32544,6.735196 z"
       id="path2-9"
       sodipodi:nodetypes="zssssz"
       transform="matrix(0.58829956,-0.12546283,0.12546283,0.58829956,18.453544,19.813364)" />
  </g>
</svg>
