<?xml version="1.0" encoding="UTF-8" standalone="no"?>
<!--  -->

<svg
   xmlns:dc="http://purl.org/dc/elements/1.1/"
   xmlns:cc="http://creativecommons.org/ns#"
   xmlns:rdf="http://www.w3.org/1999/02/22-rdf-syntax-ns#"
   xmlns:svg="http://www.w3.org/2000/svg"
   xmlns="http://www.w3.org/2000/svg"
   xmlns:sodipodi="http://sodipodi.sourceforge.net/DTD/sodipodi-0.dtd"
   xmlns:inkscape="http://www.inkscape.org/namespaces/inkscape"
   version="1.0"
   width="61.790001mm"
   height="61.689999mm"
   id="0"
   inkscape:version="0.48.0 r9654"
   sodipodi:docname="icon.width 12.svg">
  <title
     id="title3177">RCrane icon</title>
  <metadata
     id="metadata3167">
    <rdf:RDF>
      <cc:Work
         rdf:about="">
        <dc:format>image/svg+xml</dc:format>
        <dc:type
           rdf:resource="http://purl.org/dc/dcmitype/StillImage" />
        <dc:title>RCrane icon</dc:title>
      </cc:Work>
    </rdf:RDF>
  </metadata>
  <defs
     id="defs3165" />
  <sodipodi:namedview
     pagecolor="#ffffff"
     bordercolor="#666666"
     borderopacity="1"
     objecttolerance="10"
     gridtolerance="10"
     guidetolerance="10"
     inkscape:pageopacity="0"
     inkscape:pageshadow="2"
     inkscape:window-width="1280"
     inkscape:window-height="962"
     id="namedview3163"
     showgrid="false"
     inkscape:zoom="0.66564005"
     inkscape:cx="133.16896"
     inkscape:cy="61.360541"
     inkscape:window-x="1272"
     inkscape:window-y="-8"
     inkscape:window-maximized="1"
     inkscape:current-layer="1" />
  <g
     id="1"
     style="stroke-width:12;stroke-miterlimit:4;stroke-dasharray:none">
    <path
       id="3"
       style="fill:none;stroke:#000000;stroke-width:12;stroke-linecap:round;stroke-linejoin:round;stroke-miterlimit:4;stroke-opacity:1;stroke-dasharray:none"
       d="M 3.7532734,128.65383 141.3733,83.687445 M 195.20342,48.734373 360.31425,329.75351 317.77715,514.61533 122.60693,37.47199 3.7532734,128.70782 88.827471,6.2453317 195.17022,48.713587 122.60693,37.47199 m -13.762,58.706118 161.39075,423.433492 47.50362,-5.06924"
       inkscape:connector-curvature="0"
       sodipodi:nodetypes="ccccccccccccc" />
    <path
       style="fill:#ffffff;fill-opacity:1;stroke-width:12;stroke-miterlimit:4;stroke-dasharray:none"
       d="m 32.195075,98.413966 c 0.202105,-0.526681 57.61489,-83.542024 58.630626,-84.776271 0.227522,-0.276469 50.139739,19.569339 50.868189,20.225919 0.75402,0.679619 -0.14398,0.595758 -10.27265,-0.959335 -6.96695,-1.069663 -9.59082,-1.284588 -10.67707,-0.874573 -0.7921,0.298982 -20.941622,15.516265 -44.776729,33.816186 -23.835104,18.299919 -43.495439,33.272583 -43.689633,33.272583 -0.194194,0 -0.231424,-0.317032 -0.08273,-0.704509 z"
       id="path4581"
       inkscape:connector-curvature="0" />
    <path
       style="fill:#ffffff;fill-opacity:1;stroke-width:12;stroke-miterlimit:4;stroke-dasharray:none"
       d="m 40.926918,108.73544 c 0,-1.43833 75.475192,-59.993354 78.155472,-60.634437 2.37723,-0.5686 15.29851,31.894523 13.01879,32.708137 -7.19293,2.567111 -89.520472,29.24429 -90.249818,29.24429 -0.508444,0 -0.924444,-0.5931 -0.924444,-1.31799 z"
       id="path4583"
       inkscape:connector-curvature="0" />
  </g>
  <path
     style="fill:#ffffff;stroke-width:12;stroke-miterlimit:4;stroke-dasharray:none"
     d="M 273.01015,510.70664 C 272.4378,509.19901 236.83533,415.77655 193.89355,303.1012 150.95177,190.42584 115.96874,98.098239 116.15349,97.928743 c 1.18652,-1.088583 21.67222,-6.699281 22.21005,-6.082972 0.45408,0.520346 155.17225,378.081419 170.59584,416.307619 0.56274,1.3947 -1.78009,1.81575 -21.80069,3.91801 l -13.10791,1.37641 -1.04063,-2.74117 0,0 z"
     id="path4031"
     inkscape:connector-curvature="0" />
  <path
     style="fill:#ffffff;stroke-width:12;stroke-miterlimit:4;stroke-dasharray:none"
     d="M 223.61992,269.23597 C 151.89013,93.918291 132.59383,45.802949 133.92047,45.570328 c 3.23552,-0.567335 56.90124,8.311851 58.08934,9.611089 0.65798,0.719538 37.41095,62.974533 81.67327,138.344433 l 80.47694,137.03619 -11.31247,49.39677 c -22.53703,98.40954 -25.76951,111.95695 -26.79507,112.29879 -0.57358,0.1912 -42.16822,-100.16854 -92.43256,-223.02163 l 0,0 z"
     id="path4033"
     inkscape:connector-curvature="0" />
</svg>
