<?xml version="1.0" encoding="UTF-8" standalone="no"?>
<!--  -->

<svg
   xmlns:dc="http://purl.org/dc/elements/1.1/"
   xmlns:cc="http://creativecommons.org/ns#"
   xmlns:rdf="http://www.w3.org/1999/02/22-rdf-syntax-ns#"
   xmlns:svg="http://www.w3.org/2000/svg"
   xmlns="http://www.w3.org/2000/svg"
   xmlns:sodipodi="http://sodipodi.sourceforge.net/DTD/sodipodi-0.dtd"
   xmlns:inkscape="http://www.inkscape.org/namespaces/inkscape"
   version="1.0"
   width="217"
   height="160"
   id="0"
   inkscape:version="0.48.0 r9654"
   sodipodi:docname="logo.svg">
  <title
     id="title3135">RCrane logo</title>
  <metadata
     id="metadata3109">
    <rdf:RDF>
      <cc:Work
         rdf:about="">
        <dc:format>image/svg+xml</dc:format>
        <dc:type
           rdf:resource="http://purl.org/dc/dcmitype/StillImage" />
        <dc:title>RCrane logo</dc:title>
      </cc:Work>
    </rdf:RDF>
  </metadata>
  <defs
     id="defs3107" />
  <sodipodi:namedview
     pagecolor="#ffffff"
     bordercolor="#666666"
     borderopacity="1"
     objecttolerance="10"
     gridtolerance="10"
     guidetolerance="10"
     inkscape:pageopacity="0"
     inkscape:pageshadow="2"
     inkscape:window-width="1280"
     inkscape:window-height="972"
     id="namedview3105"
     showgrid="false"
     fit-margin-top="0"
     fit-margin-left="0"
     fit-margin-right="0"
     fit-margin-bottom="0"
     inkscape:zoom="3.5568065"
     inkscape:cx="113.22093"
     inkscape:cy="79.942326"
     inkscape:window-x="1272"
     inkscape:window-y="-8"
     inkscape:window-maximized="1"
     inkscape:current-layer="0" />
  <g
     id="1"
     transform="translate(-0.62553,-1.7572956)">
    <path
       id="2"
       style="fill:none;stroke:#000000;stroke-width:1.25106001px;stroke-linecap:round;stroke-linejoin:round;stroke-opacity:1;stroke-dasharray:none"
       d="m 1.25106,27.479835 27.52332,-9.992667 m 11.259539,-6.245417 32.52756,56.208754 M 22.51908,19.985335 55.046639,104.92301 m 0,0 7.50636,-2.49817 m 7.50636,-31.227085 38.782861,-43.71792 m 0,0 41.28498,42.468837 10.00848,16.238084 M 150.1272,69.948672 70.059359,71.197755 75.063599,87.43584 m -5.00424,-16.238085 -5.00424,33.725255 20.01696,-4.996336 M 108.84222,27.479835 70.059359,61.205088 m 5.00424,26.230752 67.557241,73.69592 m 0,0 17.51484,-74.945004 m -48.79134,-14.989001 31.2765,89.934005 m 8.75742,-91.183088 65.05512,-67.4505052 m 0,0 -57.54876,101.1757532 -2.50212,0 M 111.34434,69.948672 108.84222,28.728919 m -46.289221,73.695921 7.50636,47.46517 m 0,0 32.527561,-32.47617 m -32.527561,31.22709 17.51484,-46.21609"
       inkscape:connector-curvature="0" />
    <path
       id="3"
       style="fill:none;stroke:#000000;stroke-width:1.25106001px;stroke-linecap:round;stroke-linejoin:round;stroke-opacity:1;stroke-dasharray:none"
       d="M 25.0212,8.743584 65.055119,104.92301 M 26.27226,8.743584 40.033919,11.241751 m 0,0 L 18.7659,2.4981668 1.25106,27.479835 25.0212,8.743584"
       inkscape:connector-curvature="0" />
  </g>
  <path
     style="fill:#ffffff"
     d="M 4.5001743,21.369405 C 4.6566834,20.961549 17.670676,2.2563027 18.189819,1.6930326 18.358682,1.5098158 32.042981,6.8683368 32.50714,7.2994331 32.868523,7.6350763 32.085913,7.585461 29.471444,7.1069781 24.128042,6.1290635 25.238303,5.610141 14.390006,14.155861 9.1881147,18.253638 4.7956352,21.655257 4.62894,21.715016 4.4517849,21.778523 4.3982843,21.634926 4.5001743,21.369405 z"
     id="path3111"
     inkscape:connector-curvature="0" />
  <path
     style="fill:#ffffff"
     d="M 5.0104097,23.209379 C 5.1304905,22.864766 24.087343,7.8514502 24.201364,8.0106597 c 0.294414,0.4110943 3.028789,7.3220673 2.934381,7.4164753 -0.125473,0.125473 -20.776425,7.683766 -21.7036087,7.943568 -0.3152024,0.08832 -0.4859558,0.023 -0.4217266,-0.161324 z"
     id="path3113"
     inkscape:connector-curvature="0" />
  <path
     style="fill:#ffffff"
     d="M 54.438145,101.66413 C 54.278951,101.23889 47.057654,82.375312 38.390819,59.745065 29.723984,37.114818 22.740728,18.492409 22.872472,18.361933 c 0.131744,-0.130476 1.27656,-0.603619 2.544034,-1.051428 l 2.304499,-0.814199 0.552043,1.289849 c 0.642021,1.500083 34.03652,81.733671 34.245199,82.277475 0.09219,0.24024 -0.03548,0.32039 -0.374319,0.235 -0.282821,-0.0713 -2.026512,0.38078 -3.874867,1.00455 -1.848354,0.62376 -3.401332,1.13412 -3.451059,1.13412 -0.04973,0 -0.220664,-0.34792 -0.379857,-0.77317 l 0,0 z"
     id="path3115"
     inkscape:connector-curvature="0" />
  <path
     style="fill:#ffffff"
     d="M 63.308467,98.9932 C 62.545963,97.337363 25.245116,7.5707306 25.303819,7.5328311 25.489349,7.4130517 38.85205,9.962292 39.043805,10.154047 c 0.128354,0.128355 7.500201,12.791882 16.381883,28.141173 l 16.148511,27.907799 -1.387571,1.532203 c -0.763165,0.842713 -1.38716,1.689012 -1.386659,1.880667 0.0011,0.427814 -4.176581,28.77581 -4.370828,29.658462 -0.196674,0.893699 -0.629686,0.785059 -1.120674,-0.281151 z"
     id="path3117"
     inkscape:connector-curvature="0" />
  <path
     style="fill:#ffffff"
     d="m 69.27934,143.42731 c -0.538226,-2.32736 -6.431255,-40.75578 -6.274041,-40.91299 0.107592,-0.10759 0.474688,0.13507 0.815769,0.53926 l 0.620148,0.73487 9.840288,-2.48539 c 5.412158,-1.366958 10.07584,-2.629758 10.363737,-2.806218 0.443373,-0.271755 0.642019,-0.178807 1.298532,0.607589 0.544724,0.652492 0.702006,1.055939 0.529203,1.357479 -0.135234,0.23598 -3.902775,10.10389 -8.372314,21.92869 -4.469539,11.8248 -8.249231,21.54056 -8.399316,21.59059 -0.150085,0.05 -0.339987,-0.19921 -0.422006,-0.55388 l 0,0 z"
     id="path3119"
     inkscape:connector-curvature="0" />
  <path
     style="fill:#ffffff"
     d="m 70.623665,145.24255 c 0.108823,-0.27061 3.793727,-9.98086 8.188676,-21.57834 9.389229,-24.776496 8.566351,-22.67395 8.834422,-22.57297 0.118106,0.0445 3.227563,3.36362 6.909904,7.37587 l 6.695163,7.29498 -15.164051,14.98624 c -8.340231,8.24243 -15.276088,14.98624 -15.413015,14.98624 -0.136928,0 -0.159923,-0.22141 -0.0511,-0.49202 z"
     id="path3121"
     inkscape:connector-curvature="0" />
  <path
     style="fill:#ffffff"
     d="M 108.44136,121.95374 C 91.19977,103.15456 76.596472,87.199646 75.989587,86.498382 c -0.997267,-1.152353 -1.32593,-1.995543 -3.416068,-8.763953 -1.271952,-4.11891 -2.251478,-7.552161 -2.176725,-7.629446 0.123534,-0.127718 39.491206,-0.821912 39.665756,-0.69945 0.0758,0.05315 30.14888,86.477977 30.14888,86.642547 0,0.049 -0.0949,0.0884 -0.21086,0.0875 -0.11598,-8.4e-4 -14.31762,-15.38269 -31.55921,-34.18187 l 0,0 z"
     id="path3123"
     inkscape:connector-curvature="0" />
  <path
     style="fill:#ffffff"
     d="m 141.40881,155.92629 c -1.3741,-3.54463 -30.02886,-86.427247 -29.90508,-86.499086 0.094,-0.05454 6.18047,-0.17829 13.52554,-0.274996 7.34508,-0.09671 15.76731,-0.252768 18.71607,-0.346804 l 5.3614,-0.170974 4.72419,7.654474 c 2.5983,4.20996 4.78281,7.87863 4.85445,8.152599 0.0919,0.351426 -13.10925,57.733317 -16.41329,71.344217 -0.18338,0.75546 -0.5987,0.82309 -0.86328,0.14057 l 0,0 z"
     id="path3125"
     inkscape:connector-curvature="0" />
  <path
     style="fill:#ffffff"
     d="m 111.24268,67.675207 c -0.006,-0.287302 -0.56053,-9.441885 -1.23316,-20.343518 -0.67263,-10.901634 -1.19122,-19.856757 -1.15243,-19.900275 0.0904,-0.101363 4.09435,3.97569 23.4093,23.83639 l 15.72195,16.166187 -2.00278,0.172528 c -1.10153,0.09489 -9.36701,0.266697 -18.36773,0.381789 -15.8334,0.202466 -16.36529,0.192296 -16.37515,-0.313101 l 0,0 z"
     id="path3127"
     inkscape:connector-curvature="0" />
  <path
     style="fill:#ffffff"
     d="m 71.047981,68.660709 c 3.55e-4,-0.22268 35.991569,-40.835633 36.296429,-40.957362 0.12168,-0.04859 0.28716,0.330966 0.36773,0.843453 0.28349,1.803399 2.43966,39.379101 2.26941,39.549349 -0.14978,0.149781 -6.48754,0.275911 -33.24026,0.661529 -3.131477,0.04514 -5.693467,0.0014 -5.693309,-0.09697 l 0,0 z"
     id="path3129"
     inkscape:connector-curvature="0" />
  <path
     style="fill:#ffffff"
     d="m 70.823366,62.641979 -1.409555,-2.429069 5.385933,-4.679509 c 2.962263,-2.573731 9.349289,-8.128883 14.193391,-12.344784 4.844102,-4.215901 8.924307,-7.665274 9.067123,-7.665274 0.142814,0 0.259663,0.111089 0.259663,0.246864 0,0.278997 -25.491971,29.087355 -25.853689,29.217134 -0.128321,0.04604 -0.867611,-1.009375 -1.642866,-2.345362 z"
     id="path3131"
     inkscape:connector-curvature="0" />
  <path
     style="fill:#ffffff"
     d="m 156.24927,100.97907 c 0.007,-0.20309 0.87182,-3.975014 1.92243,-8.382058 1.74343,-7.313242 1.87638,-8.08101 1.52273,-8.794015 -0.21312,-0.429666 -2.33375,-3.937683 -4.71253,-7.795594 l -4.32504,-7.014382 1.64963,-1.622967 c 0.9073,-0.892635 14.63127,-15.097135 30.49771,-31.56556 15.86644,-16.468424 28.98835,-29.9914826 29.15979,-30.0512406 0.17293,-0.060274 0.2402,0.064908 0.15109,0.2811511 -0.0884,0.2143911 -12.29344,21.7080825 -27.12242,47.7637585 -26.46039,46.492957 -26.97847,47.375597 -27.8587,47.462057 -0.60217,0.0592 -0.8929,-0.0332 -0.88469,-0.28115 z"
     id="path3133"
     inkscape:connector-curvature="0" />
  <path
     style="fill:#ffffff"
     d="m 65.144094,102.31037 c 0,-0.53689 4.294464,-28.994175 4.390556,-29.094039 0.308998,-0.321121 0.760335,0.862581 2.512076,6.588307 l 1.892351,6.185324 4.107329,4.459484 c 2.25903,2.452717 4.641755,5.063006 5.294944,5.800644 l 1.187616,1.341159 -9.200422,2.293438 c -5.060232,1.261393 -9.421828,2.360273 -9.692436,2.441973 -0.270608,0.0817 -0.492014,0.0744 -0.492014,-0.0163 z"
     id="path3137"
     inkscape:connector-curvature="0" />
</svg>
