<?xml version="1.0" encoding="UTF-8" standalone="no"?>
<!-- Created with Inkscape (http://www.inkscape.org/) -->

<svg
   xmlns:dc="http://purl.org/dc/elements/1.1/"
   xmlns:cc="http://creativecommons.org/ns#"
   xmlns:rdf="http://www.w3.org/1999/02/22-rdf-syntax-ns#"
   xmlns:svg="http://www.w3.org/2000/svg"
   xmlns="http://www.w3.org/2000/svg"
   xmlns:xlink="http://www.w3.org/1999/xlink"
   xmlns:sodipodi="http://sodipodi.sourceforge.net/DTD/sodipodi-0.dtd"
   xmlns:inkscape="http://www.inkscape.org/namespaces/inkscape"
   width="64px"
   height="64px"
   id="svg2896"
   version="1.1"
   inkscape:version="0.47 r22583"
   sodipodi:docname="New document 2">
  <defs
     id="defs2898">
    <inkscape:perspective
       sodipodi:type="inkscape:persp3d"
       inkscape:vp_x="0 : 32 : 1"
       inkscape:vp_y="0 : 1000 : 0"
       inkscape:vp_z="64 : 32 : 1"
       inkscape:persp3d-origin="32 : 21.333333 : 1"
       id="perspective2904" />
    <inkscape:perspective
       id="perspective2914"
       inkscape:persp3d-origin="0.5 : 0.33333333 : 1"
       inkscape:vp_z="1 : 0.5 : 1"
       inkscape:vp_y="0 : 1000 : 0"
       inkscape:vp_x="0 : 0.5 : 1"
       sodipodi:type="inkscape:persp3d" />
    <linearGradient
       inkscape:collect="always"
       xlink:href="#WhiteTransparent"
       id="linearGradient3857"
       gradientUnits="userSpaceOnUse"
       x1="0"
       y1="52"
       x2="0"
       y2="16" />
    <linearGradient
       id="WhiteTransparent">
      <stop
         style="stop-color: white; stop-opacity: 1;"
         offset="0"
         id="stop13" />
      <stop
         style="stop-color: white; stop-opacity: 0;"
         offset="1"
         id="stop15" />
    </linearGradient>
    <linearGradient
       inkscape:collect="always"
       xlink:href="#WhiteTransparent"
       id="linearGradient3859"
       gradientUnits="userSpaceOnUse"
       x1="0"
       y1="71"
       x2="0"
       y2="59" />
    <linearGradient
       id="linearGradient2923">
      <stop
         style="stop-color: white; stop-opacity: 1;"
         offset="0"
         id="stop2925" />
      <stop
         style="stop-color: white; stop-opacity: 0;"
         offset="1"
         id="stop2927" />
    </linearGradient>
    <clipPath
       clipPathUnits="userSpaceOnUse"
       id="clipoutline2">
      <path
         id="outline2"
         d="M 59.6,18 C 36.3,18 17.6,27.8 17,39.7 l 0,9.8 C 17,62 36.5,72 60.7,72 85,72 104.4,62 104.4,49.5 l 0,-9.7 C 104.4,27.6 84.6,18 60.7,18 60.4,18 60,18 59.6,18 z" />
    </clipPath>
    <linearGradient
       inkscape:collect="always"
       xlink:href="#BlackTransparent"
       id="linearGradient3861"
       gradientUnits="userSpaceOnUse"
       x1="0"
       y1="35"
       x2="0"
       y2="48" />
    <linearGradient
       id="BlackTransparent">
      <stop
         style="stop-color:#777777;stop-opacity:0.18431373;"
         offset="0"
         id="stop8" />
      <stop
         style="stop-color:#e9e9e9;stop-opacity:0;"
         offset="1"
         id="stop10" />
    </linearGradient>
    <linearGradient
       inkscape:collect="always"
       xlink:href="#WhiteTransparent"
       id="linearGradient3863"
       gradientUnits="userSpaceOnUse"
       x1="0"
       y1="21"
       x2="0"
       y2="30" />
    <linearGradient
       id="linearGradient2936">
      <stop
         style="stop-color: white; stop-opacity: 1;"
         offset="0"
         id="stop2938" />
      <stop
         style="stop-color: white; stop-opacity: 0;"
         offset="1"
         id="stop2940" />
    </linearGradient>
    <filter
       color-interpolation-filters="sRGB"
       id="ShadowBlur"
       filterUnits="userSpaceOnUse"
       x="0"
       y="0">
      <feGaussianBlur
         in="SourceAlpha"
         stdDeviation="3"
         result="blur"
         id="feGaussianBlur31" />
    </filter>
    <linearGradient
       inkscape:collect="always"
       xlink:href="#WhiteTransparent"
       id="linearGradient3818"
       gradientUnits="userSpaceOnUse"
       x1="96"
       y1="0"
       x2="60"
       y2="0" />
    <linearGradient
       id="linearGradient2945">
      <stop
         style="stop-color: white; stop-opacity: 1;"
         offset="0"
         id="stop2947" />
      <stop
         style="stop-color: white; stop-opacity: 0;"
         offset="1"
         id="stop2949" />
    </linearGradient>
    <linearGradient
       inkscape:collect="always"
       xlink:href="#WhiteTransparent"
       id="linearGradient3820"
       gradientUnits="userSpaceOnUse"
       x1="22"
       y1="0"
       x2="46"
       y2="0" />
    <linearGradient
       id="linearGradient2952">
      <stop
         style="stop-color: white; stop-opacity: 1;"
         offset="0"
         id="stop2954" />
      <stop
         style="stop-color: white; stop-opacity: 0;"
         offset="1"
         id="stop2956" />
    </linearGradient>
    <linearGradient
       inkscape:collect="always"
       xlink:href="#BlackTransparent"
       id="linearGradient3822"
       gradientUnits="userSpaceOnUse"
       x1="13"
       y1="56"
       x2="13"
       y2="102" />
    <linearGradient
       id="linearGradient2959">
      <stop
         style="stop-color:#777777;stop-opacity:0.18431373;"
         offset="0"
         id="stop2961" />
      <stop
         style="stop-color:#e9e9e9;stop-opacity:0;"
         offset="1"
         id="stop2963" />
    </linearGradient>
    <clipPath
       clipPathUnits="userSpaceOnUse"
       id="clipoutline1">
      <path
         id="outline1"
         d="M 60.3,27.4 C 40.4,27.4 24.4,35 24.4,44 l 0,56.8 c 0,9.2 16,16.5 35.9,16.5 C 80,117.3 96,110 96,100.8 L 96,44 C 96,35 80,27.4 60.3,27.4 z" />
    </clipPath>
  </defs>
  <sodipodi:namedview
     id="base"
     pagecolor="#ffffff"
     bordercolor="#666666"
     borderopacity="1.0"
     inkscape:pageopacity="0.0"
     inkscape:pageshadow="2"
     inkscape:zoom="5.5"
     inkscape:cx="36.978847"
     inkscape:cy="28.588161"
     inkscape:current-layer="layer1"
     showgrid="true"
     inkscape:document-units="px"
     inkscape:grid-bbox="true"
     inkscape:window-width="960"
     inkscape:window-height="840"
     inkscape:window-x="282"
     inkscape:window-y="166"
     inkscape:window-maximized="0" />
  <metadata
     id="metadata2901">
    <rdf:RDF>
      <cc:Work
         rdf:about="">
        <dc:format>image/svg+xml</dc:format>
        <dc:type
           rdf:resource="http://purl.org/dc/dcmitype/StillImage" />
        <dc:title></dc:title>
      </cc:Work>
    </rdf:RDF>
  </metadata>
  <g
     id="layer1"
     inkscape:label="Layer 1"
     inkscape:groupmode="layer">
    <g
       id="g37"
       transform="matrix(0.4664664,0,0,0.58175938,5.6459898,-8.7793375)">
      <path
         style="opacity:0.4;fill:#000000;filter:url(#ShadowBlur)"
         id="path39"
         d="m 105.87119,105.00339 c 0,10.75675 -20.021808,19.48686 -44.691528,19.48686 -24.669722,0 -44.691525,-8.73011 -44.691525,-19.48686 0,-10.756745 20.021803,-19.486855 44.691525,-19.486855 24.66972,0 44.691528,8.73011 44.691528,19.486855 z"
         class="filter base-shadow" />
      <g
         id="g41">
        <use
           height="128"
           width="128"
           y="0"
           x="0"
           id="use43"
           xlink:href="#outline1"
           class="outline-big" />
        <use
           height="128"
           width="128"
           y="0"
           x="0"
           style="fill:#555753;stroke:#555753;stroke-width:8px"
           id="use45"
           xlink:href="#outline1"
           class="outline-small stroke-aluminium5" />
      </g>
      <path
         id="path47"
         style="fill:#888a85"
         d="M 60.4,30 C 40.6,30 24.7,37.6 24.7,46.7 l 0,54 c 0,9.1 15.9,16.3 35.7,16.3 C 80,117 96,109.8 96,100.7 l 0,-54 C 96,37.6 80,30 60.4,30 z" />
      <path
         id="path49"
         style="opacity:0.5;fill:url(#linearGradient3818)"
         class="specularity"
         d="M 60.4,27.6 C 40.5,27.6 40.5,117 60.4,117 80,117 96,109.9 96,100.7 L 96,44 C 96,35 80,27.6 60.4,27.6 z" />
      <path
         id="path51"
         style="opacity:0.75;fill:url(#linearGradient3820)"
         d="m 42.4,58 -17.7,-8.3 0,51.3 c 0,5 7.3,11.7 17.8,13.7 L 42.4,58 z"
         class="high-specularity" />
      <path
         id="path53"
         style="opacity:0.5;fill:url(#linearGradient3822)"
         class="shade"
         d="m 24.6,57.7 0,17.7 C 45.5,90.5 75.5,91 96,75.4 L 96,57.7 C 76,74 45,72.5 24.6,57.7 z" />
      <use
         height="128"
         width="128"
         y="0"
         x="0"
         style="opacity:0.3;fill:none;stroke:#ffffff;stroke-width:9px;stroke-linejoin:round"
         id="use55"
         xlink:href="#outline1"
         clip-path="url(#clipoutline1)"
         class="stroke-highlight" />
    </g>
    <g
       style="font-size:36px;font-style:normal;font-variant:normal;font-weight:normal;font-stretch:normal;line-height:125%;fill:#1d2c8b;fill-opacity:1;stroke:none;font-family:FreeSans;-inkscape-font-specification:FreeSans"
       id="text2862"
       transform="matrix(0.54041552,0,0,0.40469455,207.6584,27.510425)">
      <path
         d="m -311.57938,45.989699 c 0,0 -14.97867,5.700809 -21.2165,0.01271 -0.0617,8.802441 -0.19966,25.073641 -0.19966,25.073641 l -10.30406,-5.620821 0.22188,-53.645126 10.57812,3.980749 0.22222,20.026371 c 4.33834,5.122042 15.60539,5.575058 20.51378,-0.37037 0.76024,-11.723206 0,-19.656001 0,-19.656001 l 11.09388,-3.275956 -0.22188,53.123316 -10.46717,5.690491"
         style="font-size:72px;font-weight:bold;text-align:start;writing-mode:lr-tb;text-anchor:start;fill:#06216e;fill-opacity:1;font-family:FreeSans;-inkscape-font-specification:FreeSans Bold"
         id="path3657"
         sodipodi:nodetypes="cccccccccccc" />
    </g>
    <g
       id="g57"
       transform="matrix(0.41210253,0,0,0.51395875,8.6970019,-7.0612524)">
      <g
         id="g59">
        <use
           height="128"
           width="128"
           y="0"
           x="0"
           id="use61"
           xlink:href="#outline2"
           class="outline-big" />
        <use
           height="128"
           width="128"
           y="0"
           x="0"
           style="fill:#555753;stroke:#555753;stroke-width:8px"
           id="use63"
           xlink:href="#outline2"
           class="outline-small stroke-aluminium5" />
      </g>
      <path
         style="fill:#d3d7cf"
         id="path65"
         class="aluminium2"
         d="m 60.7,18 c 24.3,0 43.7,10 43.7,22 l 0,3.5 C 104.4,56 85,66 60.7,66 36.5,66 17,56 17,43.5 L 17,40 C 17,28 36.5,18 60.7,18 z" />
      <path
         style="fill:#888a85"
         id="path67"
         class="aluminium4"
         d="m 60.7,59 c 24.3,0 43.7,-6.4 43.7,-19.6 l 0,10.1 C 104.4,62 85,72 60.7,72 36.5,72 17,62 17,49.5 L 17,39.4 C 17,47.3 36.5,59 60.7,59 z" />
      <path
         id="path69"
         style="opacity:0.5;fill:url(#linearGradient3857)"
         d="m 16.473476,36.525126 c 0,11.4 27.281281,17.544544 44.226524,17.544544 17.652349,0 43.69619,-3.744544 43.69619,-17.544544 l 0.004,3.358757 c 0,16.050487 -29.399999,19.25 -43.699999,19.25 -13.8,0 -44.318719,-8.338388 -44.318719,-20.338388" />
      <path
         id="path71"
         style="opacity:0.5;fill:url(#linearGradient3859)"
         class="specularity"
         d="M 61,59 C 33.7,59 4.5,46.6 26.5,62.7 c 8.2,6 20.2,9 34.5,9 14.4,0 26,-3 34.7,-9 C 117,47.5 88,59 61,59 z" />
      <use
         height="128"
         width="128"
         y="0"
         x="0"
         style="opacity:0.3;fill:none;stroke:#ffffff;stroke-width:9px;stroke-linejoin:round"
         id="use73"
         xlink:href="#outline2"
         clip-path="url(#clipoutline2)"
         class="stroke-highlight" />
      <g
         id="g75">
        <path
           id="path77"
           style="opacity:0.5;fill:url(#linearGradient3861)"
           class="shade"
           d="m 41.4,35.6 40.1,0 c 4.5,0 4.5,6.9 0,6.9 l -40.1,0 c -4.4,0 -4.6,-6.9 0,-6.9 z" />
        <path
           id="path79"
           style="fill:#000000"
           d="m 61.6,19.3 c -18.6,0 -20.1,6 -20.1,12.3 l 0,6.8 c 0,2.9 7.5,2.3 7.5,0 L 49,36 c 0,-4.4 4.5,-5.5 12.6,-5.5 8.1,0 12.4,1.1 12.4,5.5 l 0,2.4 c 0,2.3 7.6,2.3 7.6,0 l 0,-6.8 c 0,-6.3 -1.6,-12.3 -20,-12.3 z" />
        <path
           id="path81"
           style="opacity:0.5;fill:url(#linearGradient3863)"
           d="M 61.6,21.3 C 53.4,21.3 47,22.5 47,27.4 l 29,0 c 0,-4.9 -6.3,-6.1 -14.4,-6.1 z"
           class="specularity" />
      </g>
    </g>
    <g
       id="g83"
       transform="matrix(0.4664664,0,0,0.7767426,5.6459898,-30.347647)">
      <path
         id="path85"
         style="opacity:0.5;fill:#000000;fill-opacity:0.21465969"
         d="M 32,83.6 32,99 c 0,6.9 8,7 8,0 l 0,-15.4 c 0,-5.3 -8,-5.7 -8,0 z m 48,0 0,15.4 c 1.9,5.9 7.5,4.7 8,0 l 0,-15.4 c 0,-5 -7.8,-4.9 -8,0 z m -32.6,4.1 0,18.3 c 0,6.3 8.5,5.7 8.6,0 l 0,-18.3 c 0,-5.4 -8.5,-5.7 -8.6,0 z m 16.6,0 0,18.3 c 0,6.5 8.9,5.8 9,0 l 0,-18.3 c -1.4,-6.1 -8.2,-5.5 -9,0 z" />
    </g>
  </g>
</svg>
