<?xml version="1.0" encoding="UTF-8" standalone="no"?>
<!-- Created with Inkscape (http://www.inkscape.org/) -->
<svg
   xmlns:dc="http://purl.org/dc/elements/1.1/"
   xmlns:cc="http://web.resource.org/cc/"
   xmlns:rdf="http://www.w3.org/1999/02/22-rdf-syntax-ns#"
   xmlns:svg="http://www.w3.org/2000/svg"
   xmlns="http://www.w3.org/2000/svg"
   xmlns:sodipodi="http://sodipodi.sourceforge.net/DTD/sodipodi-0.dtd"
   xmlns:inkscape="http://www.inkscape.org/namespaces/inkscape"
   version="1.0"
   width="16px"
   height="16px"
   id="Layer_1"
   xml:space="preserve"
   sodipodi:version="0.32"
   inkscape:version="0.45.1"
   inkscape:output_extension="org.inkscape.output.svg.inkscape"
   sodipodi:docbase="/y/people/lohkamp/autobuild/Linux-sarabellum.chem.york.ac.uk-pre-release-gtk2/share/coot/pixmaps"
   sodipodi:docname="Coat_of_arms_of_Azerbaijan.svg"><metadata
     id="metadata87"><rdf:RDF><cc:Work
         rdf:about=""><dc:format>image/svg+xml</dc:format><dc:type
           rdf:resource="http://purl.org/dc/dcmitype/StillImage" /></cc:Work></rdf:RDF></metadata><sodipodi:namedview
     inkscape:window-height="854"
     inkscape:window-width="957"
     inkscape:pageshadow="2"
     inkscape:pageopacity="0.0"
     guidetolerance="10.0"
     gridtolerance="10.0"
     objecttolerance="10.0"
     borderopacity="1.0"
     bordercolor="#666666"
     pagecolor="#ffffff"
     id="base"
     inkscape:zoom="25.437503"
     inkscape:cx="8.0655701"
     inkscape:cy="7.8820645"
     inkscape:window-x="158"
     inkscape:window-y="41"
     inkscape:current-layer="Layer_1" /><defs
     id="defs190">
	
	
	
	
	
	
	
	
	
	
	
	
	
	
	
	
	
	
	
	
	
	
	
	
	
	
	
	
	
	
	
	
	
	
	
	
	
	
	
	
	
	
	
	
	
	
	
	
	
	
	
	
	
	
	
	
	
		
	
		
	
	
		
	
	
		
	
		
	
		
	
	
	
	
	
	
	
	
	
	
	
	
	
	
	
	
	
	
	
	
	
	
	
	
	
	
	
	
</defs><path
     d="M 8.1768334,7.9232227 L 14.47029,7.6972727 C 14.409058,8.3981128 14.144884,9.0490128 13.934333,9.7843228 C 14.09896,10.090652 14.531523,9.0567128 14.562139,8.9533128 C 14.573684,8.9302228 14.69615,8.4631128 14.749686,8.6469828 C 14.615761,8.9340728 14.577362,9.2252728 14.519978,9.4014428 C 14.512281,9.4243628 14.496972,9.6311528 14.519978,9.6005328 C 14.550594,9.5469128 14.588993,9.4242828 14.604215,9.3515028 C 14.688453,9.1562528 14.753449,8.9340728 14.791762,8.8039928 C 14.803221,8.7696228 14.822293,8.6852128 14.845298,8.6315928 C 14.845298,8.5243428 14.97546,8.4938128 14.918076,8.6010528 C 14.918076,8.6623728 14.833923,8.9266328 14.80707,9.0030928 C 14.837686,9.1180328 14.856843,9.0261828 14.887374,8.9725628 C 14.891308,8.9648628 14.937232,8.8307628 14.964,8.7235228 C 14.994617,8.5972128 15.048238,8.4594328 15.086551,8.2678727 C 15.105708,8.1683227 15.163178,8.0380727 15.163178,8.1760227 C 15.128713,8.3866528 15.036778,8.7159928 14.994702,8.9227828 C 14.994702,8.9648628 14.979394,9.0184828 15.02147,9.0184828 C 15.059698,8.8958428 15.132476,8.6469828 15.163092,8.6164528 C 15.285643,8.5857528 15.044389,9.0644128 15.052086,9.2483628 C 15.052086,9.1870428 15.186012,8.9802528 15.220562,8.9266328 C 15.327719,8.9266328 15.197471,9.0107828 15.197471,9.0759528 C 15.18986,9.0988728 14.986919,9.6770728 15.036693,9.6770728 C 15.086466,9.6120828 15.243396,9.1678028 15.300866,9.1524128 C 15.34679,9.2021828 15.117167,9.7116228 15.117167,9.8148528 C 15.075091,9.8914728 15.048238,9.9911124 15.02147,10.075432 C 14.994702,10.102202 14.990854,10.140422 15.006076,10.182502 C 15.006076,10.132902 15.113319,10.037032 15.136238,9.9757124 C 15.174466,9.9145624 15.186012,9.8456328 15.251093,9.8915628 C 15.170703,10.125032 15.013773,10.335842 14.91799,10.569402 C 14.845212,10.676642 14.722832,10.898822 14.837686,10.783882 C 14.941081,10.680492 14.937232,10.657572 14.990768,10.584792 L 15.101774,10.401092 C 15.128542,10.381852 15.155395,10.351152 15.193708,10.351152 C 15.128542,10.504492 15.025233,10.665182 14.948692,10.814672 C 14.761146,11.028982 14.65014,11.293242 14.454897,11.488662 C 14.397427,11.572812 14.248193,11.680052 14.489361,11.580502 C 14.726681,11.377562 14.918076,11.059682 15.086466,10.799272 C 15.101774,10.803122 15.13239,10.810822 15.147784,10.814672 C 14.960151,11.182152 14.703676,11.465572 14.470119,11.794992 C 14.401189,11.863832 14.248108,11.994082 14.20988,12.070622 C 14.251956,12.089872 14.240411,12.086022 14.290184,12.055402 C 14.38973,11.940462 14.516129,11.825522 14.638509,11.729822 L 14.669125,11.764202 C 14.439417,12.055312 14.221254,12.308032 13.934076,12.530212 C 13.846076,12.599052 13.74653,12.671832 13.654595,12.729302 C 13.773298,12.790622 14.205861,12.422972 14.305406,12.350102 C 14.320715,12.311882 14.336023,12.311882 14.362791,12.284942 C 14.378185,12.250562 14.48919,12.170172 14.48919,12.269712 C 14.343719,12.396032 14.202098,12.545352 14.056542,12.667902 C 13.819222,12.878542 13.555049,13.081482 13.271719,13.238492 C 13.367417,13.284422 13.803914,13.016312 13.884218,12.947552 C 13.949299,12.905302 14.014294,12.855532 14.071764,12.809612 C 14.071764,12.825002 14.136931,12.851852 14.148391,12.851852 C 14.010617,12.970472 13.838293,13.073862 13.685212,13.177262 C 13.516736,13.292202 13.31773,13.437672 13.137795,13.525842 C 12.957859,13.598532 12.766465,13.728782 12.582766,13.774712 C 12.582766,13.824482 12.881318,13.728782 12.923395,13.728782 C 13.168411,13.667462 13.409579,13.560222 13.612519,13.407052 C 13.673837,13.472222 13.658444,13.475902 13.581903,13.525842 C 13.478594,13.602382 13.359891,13.644462 13.271805,13.728782 C 13.153188,13.770862 13.011566,13.866552 12.88893,13.912482 C 12.632539,14.050422 12.326205,14.172892 12.046724,14.264742 C 11.96642,14.264742 11.874399,14.326062 11.801793,14.326062 C 11.744409,14.326062 11.759717,14.360612 11.817187,14.360612 C 11.989425,14.360612 12.131047,14.349062 12.291826,14.310832 C 12.402917,14.287742 12.521619,14.253362 12.613382,14.218982 C 12.770398,14.165362 12.957859,14.057952 13.122572,13.989112 C 13.130183,14.008352 13.145577,14.031182 13.153188,14.050422 C 13.007718,14.195892 12.762701,14.230362 12.598075,14.310832 C 12.594226,14.310832 12.56361,14.345212 12.55215,14.345212 C 12.475524,14.345212 12.261209,14.456302 12.199977,14.464002 C 12.016193,14.494532 11.771177,14.632392 11.587478,14.632392 C 11.721403,14.674642 11.9435,14.617172 12.077426,14.590312 C 12.077426,14.628712 12.173123,14.659332 12.169275,14.678492 C 12.119501,14.831652 12.016107,14.996192 11.924343,15.141842 C 11.721403,15.241382 11.518549,15.363852 11.31176,15.463572 C 11.24283,15.463572 11.204603,15.459722 11.246679,15.371542 C 11.246679,15.371542 11.403694,15.187852 11.327068,15.187852 C 11.258139,15.187852 11.200669,15.172452 11.200669,15.264392 C 11.193058,15.287482 11.189209,15.306632 11.173901,15.321862 C 11.173901,15.436802 11.127891,15.655052 11.016885,15.708672 C 10.944192,15.785212 10.737404,15.815912 10.634095,15.861832 C 10.38523,15.861832 10.078981,16.015002 9.8377284,15.861832 C 9.7726474,15.861832 9.6807984,15.881082 9.7305714,15.785212 C 9.7764954,15.785212 9.7880404,15.785212 9.8224204,15.769982 C 9.9296624,15.769982 10.442615,15.635892 10.388994,15.521122 C 10.343069,15.521122 10.270291,15.532492 10.235911,15.494272 C 10.186053,15.494272 10.178442,15.478872 10.128669,15.463742 C 10.086592,15.387112 9.9411224,15.444492 9.8798904,15.387112 C 9.8301174,15.364022 9.7649504,15.341182 9.8644964,15.417812 C 9.8644964,15.501962 9.8760414,15.590052 9.7917184,15.632132 C 9.7534904,15.651372 9.7075664,15.678222 9.6653184,15.678222 C 9.5963894,15.678222 9.3936204,15.693442 9.3936204,15.616902 C 9.3323024,15.647432 9.3782264,15.647432 9.3782264,15.693442 C 9.4241514,15.693442 9.3437614,15.804542 9.3323024,15.816082 C 9.2595244,15.961552 8.8882794,15.942392 8.7465724,15.942392 C 8.6929504,15.931022 8.6393284,15.904172 8.5934894,15.892792 C 8.3829384,15.785382 8.145533,15.681982 7.950289,15.555762 C 7.88136,15.555762 7.774203,15.643762 7.716819,15.678392 C 7.521575,15.812322 7.337791,15.999952 7.077467,15.999952 C 6.989381,15.999952 6.908991,16.003802 6.878461,15.942482 C 6.824839,15.942482 6.832451,15.846782 6.832451,15.816172 C 6.832451,15.816172 6.951153,15.689682 6.847759,15.743302 C 6.748213,15.816172 6.53005,15.842852 6.403736,15.800772 C 6.277337,15.674292 6.30419,15.636062 6.403736,15.540362 C 6.388428,15.540362 6.300342,15.471522 6.292731,15.463822 C 6.292731,15.429272 6.281271,15.406352 6.265963,15.371802 C 6.143497,15.433122 6.013335,15.433122 5.894632,15.356582 C 5.810395,15.440732 5.710934,15.494352 5.576924,15.494352 C 5.546307,15.478962 5.507994,15.459972 5.481226,15.448432 C 5.251518,15.448432 5.282134,15.436882 5.282134,15.616992 C 5.282134,15.659062 5.297442,15.689682 5.282134,15.728082 C 5.282134,15.766312 5.24767,15.846702 5.205593,15.846702 C 5.128967,15.923322 4.945269,15.976942 4.838112,15.942392 C 4.727106,15.942392 4.681181,15.904172 4.608403,15.831472 C 4.547171,15.831472 4.562479,15.793082 4.562479,15.754852 C 4.474393,15.686002 4.48209,15.391042 4.608403,15.295352 C 4.623712,15.279952 4.692641,15.188102 4.63902,15.188102 C 4.63902,15.134482 4.654328,15.122942 4.593095,15.122942 C 4.543322,15.122942 4.57009,15.077012 4.512706,15.077012 C 4.4017,15.031092 4.374932,15.092412 4.267775,15.092412 C 4.160532,15.253272 3.988294,15.448512 3.781505,15.448512 C 3.72797,15.448512 3.6705,15.348972 3.6705,15.295352 C 3.632187,15.180412 3.65904,15.011932 3.685808,14.893312 C 3.61303,14.893312 3.582499,14.854912 3.532641,14.820452 C 3.513484,14.820452 3.486716,14.747592 3.486716,14.724752 C 3.486716,14.621362 3.425483,14.644282 3.425483,14.605972 C 3.425483,14.525662 3.260856,14.621362 3.211083,14.621362 C 3.134543,14.621362 3.054153,14.621362 2.981375,14.621362 C 2.981375,14.617512 2.992835,14.598272 2.996683,14.590662 C 2.843516,14.590662 2.724899,14.345642 2.797677,14.204022 C 2.770909,14.204022 2.797677,14.169472 2.797677,14.146552 C 2.851213,14.035462 3.065613,13.958832 3.180467,13.897682 C 3.115386,13.897682 3.126846,13.821062 3.07331,13.821062 C 3.054153,13.801822 3.042693,13.794292 3.042693,13.759742 C 2.931688,13.759742 3.081007,13.560652 2.889612,13.560652 C 2.839839,13.518572 2.839839,13.510872 2.782454,13.510872 C 2.774758,13.510872 2.755687,13.510872 2.74799,13.510872 C 2.610131,13.510872 2.257957,13.319482 2.257957,13.192992 C 2.280962,13.143222 2.326887,13.104992 2.368963,13.066682 C 2.472271,12.978512 2.269417,13.012892 2.246412,12.913342 C 2.154563,12.886572 2.135406,12.787032 2.135406,12.699032 C 2.135406,12.580242 2.288573,12.515162 2.349721,12.423222 C 2.254023,12.358062 2.177482,12.407832 2.058865,12.380982 C 2.020552,12.380982 1.982239,12.380982 1.936314,12.380982 C 1.855925,12.361912 1.737222,12.300672 1.706606,12.239352 C 1.668293,12.162812 1.652985,12.040262 1.67599,11.948412 C 1.67599,11.825782 1.951622,11.787552 1.951622,11.688002 C 1.867385,11.661152 1.82146,11.515592 1.771687,11.442822 C 1.741071,11.331902 1.721914,11.190102 1.721914,11.071322 C 1.561136,11.071322 1.446282,11.059942 1.339039,10.902932 C 1.216573,10.780292 1.185872,10.623272 1.185872,10.458652 C 1.185872,10.278712 1.028941,10.397332 0.9524,10.320872 C 0.883471,10.320872 0.967709,10.179252 0.879708,10.152312 C 0.761005,10.075772 0.65,9.9532224 0.65,9.8000528 C 0.65,9.5778728 0.910324,9.7732028 0.910324,9.5701728 C 0.910324,9.2715428 0.940941,9.3518428 1.136184,9.2179128 C 1.159189,9.1029728 1.074951,9.1299128 1.048098,9.0455028 C 0.967709,8.9805128 0.975405,8.8655728 0.921784,8.8158028 C 0.921784,8.5553928 0.990714,8.4672228 1.185872,8.3561228 C 1.205028,8.3561228 1.243341,8.3561228 1.262498,8.3561228 C 1.373504,8.3561228 1.384963,8.4787628 1.446282,8.4787628 C 1.507514,8.6052528 1.499817,8.4787628 1.46159,8.4787628 C 1.46159,8.4366828 1.47305,8.2988327 1.415665,8.2988327 C 1.415665,8.2452027 1.415665,8.1838927 1.400357,8.1302627 C 1.373589,8.1302627 1.385049,8.0574027 1.385049,8.0383327 L 8.1768334,7.9232227 L 8.1768334,7.9232227 z "
     style="fill-rule:evenodd"
     id="path7" /><polygon
     points="84.95,188.668 84.413,188.129 84.413,187.771 84.592,187.592 84.771,187.592 84.95,187.412 85.129,187.234 85.488,187.055 86.025,187.055 86.606,187.055 87.099,187.055 87.637,187.055 88.173,187.234 88.71,187.412 89.292,187.771 89.964,187.951 89.471,188.309 88.934,188.488 88.353,188.488 87.815,188.668 87.278,188.668 86.786,188.668 86.204,188.668 85.667,188.668 85.129,188.668 84.95,188.668 "
     transform="matrix(8.5520539e-2,0,0,8.5520539e-2,-0.26336,-0.2424473)"
     style="fill:#496e6e;fill-rule:evenodd"
     id="polygon9" /><polygon
     points="104.646,188.309 104.108,187.951 104.646,187.412 104.825,187.412 105.004,187.412 105.228,187.234 105.362,187.234 105.542,187.055 105.721,186.92 106.078,186.742 106.437,186.742 106.795,186.518 107.152,186.518 107.556,186.338 107.868,186.338 108.227,186.338 108.585,186.338 109.122,186.338 109.48,186.338 110.063,186.338 110.555,186.338 111.092,186.338 111.45,186.742 111.271,186.92 111.092,187.055 110.913,187.234 110.555,187.412 110.421,187.592 110.063,187.592 109.66,187.771 109.302,187.771 108.943,187.951 108.406,188.129 107.868,188.129 107.332,188.309 106.795,188.309 106.258,188.309 105.721,188.309 105.228,188.309 104.646,188.309 "
     transform="matrix(8.5520539e-2,0,0,8.5520539e-2,-0.26336,-0.2424473)"
     style="fill:#496e6e;fill-rule:evenodd"
     id="polygon11" /><path
     d="M 4.409996,14.862272 C 4.409996,14.575182 4.677932,14.632392 4.854018,14.575182 C 4.965024,14.575182 5.141111,14.456392 5.206278,14.376092 C 5.256051,14.150052 5.068418,14.253452 5.068418,14.065902 C 5.068418,13.912562 5.217737,13.950962 5.313435,13.958492 C 5.363208,13.962342 5.355511,13.989192 5.405284,13.989192 C 5.275207,14.058032 5.298127,14.104132 5.298127,14.219072 C 5.298127,14.264822 5.183273,14.494702 5.313435,14.494702 C 5.313435,14.536782 5.397673,14.510102 5.328743,14.544482 C 5.328743,14.697642 4.930645,14.900582 4.869327,14.942662 C 4.903791,15.011672 5.08749,14.869972 5.129651,14.835592 C 5.156419,14.858512 5.037802,15.076762 5.022494,15.107542 C 4.980332,15.249172 4.915251,15.413882 4.915251,15.570892 C 4.915251,15.662742 4.961176,15.578422 4.961176,15.540192 C 4.961176,15.432952 5.137263,14.931372 5.236808,14.835672 C 5.255965,14.866202 5.278885,15.034772 5.298041,15.034772 C 5.298041,15.096082 5.370734,15.180242 5.38989,15.233862 C 5.516204,15.295172 5.343966,14.954202 5.343966,14.893142 C 5.275036,14.824132 5.355425,14.678662 5.38989,14.621192 C 5.38989,14.632562 5.481739,14.789752 5.481739,14.663262 C 5.481739,14.682512 5.642518,14.663262 5.692291,14.663262 C 5.696139,14.663262 6.243556,14.697642 6.243556,14.697642 C 6.346865,14.812582 6.205328,14.954202 6.136399,14.954202 C 5.968009,14.954202 5.738301,14.743572 5.680831,14.789662 C 5.462583,14.965752 5.925847,15.249172 5.711447,15.356412 C 5.62721,15.356412 5.40135,15.379332 5.343966,15.279782 C 4.972635,15.371632 5.290344,15.800602 4.853933,15.800602 C 4.597457,15.800602 4.5783,15.505812 4.727619,15.356492 C 4.827165,15.256952 4.834776,14.973452 4.639619,14.973452 C 4.586083,14.973362 4.409996,14.946422 4.409996,14.862272 L 4.409996,14.862272 z "
     style="fill:#2ca02c;fill-rule:evenodd"
     id="path13" /><polygon
     points="122.954,187.234 123.133,187.234 123.491,187.055 123.849,187.055 124.207,186.92 124.565,186.92 124.924,186.518 125.282,186.338 125.818,185.98 126.177,185.98 126.535,186.16 126.535,186.338 126.714,186.338 126.894,186.338 127.072,186.338 127.251,186.338 127.431,186.338 127.609,186.338 127.967,186.16 127.431,186.518 127.072,186.518 126.714,186.742 126.355,186.742 126.043,186.92 125.461,187.055 125.282,187.055 124.744,187.055 124.565,187.055 124.028,187.234 123.849,187.234 123.313,187.234 123.133,187.234 122.954,187.234 "
     transform="matrix(8.5520539e-2,0,0,8.5520539e-2,-0.26336,-0.2424473)"
     style="fill:#2ca02c;fill-rule:evenodd"
     id="polygon15" /><polygon
     points="78.863,186.92 78.684,186.92 78.505,186.92 78.326,186.92 78.326,186.742 78.146,186.742 78.146,186.518 77.968,186.518 77.968,186.338 77.968,185.98 78.684,185.621 79.042,185.621 79.176,185.621 79.579,185.621 79.758,185.621 80.116,185.621 80.474,185.621 80.833,185.621 80.833,185.801 81.011,185.801 81.19,185.801 81.19,185.98 81.37,185.98 81.548,185.98 81.907,185.98 81.907,186.338 81.683,186.518 81.548,186.518 81.37,186.518 81.19,186.742 81.011,186.742 80.833,186.92 80.474,186.92 80.295,186.92 80.116,186.92 79.937,186.92 79.579,186.92 79.355,186.92 79.176,186.92 79.042,186.92 78.863,186.92 "
     transform="matrix(8.5520539e-2,0,0,8.5520539e-2,-0.26336,-0.2424473)"
     style="fill:#496e6e;fill-rule:evenodd"
     id="polygon17" /><polygon
     points="113.778,185.084 113.599,185.084 113.42,185.084 113.24,185.084 113.062,185.084 112.928,184.906 112.748,184.727 112.748,184.547 112.928,184.189 113.062,184.189 113.24,184.189 113.42,184.189 113.599,184.189 113.778,184.01 113.956,184.01 114.314,183.652 114.718,183.652 115.076,183.473 115.434,183.473 115.747,183.473 115.927,183.473 116.284,183.473 116.463,183.473 116.866,183.473 116.866,183.652 116.866,183.83 116.866,184.01 116.866,184.189 116.866,184.324 116.866,184.547 116.104,184.906 115.747,185.084 115.612,185.084 115.255,185.084 115.076,185.084 114.718,185.084 114.539,185.084 114.136,185.084 113.956,185.084 113.778,185.084 "
     transform="matrix(8.5520539e-2,0,0,8.5520539e-2,-0.26336,-0.2424473)"
     style="fill:#496e6e;fill-rule:evenodd"
     id="polygon19" /><polygon
     points="84.279,180.607 84.279,180.428 84.279,180.248 84.279,180.068 84.279,179.666 84.279,179.488 84.279,179.129 84.279,178.994 84.413,178.457 84.592,178.637 84.771,178.816 84.95,178.994 85.129,178.994 85.309,179.129 85.488,179.309 85.667,179.488 86.204,179.488 86.204,179.891 85.846,180.068 85.667,180.068 85.309,180.248 85.129,180.248 84.771,180.428 84.592,180.428 84.413,180.607 84.279,180.607 "
     transform="matrix(8.5520539e-2,0,0,8.5520539e-2,-0.26336,-0.2424473)"
     style="fill:#ffffff;fill-rule:evenodd"
     id="polygon23" /><path
     d="M 7.522259,15.065212 C 7.445718,15.065212 7.323167,14.747332 7.357718,14.678572 C 7.292637,14.678572 7.246712,14.559782 7.173934,14.559782 C 6.997847,14.628802 6.722215,14.854572 6.557588,14.758882 C 6.511663,14.732112 6.427425,14.663182 6.523123,14.559782 C 6.549891,14.536692 6.492507,14.310922 6.588204,14.310922 C 6.588204,14.360692 6.683987,14.307072 6.695447,14.295532 C 6.787296,14.207522 6.90215,14.391222 6.955686,14.448692 C 7.062928,14.395072 6.879145,14.268672 6.879145,14.218982 C 6.928918,14.169042 7.522259,14.161512 7.522259,14.360612 C 7.595037,14.360612 7.587341,14.555852 7.587341,14.621022 C 7.667644,14.682332 7.640876,14.475382 7.640876,14.448612 C 7.640876,14.249522 7.77865,14.498382 7.797806,14.525232 C 7.832271,14.582702 8.081051,14.954032 8.1499804,14.820022 C 8.000661,14.716632 7.901201,14.467762 7.76719,14.345132 C 7.748119,14.322042 7.663881,14.260982 7.736659,14.295352 C 7.885978,14.295352 8.046671,14.379512 8.134757,14.203512 C 8.065828,14.230272 7.307859,14.199662 7.307859,14.111492 C 7.200702,14.111492 7.081999,14.111492 6.970994,14.111492 C 7.055232,14.054022 7.361481,13.801302 7.342324,13.759232 C 7.208399,13.843382 7.055317,13.946942 6.925069,14.035032 C 6.503966,14.364282 6.748983,13.805152 6.756679,13.805152 C 6.806452,13.805152 6.817912,13.728612 6.787296,13.697912 C 6.863837,13.621372 6.970994,13.556292 7.062928,13.510362 C 7.089696,13.498822 7.307859,13.460592 7.307859,13.483512 C 7.342324,13.483512 7.392097,13.525752 7.43041,13.525752 C 7.43041,13.571682 7.507037,13.675072 7.507037,13.759232 C 7.507037,14.035032 7.820983,13.992872 8.012292,13.946942 C 8.104141,14.011942 8.2993844,14.023482 8.2993844,14.188112 C 8.2572234,14.283812 8.2343034,14.287662 8.1654594,14.360522 C 8.1654594,14.383442 8.146217,14.421672 8.134843,14.433212 C 8.134843,14.651552 8.4257844,14.659242 8.4257844,14.820022 C 8.4257844,14.900332 8.4487894,15.076582 8.3146934,15.076582 C 8.2266924,15.168432 7.951059,15.130212 7.951059,14.957802 C 7.920443,14.957802 7.855362,14.919572 7.855362,14.892802 C 7.698346,14.892972 7.663967,15.065212 7.522259,15.065212 L 7.522259,15.065212 z "
     style="fill:#2ca02c;fill-rule:evenodd"
     id="path25" /><polygon
     points="88.353,177.92 88.531,177.561 88.173,177.561 87.815,177.561 87.457,177.338 87.278,177.158 86.965,177.158 86.786,176.98 86.383,176.98 86.204,176.801 86.025,176.801 86.025,176.621 86.025,176.486 85.846,176.486 85.667,176.486 85.488,176.309 85.488,176.129 85.309,176.129 85.129,175.949 85.129,175.771 84.95,175.771 84.95,175.592 84.771,175.592 84.771,175.412 84.771,175.01 84.95,175.01 85.129,175.01 85.309,175.01 85.488,175.01 85.667,175.01 85.846,175.01 86.204,174.83 86.204,175.01 86.606,175.232 86.786,175.412 87.278,175.412 87.457,175.592 87.815,175.771 87.994,175.949 88.353,176.129 88.353,176.486 88.353,176.621 88.353,176.801 88.353,176.98 88.353,177.338 88.353,177.74 88.531,177.74 88.353,177.92 "
     transform="matrix(8.5520539e-2,0,0,8.5520539e-2,-0.26336,-0.2424473)"
     style="fill:#217821;fill-rule:evenodd"
     id="polygon27" /><path
     d="M 10.267041,14.774272 C 10.052641,14.812502 9.7120134,14.850812 9.4822194,14.850812 C 9.2411364,14.850812 9.1454394,14.736042 9.1492024,14.575182 C 9.1530514,14.287912 9.8152364,14.536782 10.022024,14.559782 C 10.266956,14.590312 10.462199,14.632482 10.695756,14.632482 C 10.929312,14.632482 10.565593,14.709102 10.542588,14.709102 C 10.50436,14.732192 10.328274,14.762722 10.267041,14.774272 L 10.267041,14.774272 z "
     style="fill:#fff200;fill-rule:evenodd"
     id="path29" /><path
     d="M 3.53341,14.544392 C 3.518102,14.544392 3.418556,14.425602 3.334319,14.464092 C 3.192696,14.464092 2.890296,14.621102 2.890296,14.345302 C 2.890296,14.115422 2.982145,14.138512 3.120004,14.035122 C 3.17354,14.084892 3.426253,14.050512 3.426253,13.927872 C 3.495183,13.858862 3.319096,13.567922 3.686578,13.744002 C 3.935442,13.744002 4.084676,13.786252 4.084676,13.498992 C 4.084676,13.284502 4.440698,13.177262 4.498082,13.345822 C 4.57086,13.345822 4.773715,13.568002 4.743013,13.621622 C 4.743013,13.816872 4.700937,13.782492 4.727705,13.897432 C 4.528613,13.897432 4.47884,13.770942 4.29899,13.713562 C 4.260677,13.656092 4.275985,13.667632 4.210904,13.683032 C 4.210904,13.771032 4.409996,13.859112 4.486537,13.882122 C 4.448224,13.897512 4.069282,13.954812 4.02712,14.004762 C 3.923812,14.027672 3.674861,13.951132 3.594558,13.866812 C 3.583098,13.893662 3.56779,13.916582 3.56779,13.947292 C 3.640482,13.947292 3.808958,14.066072 3.854882,14.066072 C 3.743876,14.123372 3.525628,14.127222 3.395466,14.127222 C 3.380158,14.146462 3.165757,14.188542 3.44139,14.188542 C 3.621325,14.188542 3.774407,14.207782 3.931337,14.127222 C 3.893024,14.188542 3.709326,14.414482 3.732246,14.464262 C 3.812635,14.464262 3.927489,14.242072 3.996333,14.161772 C 4.1495,14.035292 4.206885,13.989362 4.440356,13.989362 C 4.593523,13.943442 4.111187,14.280302 4.314042,14.280302 C 4.348507,14.203762 4.654756,13.912652 4.654756,13.989362 C 4.715988,13.989362 4.777221,13.989362 4.838454,13.989362 C 4.66613,14.069672 4.85761,14.157922 4.853762,14.161772 C 5.267168,14.272692 4.911146,14.494872 4.562821,14.494872 C 4.493891,14.494872 4.467124,14.544652 4.409654,14.648042 C 4.333113,14.720902 4.160789,14.395332 3.996247,14.560042 C 3.858474,14.693972 3.862322,14.789922 3.640226,14.789922 C 3.548633,14.789582 3.563941,14.544392 3.53341,14.544392 L 3.53341,14.544392 z "
     style="fill:#2ca02c;fill-rule:evenodd"
     id="path31" /><polygon
     points="102.632,175.771 102.497,175.771 102.497,175.592 102.497,175.412 102.497,175.232 102.497,175.01 102.497,174.65 103.034,174.65 103.572,174.293 104.108,174.113 104.825,173.801 105.362,173.621 106.078,173.264 106.795,172.904 107.556,172.322 108.227,172.322 108.764,172.682 108.048,173.264 107.332,173.441 106.795,173.621 106.258,173.801 105.542,174.113 105.004,174.293 104.288,174.65 103.75,174.83 103.572,175.01 103.393,175.232 103.214,175.412 103.034,175.592 103.034,175.771 102.632,175.771 "
     transform="matrix(8.5520539e-2,0,0,8.5520539e-2,-0.26336,-0.2424473)"
     style="fill:#fff200;fill-rule:evenodd"
     id="polygon33" /><path
     d="M 8.4563154,14.621102 C 8.3836224,14.621102 8.3797744,14.559782 8.3337644,14.559782 C 8.3337644,14.544392 8.3069964,14.502312 8.2993844,14.494622 C 8.2993844,14.261152 8.5673204,14.015872 8.7166394,13.866552 C 8.9233424,13.709542 9.1300454,13.579462 9.3482944,13.452982 C 9.1569844,13.671312 8.9540444,13.935572 8.8698064,14.218982 C 8.7894174,14.356762 8.6515584,14.621022 8.4716234,14.621022 L 8.4563154,14.621022 L 8.4563154,14.621102 z "
     style="fill:#fff200;fill-rule:evenodd"
     id="path35" /><path
     d="M 5.577608,14.559782 C 5.386213,14.486922 5.508678,14.249602 5.650386,14.161602 C 5.727012,14.042812 5.711618,14.077282 5.711618,13.958492 C 5.711618,13.751702 5.190969,13.851422 5.160353,13.851422 C 5.045499,13.851422 4.838796,13.790102 4.838796,13.636932 C 4.838796,13.602382 5.003337,13.629232 5.083812,13.590842 C 5.363293,13.464522 5.057044,13.192652 4.869412,13.192652 C 4.846493,13.169562 4.731639,13.108502 4.72779,13.096952 C 4.681866,12.897862 4.697174,12.779072 4.854104,12.698772 C 4.888569,12.733152 5.221586,12.844242 5.221586,12.882472 C 5.221586,12.924552 5.340288,13.016392 5.378516,13.039492 C 5.424441,13.077712 5.707685,12.951482 5.711618,13.096952 L 5.822624,13.127492 C 6.025479,13.127492 5.746083,13.422452 6.125025,13.422452 C 6.270495,13.422452 6.362344,13.315202 6.481047,13.407052 C 6.768139,13.617692 6.377738,14.015872 6.343273,14.280132 C 6.247576,14.126962 6.23603,13.801392 6.23603,13.621542 C 6.167187,13.621542 6.178646,13.602302 6.159489,13.667462 C 6.159489,13.736482 6.144181,13.866552 6.174798,13.927872 C 6.125025,13.897342 6.09056,13.847572 6.052332,13.805242 C 6.025479,13.763162 5.807316,13.594602 5.807316,13.575532 C 5.727012,13.575532 5.684851,13.020162 5.608224,13.127402 C 5.608224,13.165632 5.612073,13.430062 5.665608,13.483512 C 5.451294,13.441432 5.114343,13.089172 5.05311,12.882382 L 4.991878,12.882382 C 5.045413,13.127402 5.286581,13.357282 5.481825,13.483512 C 5.745998,13.644372 5.252117,13.537132 5.252117,13.606142 C 5.252117,13.724932 5.642603,13.648222 5.711533,13.636852 C 5.902928,13.717152 6.071404,13.966102 6.19002,14.126882 C 6.105783,14.126882 5.814842,14.103962 5.791922,14.176652 C 5.811079,14.264652 6.197717,14.184352 6.251253,14.295442 C 6.251253,14.333672 6.255102,14.506082 6.278021,14.544302 C 6.197632,14.571162 6.078929,14.548152 6.006237,14.575012 C 5.979554,14.586472 5.577608,14.559782 5.577608,14.559782 L 5.577608,14.559782 z "
     style="fill:#2ca02c;fill-rule:evenodd"
     id="path37" /><path
     d="M 11.939908,14.433302 C 11.576189,14.613322 11.174328,14.571242 10.787605,14.509932 C 10.688144,14.494532 10.806761,14.479222 10.864146,14.464002 C 11.01355,14.418082 11.17048,14.406532 11.293031,14.310832 C 11.518891,14.368392 11.714134,14.456392 11.939908,14.433302 L 11.939908,14.433302 z "
     style="fill:#fff200;fill-rule:evenodd"
     id="path39" /><path
     d="M 9.8804034,14.111662 C 10.014328,14.111662 10.156036,14.111662 10.282349,14.146212 C 10.665139,14.234212 10.787605,14.241902 11.047929,14.280132 C 11.078546,14.287832 11.216405,14.310832 11.113096,14.310832 C 11.101465,14.318532 10.875691,14.376002 10.848837,14.376002 C 10.703452,14.444842 9.964555,14.532852 9.8804034,14.448692 C 9.6659174,14.448692 9.7196244,14.111662 9.8804034,14.111662 L 9.8804034,14.111662 z "
     style="fill:#fff200;fill-rule:evenodd"
     id="path41" /><path
     d="M 9.0688134,14.448692 C 8.6209424,14.230362 9.6353874,13.433822 9.8076244,13.326582 C 9.5894624,13.621542 9.4554514,13.966192 9.3138294,14.295532 C 9.2296774,14.383532 9.2220654,14.448692 9.0842064,14.448692 L 9.0688134,14.448692 L 9.0688134,14.448692 z "
     style="fill:#fff200;fill-rule:evenodd"
     id="path43" /><path
     d="M 11.358112,14.188282 C 11.273875,14.188282 11.139864,14.176742 11.327496,14.111662 C 11.564815,14.035122 11.779215,13.954642 11.985918,13.836022 C 12.058697,13.836022 12.115995,13.881952 12.169617,13.881952 C 12.368623,13.881952 12.560103,13.881952 12.755432,13.851422 C 12.606114,13.939422 12.119844,14.146212 11.955388,14.176822 C 11.679584,14.230362 11.832666,14.180592 11.358112,14.188282 L 11.358112,14.188282 z "
     style="fill:#fff200;fill-rule:evenodd"
     id="path45" /><path
     d="M 9.6659174,14.126962 C 9.5932254,14.126962 9.6429984,14.096432 9.6085334,14.096432 C 9.3482084,13.836022 10.247884,13.158192 10.297658,13.207962 C 10.07556,13.541062 10.117722,13.962252 9.6813114,14.126962 L 9.6659174,14.126962 L 9.6659174,14.126962 z "
     style="fill:#fff200;fill-rule:evenodd"
     id="path47" /><path
     d="M 11.415496,13.958492 C 11.522654,13.958492 11.388728,13.989192 11.388728,13.989192 C 11.339041,14.038962 10.8337,14.111662 10.757159,14.111662 C 10.588684,14.111662 10.389592,14.165452 10.389592,13.927962 C 10.389592,13.652152 10.959928,13.797882 11.093939,13.866642 C 11.18194,13.908722 11.31595,13.958492 11.415496,13.958492 L 11.415496,13.958492 z "
     style="fill:#fff200;fill-rule:evenodd"
     id="path49" /><polygon
     points="100.886,166.949 100.707,166.77 100.527,166.592 100.304,166.412 100.125,166.232 99.812,166.232 99.812,166.053 99.454,165.92 99.454,165.516 99.946,164.979 100.886,164.262 101.603,163.725 102.497,163.008 103.393,162.471 104.467,161.934 105.542,161.576 106.795,160.994 106.437,161.576 106.078,161.754 105.721,162.293 105.362,162.471 104.825,162.83 104.467,163.188 104.108,163.545 103.93,163.904 103.572,164.084 103.034,164.621 102.855,164.979 102.632,165.158 102.497,165.338 102.318,165.516 102.318,165.695 101.96,165.92 101.781,166.232 101.603,166.412 101.424,166.592 101.244,166.77 101.244,166.949 100.886,166.949 "
     transform="matrix(8.5520539e-2,0,0,8.5520539e-2,-0.26336,-0.2424473)"
     style="fill:#fff200;fill-rule:evenodd"
     id="polygon51" /><path
     d="M 3.058686,13.560222 C 3.058686,13.445282 3.349627,13.368822 3.349627,13.177172 C 3.349627,13.077632 3.108459,12.951312 3.073994,12.809522 C 3.073994,12.598882 3.303702,12.717672 3.242469,12.499342 C 3.242469,12.445722 3.116156,12.330782 3.058686,12.330782 C 3.047226,12.304012 2.894059,12.047452 2.966837,11.978522 C 2.997453,11.928742 3.093151,11.810132 3.165929,11.810132 C 3.280783,11.756512 3.296091,11.871272 3.380329,11.825352 C 3.533496,11.982372 3.464481,12.373022 3.855053,12.101152 C 3.931594,12.135532 3.923983,12.185312 3.966059,12.223622 C 4.076979,12.223622 4.008135,12.564502 4.115292,12.564502 C 4.21099,12.656352 4.436849,12.484202 4.486622,12.595032 C 4.567012,12.595032 4.632093,12.667902 4.655098,12.729132 C 4.678017,12.782752 4.609088,12.832532 4.609088,12.882302 C 4.609088,12.882302 4.509542,13.020072 4.528698,13.054712 C 4.662709,13.257652 4.161217,13.127402 4.29899,13.024012 C 4.29899,12.981932 4.295142,12.943702 4.314298,12.897692 C 4.168828,12.897692 4.279834,13.177172 4.145908,13.177172 C 4.14206,13.181022 4.115292,13.192572 4.115292,13.207872 C 4.023443,13.188632 4.145908,13.399272 4.027291,13.223102 C 3.900892,13.031702 3.774578,12.763602 3.855053,12.514732 C 3.877973,12.449562 3.847356,12.346172 3.870361,12.269712 C 3.770815,12.269712 3.767052,12.568352 3.767052,12.652592 C 3.767052,12.805762 3.49142,12.392182 3.472263,12.365502 C 3.384263,12.254412 3.257863,12.124162 3.181322,12.009392 C 3.06262,12.066862 3.537344,12.583832 3.610037,12.683382 C 3.713431,12.813452 3.686663,12.794472 3.567961,12.763682 C 3.472263,12.763682 3.300025,12.756162 3.227247,12.729302 C 3.177474,12.836542 3.644502,12.828852 3.732588,12.867082 C 3.763204,12.962942 3.87421,13.181112 3.946988,13.253892 C 3.969993,13.330512 4.061842,13.246192 3.946988,13.361132 C 3.828285,13.479922 3.659895,13.338042 3.583354,13.376522 C 3.422576,13.376522 3.835982,13.521992 3.671355,13.560222 C 3.617819,13.571772 3.652198,13.571772 3.594814,13.590752 C 3.522036,13.617602 3.575657,13.579382 3.472263,13.629152 C 3.418727,13.655922 3.315333,13.835942 3.349712,13.835942 C 3.219464,13.836022 3.058686,13.675162 3.058686,13.560222 L 3.058686,13.560222 z "
     style="fill:#2ca02c;fill-rule:evenodd"
     id="path53" /><path
     d="M 11.312102,13.437672 C 11.572512,13.437672 11.809831,13.525842 12.062459,13.525842 C 11.809831,13.717242 10.952317,13.985342 11.032707,13.560222 C 11.051863,13.460672 11.254718,13.437672 11.312102,13.437672 L 11.312102,13.437672 z "
     style="fill:#fff200;fill-rule:evenodd"
     id="path55" /><path
     d="M 10.35889,13.759402 C 10.328274,13.759402 10.267041,13.713472 10.251733,13.698082 C 10.251733,13.299902 10.511972,13.196502 10.78769,12.993562 C 10.829766,12.963032 10.852771,12.897862 10.91409,12.897862 C 10.85662,13.008952 10.78769,13.162122 10.745614,13.269362 C 10.676684,13.441602 10.619215,13.759402 10.374284,13.759402 L 10.35889,13.759402 L 10.35889,13.759402 z "
     style="fill:#fff200;fill-rule:evenodd"
     id="path57" /><path
     d="M 12.621336,13.644462 C 12.456709,13.705782 12.062459,13.744002 12.062459,13.713472 C 11.989682,13.656002 11.985833,13.675252 12.062459,13.636932 C 12.253854,13.518142 12.426093,13.418602 12.766806,13.391742 C 12.919888,13.380202 13.038591,13.403292 13.153445,13.376522 C 13.027131,13.468372 12.740038,13.621542 12.621336,13.644462 L 12.621336,13.644462 z "
     style="fill:#fff200;fill-rule:evenodd"
     id="path59" /><path
     d="M 10.894847,13.468372 C 10.726458,13.468372 10.883388,13.196422 10.91409,13.127492 C 11.051863,12.951402 11.231798,12.801912 11.415496,12.667982 C 11.224187,12.874772 11.243173,13.468372 10.91409,13.468372 L 10.894847,13.468372 L 10.894847,13.468372 z "
     style="fill:#fff200;fill-rule:evenodd"
     id="path61" /><path
     d="M 12.001141,13.453062 C 12.104535,13.453062 12.345703,13.311442 12.429941,13.253972 C 12.449183,13.261672 12.590805,13.277062 12.640493,13.284502 C 12.548644,13.384052 12.200318,13.453062 12.108384,13.453062 C 12.073919,13.453062 12.047066,13.453062 12.016449,13.453062 L 12.001141,13.453062 L 12.001141,13.453062 z "
     style="fill:#fff200;fill-rule:evenodd"
     id="path63" /><path
     d="M 11.603128,13.326582 C 11.572512,13.326582 11.515042,13.146642 11.618437,13.146642 C 11.683518,13.077632 12.211778,13.177172 12.384017,13.177172 C 12.238631,13.319052 11.679584,13.495142 11.603128,13.326582 L 11.603128,13.326582 z "
     style="fill:#fff200;fill-rule:evenodd"
     id="path65" /><path
     d="M 13.70471,12.825002 C 13.54778,13.039492 12.931434,13.472222 12.686417,13.230882 C 12.644341,13.188802 12.648189,13.119792 12.720882,13.081562 C 12.824276,13.020242 12.95059,12.958932 13.184061,12.897862 C 13.364082,12.855532 13.528623,12.882472 13.70471,12.825002 L 13.70471,12.825002 z "
     style="fill:#fff200;fill-rule:evenodd"
     id="path67" /><path
     d="M 11.430805,13.127492 C 11.227864,12.966792 11.61074,12.598972 11.740817,12.468892 C 11.74475,12.472742 11.691129,12.775232 11.691129,12.809612 C 11.664276,12.947552 11.599195,13.127492 11.430805,13.127492 L 11.430805,13.127492 z "
     style="fill:#fff200;fill-rule:evenodd"
     id="path69" /><path
     d="M 12.709337,12.794382 C 12.782115,12.794382 12.850959,12.786692 12.923737,12.778992 C 12.828039,12.897782 11.989682,13.238492 11.970525,12.993472 C 11.893984,12.660292 12.529487,12.794382 12.709337,12.794382 L 12.709337,12.794382 z "
     style="fill:#fff200;fill-rule:evenodd"
     id="path71" /><path
     d="M 2.289257,12.809612 C 2.254793,12.809612 2.224176,12.652592 2.273949,12.652592 C 2.33903,12.622062 2.384955,12.625822 2.446273,12.564592 C 2.507506,12.499422 2.492198,12.357802 2.415657,12.315732 C 2.415657,12.242862 2.128564,12.269802 2.059635,12.269802 C 1.921776,12.235422 1.699764,12.166412 1.803073,11.963472 C 1.872003,11.921222 2.136176,11.802432 2.136176,11.672352 C 2.055786,11.592052 1.906468,11.473262 1.845235,11.381412 C 1.829927,11.266472 1.818467,11.143922 1.891245,11.044382 C 1.92571,11.044382 2.002251,10.940982 2.029019,10.983062 C 2.097948,10.983062 2.155332,10.998452 2.231873,10.998452 C 2.289343,11.113392 2.457733,11.408182 2.614749,11.331642 C 2.664522,11.331642 2.721906,11.212852 2.829149,11.212852 C 3.009084,11.212852 3.085625,11.381412 3.19663,11.488662 C 3.292413,11.542282 3.204327,11.649352 3.257863,11.702972 C 3.139161,11.702972 2.875073,11.760442 2.875073,11.886842 C 2.848305,11.890692 2.794684,11.948162 2.783224,11.948162 C 2.710446,12.017002 2.783224,11.917462 2.702835,11.917462 C 2.702835,11.749072 2.660673,11.603422 2.702835,11.427422 C 2.641602,11.239712 2.614749,11.795082 2.614749,11.795082 C 2.672133,11.986472 2.5229,11.798922 2.476975,11.749152 C 2.335353,11.588292 2.151569,11.354652 2.044327,11.167012 C 1.914164,11.236032 2.461581,11.860162 2.568824,11.948242 C 2.469278,11.971162 2.235807,11.978772 2.136261,11.948242 C 2.120953,12.001862 2.105645,12.009562 2.151569,12.009562 C 2.151569,12.017092 2.649213,12.070712 2.702835,12.070712 C 2.702835,12.112962 2.702835,12.151182 2.702835,12.193342 C 2.702835,12.411682 2.81384,12.181802 2.81384,12.350362 C 2.81384,12.426992 2.806144,12.426992 2.859765,12.499682 C 2.710446,12.499682 2.767916,12.595382 2.844457,12.595382 C 2.989927,12.595382 2.844457,12.718012 2.844457,12.748722 C 2.974619,12.748722 2.88277,12.817562 2.829149,12.852112 C 2.871225,13.028202 2.626208,12.947812 2.534359,12.947812 C 2.461496,12.947552 2.354253,12.809612 2.289257,12.809612 L 2.289257,12.809612 z "
     style="fill:#2ca02c;fill-rule:evenodd"
     id="path73" /><path
     d="M 11.863367,12.825002 C 11.61074,12.698692 12.03954,12.242862 12.169617,12.151012 C 12.169617,12.239012 12.043303,12.744442 12.001141,12.779072 C 12.001141,12.779072 11.863367,12.863232 11.863367,12.825002 L 11.863367,12.825002 z "
     style="fill:#fff200;fill-rule:evenodd"
     id="path75" /><path
     d="M 13.570785,12.422972 C 13.754483,12.373192 13.850266,12.323422 13.995737,12.300332 C 14.011045,12.373192 13.272147,13.039492 13.168838,12.748462 C 13.17645,12.694842 13.061596,12.579902 13.298915,12.488052 C 13.536235,12.396032 13.463542,12.453502 13.570785,12.422972 L 13.570785,12.422972 z "
     style="fill:#fff200;fill-rule:evenodd"
     id="path77" /><path
     d="M 13.536235,12.166412 C 13.520841,12.131862 13.681705,11.928922 13.811953,11.871452 C 13.94203,11.813982 14.041661,11.783452 14.164126,11.764202 C 14.252127,11.764202 14.347825,11.729822 14.424365,11.702882 C 14.236905,11.963472 14.118116,12.170252 13.850181,12.189332 C 13.788862,12.220032 13.762094,12.231402 13.658786,12.223702 C 13.54778,12.216182 13.551543,12.193092 13.536235,12.166412 L 13.536235,12.166412 z "
     style="fill:#fff200;fill-rule:evenodd"
     id="path79" /><path
     d="M 13.027131,12.392182 C 13.15353,12.392182 13.260602,12.392182 13.383068,12.380632 C 13.069207,12.545352 12.889272,12.736912 12.537013,12.667902 C 12.517856,12.664052 12.418396,12.618132 12.491174,12.499342 C 12.544881,12.422972 12.93913,12.373192 13.027131,12.392182 L 13.027131,12.392182 z "
     style="fill:#fff200;fill-rule:evenodd"
     id="path81" /><path
     d="M 12.292167,12.514822 C 12.215541,12.514822 12.230935,12.465042 12.230935,12.392182 C 12.230935,12.189242 12.464406,11.974752 12.598417,11.840832 C 12.510416,12.028382 12.460643,12.227642 12.460643,12.438102 C 12.399325,12.499422 12.311324,12.564592 12.311324,12.514732 L 12.292167,12.514732 L 12.292167,12.514822 z "
     style="fill:#fff200;fill-rule:evenodd"
     id="path83" /><path
     d="M 13.788862,11.679972 C 13.666311,11.806452 12.992581,12.587592 12.782115,12.269712 C 12.782115,12.097312 13.168753,12.013152 13.27591,11.990062 C 13.402309,11.967312 13.651089,11.813982 13.788862,11.679972 L 13.788862,11.679972 z "
     style="fill:#fff200;fill-rule:evenodd"
     id="path85" /><path
     d="M 13.819564,11.588122 C 13.827261,11.331552 14.056884,11.212772 14.271284,11.212772 C 14.412906,11.212772 14.546916,11.097832 14.669382,11.044212 C 14.466442,11.300852 14.213814,11.810302 13.819564,11.588122 L 13.819564,11.588122 z "
     style="fill:#fff200;fill-rule:evenodd"
     id="path87" /><path
     d="M 12.644341,12.239012 C 12.380254,12.105092 13.084601,11.419552 13.210915,11.285462 C 13.237683,11.312312 13.000363,11.779512 12.985055,11.829282 C 12.95059,11.921132 12.854893,12.189242 12.659649,12.239012 L 12.644341,12.239012 L 12.644341,12.239012 z "
     style="fill:#fff200;fill-rule:evenodd"
     id="path89" /><path
     d="M 13.076904,11.963472 C 12.931434,11.756682 13.260602,11.580422 13.314138,11.523032 C 13.363996,11.465572 13.589856,11.346782 13.639629,11.274172 C 13.639629,11.316252 13.528623,11.530732 13.501855,11.580502 C 13.340991,11.906082 13.264536,11.917372 13.092212,11.963552 L 13.076904,11.963552 L 13.076904,11.963472 z "
     style="fill:#fff200;fill-rule:evenodd"
     id="path91" /><path
     d="M 13.700862,10.416232 C 13.700862,10.565552 13.697013,10.921832 13.628084,11.059602 C 13.574548,11.174542 13.444386,11.339252 13.375456,11.262542 C 13.256754,11.124772 13.29883,11.105522 13.413684,10.883342 C 13.486462,10.734112 13.609013,10.561702 13.700862,10.416232 L 13.700862,10.416232 z "
     style="fill:#fff200;fill-rule:evenodd"
     id="path93" /><path
     d="M 14.25589,11.086372 C 14.022505,11.086372 14.144884,10.806892 14.393663,10.768492 C 14.546831,10.741722 14.646377,10.703322 14.765079,10.626872 C 14.661771,10.787732 14.477987,11.086372 14.25589,11.086372 L 14.25589,11.086372 z "
     style="fill:#fff200;fill-rule:evenodd"
     id="path95" /><path
     d="M 1.094878,9.6311528 C 1.041256,9.6311528 0.976175,9.4511328 1.048868,9.4166628 C 1.113949,9.3478228 1.408738,9.2519528 1.247959,9.0912628 C 1.136954,8.9840228 1.033645,8.8844728 1.033645,8.7082128 C 1.033645,8.5396528 1.133191,8.4937328 1.278661,8.4937328 C 1.343742,8.5473528 1.393515,8.6812728 1.447137,8.7082128 C 1.550446,8.8154528 1.535137,8.6277428 1.58491,8.8767728 C 1.653754,9.1562528 1.814619,9.5085128 1.971549,9.7498528 C 1.937084,9.8799328 1.891159,9.7690928 1.891159,9.7191528 C 1.791613,9.5469128 1.726532,9.3478228 1.600219,9.2021828 C 1.542834,9.0949428 1.458597,8.9953928 1.401127,8.8920028 C 1.393515,8.8958428 1.374359,8.9073928 1.366662,8.9073928 C 1.443288,9.1064828 1.58491,9.2750428 1.676759,9.4627628 C 1.929387,9.8877128 1.841386,9.8379428 1.523592,9.5200628 C 1.485279,9.6043828 1.734058,9.7460928 1.7533,9.8148528 C 1.852846,9.9107224 1.898771,10.071582 2.002165,10.167282 C 1.952392,10.213202 2.051938,10.224752 1.971549,10.305052 C 1.848998,10.427692 2.101711,10.293512 2.002165,10.396902 C 1.994554,10.412292 1.642295,10.473532 1.860543,10.473532 C 1.906468,10.519452 1.975397,10.504232 1.921776,10.584622 C 1.868154,10.527152 1.883548,10.527152 1.845149,10.569222 C 1.772457,10.642092 1.803073,10.676472 1.803073,10.733942 C 1.864306,10.733942 1.669063,10.913872 1.573365,10.768322 C 1.531289,10.848792 1.634598,10.936882 1.691982,10.967582 C 1.611593,10.967582 1.588673,10.871712 1.554208,10.871712 C 1.554208,10.864012 1.420283,10.833482 1.401041,10.783712 C 1.320652,10.741632 1.224954,10.439152 1.309192,10.350892 C 1.688134,9.9757124 1.316889,9.8686428 1.094878,9.6311528 L 1.094878,9.6311528 z "
     style="fill:#2ca02c;fill-rule:evenodd"
     id="path97" /><path
     d="M 14.056884,9.9222624 C 13.934333,10.262982 14.24443,10.630632 13.903716,10.841272 C 13.482613,10.841352 14.018656,10.018042 14.056884,9.9222624 L 14.056884,9.9222624 z "
     style="fill:#fff200;fill-rule:evenodd"
     id="path99" /><path
     d="M 14.654074,10.167362 C 14.745923,10.113742 14.857014,10.025742 14.933641,9.9490324 C 14.983413,10.056272 14.608149,10.764642 14.409143,10.569402 C 14.317294,10.473702 14.409143,10.423932 14.409143,10.396992 C 14.412906,10.358762 14.611912,10.197892 14.654074,10.167362 L 14.654074,10.167362 z "
     style="fill:#fff200;fill-rule:evenodd"
     id="path101" /><polygon
     points="14.628,121.006 14.046,120.826 13.733,120.469 13.375,120.289 13.196,119.752 12.659,119.395 12.479,118.99 12.077,118.498 11.897,117.961 11.897,117.602 12.659,117.066 12.659,117.244 13.017,117.244 13.196,117.244 13.554,117.244 13.733,117.244 14.046,117.244 14.404,117.244 14.808,117.244 15.523,117.424 15.523,117.602 15.702,117.602 15.882,117.602 15.882,117.781 16.061,117.781 16.239,117.961 16.374,117.961 16.374,118.318 16.061,118.678 15.882,118.99 15.702,119.395 15.523,119.752 15.344,120.289 15.166,120.469 14.986,120.826 14.808,121.006 14.628,121.006 "
     transform="matrix(8.5520539e-2,0,0,8.5520539e-2,-0.26336,-0.2424473)"
     style="fill:#d2ab67;fill-rule:evenodd"
     id="polygon103" /><path
     d="M 14.58523,10.060122 C 14.263587,9.9298724 14.757468,9.3745928 14.887545,9.1065728 C 14.887545,9.3861328 14.887545,10.178822 14.58523,10.060122 L 14.58523,10.060122 z "
     style="fill:#fff200;fill-rule:evenodd"
     id="path105" /><path
     d="M 2.36195,10.462152 C 2.36195,10.462152 2.21648,10.569402 2.289172,10.692032 C 2.36195,10.810822 2.392481,10.753352 2.503572,10.825962 C 2.618341,10.902582 2.369561,11.032752 2.503572,11.143842 C 2.641346,11.251082 2.656739,10.982972 2.729432,11.040442 C 2.771593,11.051902 2.331334,10.473702 2.36195,10.462152 L 2.36195,10.462152 z "
     style="fill:#2ca02c;fill-rule:evenodd"
     id="path107" /><polygon
     points="100.617,181.951 108.54,185.174 105.004,185.756 99.454,182.801 100.617,181.951 "
     transform="matrix(8.5520539e-2,0,0,8.5520539e-2,-0.26336,-0.2424473)"
     style="fill:#2ca02c;fill-rule:evenodd"
     id="polygon109" /><polygon
     points="85.309,186.07 96.723,180.158 97.753,180.875 88.845,186.383 85.309,186.07 "
     transform="matrix(8.5520539e-2,0,0,8.5520539e-2,-0.26336,-0.2424473)"
     style="fill:#fff200;fill-rule:evenodd"
     id="polygon111" /><polygon
     points="79.982,184.771 90.143,180.203 91.173,180.338 82.802,184.906 81.325,184.906 79.982,184.771 "
     transform="matrix(8.5520539e-2,0,0,8.5520539e-2,-0.26336,-0.2424473)"
     style="fill:#fff200;fill-rule:evenodd"
     id="polygon113" /><polygon
     points="105.631,180.473 112.658,183.428 114.404,182.666 106.034,179.891 105.631,180.473 "
     transform="matrix(8.5520539e-2,0,0,8.5520539e-2,-0.26336,-0.2424473)"
     style="fill:#2ca02c;fill-rule:evenodd"
     id="polygon115" /><polygon
     points="123.088,176.666 143.679,175.01 141.799,178.859 125.64,178.547 123.088,176.666 "
     transform="matrix(8.5520539e-2,0,0,8.5520539e-2,-0.26336,-0.2424473)"
     style="fill:#2ca02c;fill-rule:evenodd;stroke:#000000;stroke-width:0.13470449;stroke-miterlimit:2.61310005"
     id="polygon117" /><polygon
     points="131.593,184.771 105.406,177.248 106.66,176.084 132.713,180.203 131.593,184.771 "
     transform="matrix(8.5520539e-2,0,0,8.5520539e-2,-0.26336,-0.2424473)"
     style="fill:#2ca02c;fill-rule:evenodd;stroke:#000000;stroke-width:0.13470449;stroke-miterlimit:2.61310005"
     id="polygon119" /><path
     d="M 5.757457,14.889212 C 5.757457,14.889212 5.85324,15.061452 5.857003,15.096002 C 5.860852,15.126532 5.914388,15.321862 6.098171,15.253012 C 6.343188,15.160992 6.205328,15.038532 6.040702,15.000132 C 5.757457,14.931292 5.757457,14.889212 5.757457,14.889212"
     style="fill:none;stroke:#000000;stroke-width:0.01152;stroke-miterlimit:2.61310005"
     id="path121" /><path
     d="M 7.970216,13.498992 C 11.687281,13.498992 14.719241,10.466002 14.719241,6.7514227 C 14.719241,3.0329827 11.687366,2.5904076e-06 7.970216,2.5904076e-06 C 4.256914,2.5904076e-06 1.224954,3.0329827 1.224954,6.7514227 C 1.224954,10.466002 4.256829,13.498992 7.970216,13.498992 L 7.970216,13.498992 z "
     style="fill:#ffcb05;fill-opacity:1;fill-rule:evenodd;stroke:none;stroke-width:0.21600001;stroke-miterlimit:2.61310005"
     id="path123" /><path
     d="M 14.244516,9.8648828 C 14.248364,9.8456328 14.397598,9.5239928 14.34791,9.7269328 C 14.34791,9.8149328 14.462764,10.385702 14.263673,10.454542 C 14.110591,10.504492 14.133596,10.232532 14.156515,10.171212 C 14.183198,10.086802 14.221511,9.9567324 14.244516,9.8648828 L 14.244516,9.8648828 z "
     style="fill:#fff200;fill-rule:evenodd"
     id="path125" /><path
     d="M 7.970216,13.031792 C 11.430805,13.031792 14.252213,10.205592 14.252213,6.7514227 C 14.252213,3.2895527 11.43089,0.46720258 7.970216,0.46720258 C 4.517239,0.46720258 1.691982,3.2894627 1.691982,6.7514227 C 1.691982,10.205592 4.517153,13.031792 7.970216,13.031792 L 7.970216,13.031792 z "
     style="fill:#0092c7;fill-opacity:1;fill-rule:evenodd;stroke:none;stroke-width:0.21600001;stroke-miterlimit:2.61310005"
     id="path127" /><path
     d="M 7.970216,12.108942 C 10.921615,12.108942 13.329532,9.6963228 13.329532,6.7476527 C 13.329532,3.7950627 10.921615,1.3862927 7.970216,1.3862927 C 5.022579,1.3862927 2.610815,3.7950627 2.610815,6.7476527 C 2.610729,9.6963228 5.022579,12.108942 7.970216,12.108942 L 7.970216,12.108942 z "
     style="fill:#ea0437;fill-opacity:1;fill-rule:evenodd;stroke:none;stroke-width:0.21600001;stroke-miterlimit:2.61310005"
     id="path129" /><path
     d="M 7.970216,11.070972 C 10.351279,11.070972 12.292167,9.1295728 12.292167,6.7514227 C 12.292167,4.3694127 10.351364,2.4278427 7.970216,2.4278427 C 5.592916,2.4278427 3.652027,4.3694127 3.652027,6.7514227 C 3.652027,9.1295728 5.592916,11.070972 7.970216,11.070972 L 7.970216,11.070972 z "
     style="fill:#00ae68;fill-opacity:1;fill-rule:evenodd;stroke:none;stroke-width:0.21600001;stroke-miterlimit:2.61310005"
     id="path131" /><polygon
     points="111.271,116.707 147.126,131.484 132.847,95.751 168.881,81.019 132.354,65.928 147.215,30.194 111.539,44.703 96.007,8.924 80.474,44.703 44.798,30.194 59.66,65.973 23.939,81.019 59.167,95.751 44.888,131.484 80.743,116.707 96.007,155.352 111.271,116.707 "
     transform="matrix(8.5520539e-2,0,0,8.5520539e-2,-0.26336,-0.2424473)"
     style="fill:#ffcb05;fill-opacity:1;fill-rule:evenodd"
     id="polygon133" /><polygon
     points="96.007,147.783 109.704,113.08 142.112,126.424 129.266,94.229 161.584,81.019 128.729,67.451 142.112,35.254 110.063,48.285 96.007,15.91 81.952,48.285 49.901,35.254 63.286,67.451 31.101,81.019 62.748,94.229 49.901,126.424 82.31,113.08 96.007,147.783 "
     transform="matrix(8.5520539e-2,0,0,8.5520539e-2,-0.26336,-0.2424473)"
     style="fill:#ffffff;fill-rule:evenodd"
     id="polygon135" /><path
     d="M 8.6133314,8.5895128 C 8.5750174,8.6585228 8.4027794,8.8691628 8.3108444,8.8691628 C 8.2457634,8.8691628 8.104141,8.8728428 8.069762,8.8384628 C 7.985524,8.8384628 8.054454,8.7809928 7.947296,8.7809928 C 7.663967,8.9877828 7.361566,8.8959328 7.135707,8.6278228 C 7.03616,8.5282828 6.875382,8.2563227 6.863922,8.1185527 C 6.860159,8.0803227 6.683987,7.5020327 6.683987,7.4101027 C 6.680139,7.4445627 6.641911,8.1031527 6.729911,8.1031527 C 6.187909,7.5039727 6.513257,6.3958627 6.894453,5.8130927 C 6.85614,6.3530627 6.863837,6.8891927 6.986302,7.4253227 C 6.986302,7.5670327 7.173848,8.1300127 7.269632,8.1300127 C 7.269632,8.1682427 7.407491,8.1913327 7.407491,8.0879327 C 7.407491,7.9768427 7.399794,7.9423827 7.361481,7.8313727 C 7.182879,7.5219527 7.055876,7.1671627 7.032312,6.8088927 C 6.992788,6.2079427 7.112701,5.2272727 7.510885,4.7600727 C 7.598886,4.6452227 7.610345,4.5648327 7.587426,4.7447627 C 7.587426,5.1928027 7.690735,5.6943827 7.751967,6.1309727 C 7.817048,6.4603027 7.89359,6.4986227 7.962519,6.7934927 C 7.985524,6.9734327 7.985524,7.1649127 7.962519,7.3487827 C 7.928054,7.6398027 7.85921,7.9462227 7.85921,8.2372527 C 7.916595,8.3558728 7.85921,8.3865728 8.008529,8.3865728 C 8.1616964,8.3865728 8.2228444,7.8810627 8.1883794,7.7547427 C 8.1883794,7.4637227 8.1654594,7.0155927 8.039145,6.7627927 C 8.000832,6.6786427 7.91668,6.4258427 7.889912,6.3416027 C 7.855447,6.2306027 7.836291,6.1309727 7.828594,6.0850427 C 7.717588,5.5450627 7.656356,4.7293727 7.889912,4.2162527 C 7.912832,4.1511627 7.924292,4.0629927 7.962605,4.0056127 C 7.962605,4.1511627 7.92814,4.3120327 7.993135,4.4421127 C 7.993135,4.7906027 8.6745634,6.1692827 8.7396444,6.4411527 C 8.7396444,6.4450027 8.8200334,6.6709427 8.8353424,6.7627927 C 8.8736554,7.1611527 8.8889634,7.6129527 8.8353424,7.9959127 C 8.8161854,8.1529327 8.7013314,8.4287328 8.6133314,8.5895128 L 8.6133314,8.5895128 z "
     style="fill:#ea0437;fill-opacity:1;fill-rule:evenodd"
     id="path137" /><path
     d="M 8.6515584,8.5857528 C 8.7204874,8.5130528 8.8971684,8.1032327 8.9271914,7.8772927 C 8.9775574,7.4982627 9.0273174,7.1001127 8.9732014,6.7322627 C 8.9298314,6.4374527 8.8246874,6.1476527 8.7013314,5.8744927 C 8.6061114,5.6636427 8.3644654,5.1430327 8.3682294,4.6528327 C 8.4410064,4.7256127 8.4817254,4.8412427 8.5213964,4.9093927 C 8.6845804,5.1897327 8.9220574,5.4577127 9.0917324,5.7365427 C 9.2436144,5.9861427 9.4835694,6.3990027 9.4975274,6.6862527 C 9.5696614,7.4541527 9.2366004,8.1345327 8.6553214,8.6277428 L 8.6515584,8.5857528 L 8.6515584,8.5857528 z "
     style="fill:#ea0437;fill-opacity:1;fill-rule:evenodd"
     id="path139" /><path
     d="M 5.711618,11.924982 C 5.822624,11.924982 5.914473,12.016832 5.914473,12.124072 C 5.914473,12.235342 5.822624,12.327182 5.711618,12.327182 C 5.600527,12.327182 5.512527,12.235342 5.512527,12.124072 C 5.512527,12.016922 5.600527,11.924982 5.711618,11.924982 L 5.711618,11.924982 z "
     style="fill:#ffcb05;fill-rule:evenodd"
     id="path143" /><path
     d="M 10.025873,12.013242 C 10.102414,11.932762 10.228728,11.932762 10.309117,12.013242 C 10.385743,12.089782 10.385743,12.216182 10.309117,12.296572 C 10.228813,12.373192 10.102414,12.373192 10.025873,12.296572 C 9.9454844,12.216182 9.9454844,12.089692 10.025873,12.013242 L 10.025873,12.013242 z "
     style="fill:#ffcb05;fill-rule:evenodd"
     id="path147" /><path
     d="M 13.138137,9.0223328 C 13.138137,8.9112428 13.226137,8.8193928 13.337228,8.8193928 C 13.448234,8.8193928 13.540083,8.9112428 13.540083,9.0223328 C 13.540083,9.1295728 13.448234,9.2214228 13.337228,9.2214228 C 13.226137,9.2214228 13.138137,9.1295728 13.138137,9.0223328 L 13.138137,9.0223328 z "
     style="fill:#ffcb05;fill-rule:evenodd"
     id="path151" /><path
     d="M 13.222374,4.7064527 C 13.145748,4.6298227 13.145748,4.5034227 13.222374,4.4230327 C 13.302678,4.3464127 13.429077,4.3464127 13.505704,4.4230327 C 13.586007,4.5034227 13.586007,4.6298227 13.505704,4.7064527 C 13.429077,4.7868427 13.302764,4.7868427 13.222374,4.7064527 L 13.222374,4.7064527 z "
     style="fill:#ffcb05;fill-rule:evenodd"
     id="path155" /><path
     d="M 10.232576,1.5930727 C 10.121485,1.5930727 10.033485,1.5049927 10.033485,1.3939027 C 10.033485,1.2828127 10.121485,1.1908727 10.232576,1.1908727 C 10.343582,1.1908727 10.435431,1.2828127 10.435431,1.3939027 C 10.435431,1.5049927 10.343582,1.5930727 10.232576,1.5930727 L 10.232576,1.5930727 z "
     style="fill:#ffcb05;fill-rule:evenodd"
     id="path159" /><path
     d="M 5.92217,1.5088427 C 5.845544,1.5854627 5.715467,1.5854627 5.638841,1.5088427 C 5.558451,1.4284527 5.558451,1.3020527 5.638841,1.2254227 C 5.715381,1.1450327 5.845544,1.1450327 5.92217,1.2254227 C 5.998711,1.3020527 5.998711,1.4283627 5.92217,1.5088427 L 5.92217,1.5088427 z "
     style="fill:#ffcb05;fill-rule:evenodd"
     id="path163" /><path
     d="M 2.809821,4.4996627 C 2.809821,4.6107527 2.717972,4.6988427 2.610729,4.6988427 C 2.499724,4.6988427 2.407789,4.6107527 2.407789,4.4996627 C 2.407789,4.3886627 2.499724,4.2967227 2.610729,4.2967227 C 2.717972,4.2967227 2.809821,4.3885727 2.809821,4.4996627 L 2.809821,4.4996627 z "
     style="fill:#ffcb05;fill-rule:evenodd"
     id="path167" /><path
     d="M 2.72182,8.8116928 C 2.80221,8.8882328 2.80221,9.0184828 2.72182,9.0950228 C 2.645194,9.1755028 2.51888,9.1755028 2.438491,9.0950228 C 2.36195,9.0184828 2.36195,8.8882328 2.438491,8.8116928 C 2.51888,8.7312228 2.645194,8.7312228 2.72182,8.8116928 L 2.72182,8.8116928 z "
     style="fill:#ffcb05;fill-rule:evenodd"
     id="path171" /><path
     d="M 2.848134,13.039492 L 2.851983,13.365062 C 2.851983,13.365062 2.446188,13.361212 2.438576,13.246272 C 2.427031,13.127492 2.637583,13.050942 2.848134,13.039492 L 2.848134,13.039492 z "
     style="fill:#d2ab67;fill-rule:evenodd"
     id="path173" /><path
     d="M 3.808958,14.877662 L 4.119055,15.050072 C 4.119055,15.050072 3.946817,15.375482 3.831963,15.337172 C 3.720957,15.298942 3.736265,15.076762 3.808958,14.877662 L 3.808958,14.877662 z "
     style="fill:#d2ab67;fill-rule:evenodd"
     id="path175" /><path
     d="M 8.2266064,13.901022 L 8.019903,13.659852 C 8.019903,13.659852 8.2649204,13.441522 8.3453094,13.506682 C 8.4294614,13.575612 8.3491574,13.755552 8.2266064,13.901022 L 8.2266064,13.901022 z "
     style="fill:#d2ab67;fill-rule:evenodd"
     id="path177" /><path
     d="M 6.47335,14.992602 L 6.748983,15.214612 C 6.748983,15.214612 6.526971,15.505732 6.423577,15.448262 C 6.31642,15.394642 6.369956,15.176302 6.47335,14.992602 L 6.47335,14.992602 z "
     style="fill:#d2ab67;fill-rule:evenodd"
     id="path179" /><path
     d="M 11.201096,14.287832 C 11.201096,14.287832 11.867216,14.188282 12.169617,14.038962 M 11.492037,13.973802 C 11.492037,13.973802 12.215541,13.782402 12.567715,13.540982"
     style="fill:none;stroke:#000000;stroke-width:0.10752;stroke-linecap:round;stroke-miterlimit:2.61310005"
     id="path181" /><path
     d="M 12.406936,13.181112 C 12.406936,13.181112 12.935282,12.966792 13.287455,12.725452 M 12.996515,12.771382 C 12.996515,12.771382 13.390764,12.556892 13.743023,12.315732 M 13.417618,12.380722 C 13.417618,12.380722 13.792796,12.242952 14.121965,11.902152 M 13.735326,11.741282 C 13.777488,11.706732 13.880797,11.672272 14.041661,11.423402"
     style="fill:none;stroke:#000000;stroke-width:0.09600001;stroke-linecap:round;stroke-miterlimit:2.61310005"
     id="path183" /><path
     d="M 13.145834,11.293162 C 13.18791,11.258782 13.291304,11.224312 13.452083,10.975282 M 13.222374,11.312312 C 13.264451,11.277932 13.367759,11.243302 13.528623,10.994432 M 13.272062,11.362092 C 13.314138,11.327712 13.417532,11.293072 13.578311,11.044212"
     style="fill:none;stroke:#000000;stroke-width:0.05376;stroke-linecap:round;stroke-miterlimit:2.61310005"
     id="path185" /><path
     d="M 12.560103,13.391742 C 12.560103,13.391742 12.74765,13.338122 13.099909,13.127492"
     style="fill:none;stroke:#000000;stroke-width:0.09600001;stroke-linecap:round;stroke-miterlimit:2.61310005"
     id="path187" /></svg>