<?xml version="1.0" encoding="UTF-8" standalone="no"?>
<!-- Created with Inkscape (http://www.inkscape.org/) -->
<svg
   xmlns:dc="http://purl.org/dc/elements/1.1/"
   xmlns:cc="http://web.resource.org/cc/"
   xmlns:rdf="http://www.w3.org/1999/02/22-rdf-syntax-ns#"
   xmlns:svg="http://www.w3.org/2000/svg"
   xmlns="http://www.w3.org/2000/svg"
   xmlns:xlink="http://www.w3.org/1999/xlink"
   xmlns:sodipodi="http://sodipodi.sourceforge.net/DTD/sodipodi-0.dtd"
   xmlns:inkscape="http://www.inkscape.org/namespaces/inkscape"
   width="16px"
   height="16px"
   id="svg2355"
   sodipodi:version="0.32"
   inkscape:version="0.45"
   sodipodi:docbase="/home/paule/Projects/coot/pixmaps"
   sodipodi:docname="ghosts.svg"
   inkscape:export-filename="/home/paule/Projects/coot/pixmaps/ghosts.png"
   inkscape:export-xdpi="90"
   inkscape:export-ydpi="90"
   inkscape:output_extension="org.inkscape.output.svg.inkscape"
   sodipodi:modified="TRUE">
  <defs
     id="defs2357">
    <linearGradient
       id="linearGradient3236">
      <stop
         style="stop-color:#4d59c5;stop-opacity:1;"
         offset="0"
         id="stop3238" />
      <stop
         style="stop-color:#d8daf2;stop-opacity:0.95876288;"
         offset="1"
         id="stop3240" />
    </linearGradient>
    <linearGradient
       inkscape:collect="always"
       id="linearGradient3228">
      <stop
         style="stop-color:#e0e0e0;stop-opacity:1;"
         offset="0"
         id="stop3230" />
      <stop
         style="stop-color:#e0e0e0;stop-opacity:0;"
         offset="1"
         id="stop3232" />
    </linearGradient>
    <linearGradient
       inkscape:collect="always"
       xlink:href="#linearGradient3228"
       id="linearGradient3234"
       x1="3.6534498"
       y1="3.3950365"
       x2="3.0111523"
       y2="1.3563285"
       gradientUnits="userSpaceOnUse"
       gradientTransform="matrix(-1.4834567,0,0,-1,11.966914,3.5665335)" />
    <linearGradient
       inkscape:collect="always"
       xlink:href="#linearGradient3236"
       id="linearGradient3242"
       x1="2.0440361"
       y1="0.63678235"
       x2="13.181088"
       y2="16.989754"
       gradientUnits="userSpaceOnUse" />
    <linearGradient
       inkscape:collect="always"
       xlink:href="#linearGradient3228"
       id="linearGradient3246"
       gradientUnits="userSpaceOnUse"
       gradientTransform="matrix(1.4834567,0,0,1,-1.9987688,4.4963426)"
       x1="3.6534498"
       y1="3.3950365"
       x2="3.0111523"
       y2="1.3563285" />
    <linearGradient
       inkscape:collect="always"
       xlink:href="#linearGradient3228"
       id="linearGradient3250"
       gradientUnits="userSpaceOnUse"
       gradientTransform="matrix(-1.4834567,0,0,1,17.194304,3.9017882)"
       x1="3.6534498"
       y1="3.3950365"
       x2="3.0111523"
       y2="1.3563285" />
    <linearGradient
       inkscape:collect="always"
       xlink:href="#linearGradient3228"
       id="linearGradient3254"
       gradientUnits="userSpaceOnUse"
       gradientTransform="matrix(0.4755013,1.4051841,0.9472363,-0.320536,5.9957153,7.5431564)"
       x1="3.6534498"
       y1="3.3950365"
       x2="3.0111523"
       y2="1.3563285" />
    <linearGradient
       inkscape:collect="always"
       xlink:href="#linearGradient3228"
       id="linearGradient3258"
       gradientUnits="userSpaceOnUse"
       gradientTransform="matrix(0.4755013,1.4051841,0.9472363,-0.320536,2.3707502,7.2133706)"
       x1="5.2620754"
       y1="3.4198062"
       x2="3.3996401"
       y2="2.7783146" />
    <filter
       inkscape:collect="always"
       x="-0.10210169"
       width="1.2042034"
       y="-0.17966732"
       height="1.3593346"
       id="filter3342">
      <feGaussianBlur
         inkscape:collect="always"
         stdDeviation="0.73830162"
         id="feGaussianBlur3344" />
    </filter>
  </defs>
  <sodipodi:namedview
     id="base"
     pagecolor="#ffffff"
     bordercolor="#666666"
     borderopacity="1.0"
     inkscape:pageopacity="0.0"
     inkscape:pageshadow="2"
     inkscape:zoom="15.696216"
     inkscape:cx="12.599754"
     inkscape:cy="8.0840342"
     inkscape:current-layer="layer1"
     showgrid="true"
     inkscape:grid-bbox="true"
     inkscape:document-units="px"
     inkscape:window-width="943"
     inkscape:window-height="707"
     inkscape:window-x="297"
     inkscape:window-y="37" />
  <metadata
     id="metadata2360">
    <rdf:RDF>
      <cc:Work
         rdf:about="">
        <dc:format>image/svg+xml</dc:format>
        <dc:type
           rdf:resource="http://purl.org/dc/dcmitype/StillImage" />
      </cc:Work>
    </rdf:RDF>
  </metadata>
  <g
     id="layer1"
     inkscape:label="Layer 1"
     inkscape:groupmode="layer">
    <path
       sodipodi:type="arc"
       style="opacity:0.8125;fill:#696969;fill-opacity:1;fill-rule:evenodd;stroke:none;stroke-width:0.44999999;stroke-miterlimit:4;stroke-dasharray:none;stroke-dashoffset:0;stroke-opacity:1;filter:url(#filter3342)"
       id="path3260"
       sodipodi:cx="6.8487844"
       sodipodi:cy="17.943144"
       sodipodi:rx="7.2310424"
       sodipodi:ry="4.1092706"
       d="M 14.079827 17.943144 A 7.2310424 4.1092706 0 1 1  -0.38225794,17.943144 A 7.2310424 4.1092706 0 1 1  14.079827 17.943144 z"
       transform="matrix(0.792561,0,0,0.4867045,4.8408784,5.266992)" />
    <path
       style="fill:url(#linearGradient3242);fill-opacity:1.0;fill-rule:evenodd;stroke:#000000;stroke-width:0.52617997px;stroke-linecap:butt;stroke-linejoin:miter;stroke-opacity:1"
       d="M 9.5879581,5.8182795 C 8.8382591,5.2623154 8.5863357,4.3981901 9.8535757,3.367395 C 10.946247,2.4785979 9.2838674,0.17681818 8.2892116,0.27340624 C 7.0532961,0.39342232 5.5865344,0.6516955 5.4879234,2.2648957 C 5.4155853,3.4482919 7.5730254,3.6956139 5.8108161,5.3630737 C 5.428245,5.7250749 -0.99177133,6.7535567 0.82984177,7.8054851 C 1.5312078,8.2105031 2.0382045,7.739409 2.3192552,9.1584432 C 3.2161413,8.9761072 6.3792416,7.3247679 5.6751506,9.2233019 C 4.9710596,11.121836 3.1048246,15.779346 4.8364546,15.779346 C 6.5680836,15.779346 5.7645578,14.884703 6.7605408,14.608924 C 7.7565238,14.333143 7.2688895,15.972821 8.7628635,15.661811 C 10.256839,15.350801 8.8583978,13.296318 9.8543805,13.52696 C 10.850365,13.757603 10.384258,14.412579 11.878232,14.968543 C 13.372207,15.524508 15.045625,14.823702 12.555667,10.931953 C 10.06571,7.0402044 10.713507,5.9551619 13.862999,8.0317476 C 13.866451,6.2383509 16.413055,7.4709004 15.856882,6.663927 C 14.564647,4.788972 9.6552611,5.8579125 9.5879581,5.8182795 z "
       id="path2365"
       sodipodi:nodetypes="cssssscssssssscsc" />
    <path
       sodipodi:type="arc"
       style="opacity:1;fill:#b4b4b4;fill-opacity:1;fill-rule:evenodd;stroke:#000000;stroke-width:0.44999999;stroke-miterlimit:4;stroke-dasharray:none;stroke-dashoffset:0;stroke-opacity:1"
       id="path2253"
       sodipodi:cx="6.8647118"
       sodipodi:cy="1.9679556"
       sodipodi:rx="0.23891109"
       sodipodi:ry="0.2707659"
       d="M 7.1036229 1.9679556 A 0.23891109 0.2707659 0 1 1  6.6258007,1.9679556 A 0.23891109 0.2707659 0 1 1  7.1036229 1.9679556 z" />
    <path
       sodipodi:type="arc"
       style="opacity:1;fill:#b4b4b4;fill-opacity:1;fill-rule:evenodd;stroke:#000000;stroke-width:0.44999999;stroke-miterlimit:4;stroke-dasharray:none;stroke-dashoffset:0;stroke-opacity:1"
       id="path2255"
       sodipodi:cx="6.8647118"
       sodipodi:cy="1.9679556"
       sodipodi:rx="0.23891109"
       sodipodi:ry="0.2707659"
       d="M 7.1036229 1.9679556 A 0.23891109 0.2707659 0 1 1  6.6258007,1.9679556 A 0.23891109 0.2707659 0 1 1  7.1036229 1.9679556 z"
       transform="translate(1.6713772,1.5927357e-2)" />
    <path
       style="fill:url(#linearGradient3234);fill-opacity:1;fill-rule:evenodd;stroke:none;stroke-width:1px;stroke-linecap:butt;stroke-linejoin:miter;stroke-opacity:1"
       d="M 5.8419577,2.2161306 C 5.8419577,2.2161306 8.9681452,1.0568565 8.9681452,1.0568565 C 8.9681452,1.0568565 8.6788122,0.1805442 7.5165433,0.56653349 C 5.5116347,1.2323633 5.7271145,2.1241823 5.8419577,2.2161306 z "
       id="path2257"
       sodipodi:nodetypes="ccsc" />
    <path
       style="fill:url(#linearGradient3246);fill-opacity:1;fill-rule:evenodd;stroke:none;stroke-width:1px;stroke-linecap:butt;stroke-linejoin:miter;stroke-opacity:1"
       d="M 5.9281678,5.6665476 C 5.9281678,5.6665476 0.63960395,7.2763166 0.63960395,7.2763166 C 0.63960395,7.2763166 0.92893695,8.0174811 2.0912058,7.6314911 C 4.0961144,6.9656621 6.043011,5.7584966 5.9281678,5.6665476 z "
       id="path3244"
       sodipodi:nodetypes="ccsc" />
    <path
       style="fill:url(#linearGradient3250);fill-opacity:1;fill-rule:evenodd;stroke:none;stroke-width:1px;stroke-linecap:butt;stroke-linejoin:miter;stroke-opacity:1"
       d="M 10.092584,6.3531714 C 10.092584,6.3531714 15.524495,6.6592375 15.524495,6.6592375 C 15.524495,6.6592375 14.980501,5.9758258 13.757547,5.9106991 C 10.542155,5.7386197 10.039656,5.9798298 10.092584,6.3531714 z "
       id="path3248"
       sodipodi:nodetypes="ccsc" />
    <path
       style="fill:url(#linearGradient3254);fill-opacity:1;fill-rule:evenodd;stroke:none;stroke-width:1px;stroke-linecap:butt;stroke-linejoin:miter;stroke-opacity:1"
       d="M 10.593424,13.333308 C 10.593424,13.333308 9.2104795,9.4122856 9.2104795,9.4122856 C 9.2104795,9.4122856 8.9933079,8.929982 9.0002332,10.154649 C 9.0121815,12.267194 10.556129,13.990316 10.593424,13.333308 z "
       id="path3252"
       sodipodi:nodetypes="ccsc" />
    <path
       style="fill:url(#linearGradient3258);fill-opacity:1;fill-rule:evenodd;stroke:none;stroke-width:1px;stroke-linecap:butt;stroke-linejoin:miter;stroke-opacity:1"
       d="M 7.6667262,14.670354 C 7.6667262,14.670354 7.8830392,9.9159157 7.8830392,9.9159157 C 7.8830392,9.9159157 6.8203484,10.730318 6.9970503,11.94219 C 7.1441471,12.951022 7.1789362,13.570431 7.6667262,14.670354 z "
       id="path3256"
       sodipodi:nodetypes="ccsc" />
  </g>
</svg>
