<?xml version="1.0" encoding="UTF-8" standalone="no"?>
<!-- Created with Inkscape (http://www.inkscape.org/) -->
<svg
   xmlns:dc="http://purl.org/dc/elements/1.1/"
   xmlns:cc="http://web.resource.org/cc/"
   xmlns:rdf="http://www.w3.org/1999/02/22-rdf-syntax-ns#"
   xmlns:svg="http://www.w3.org/2000/svg"
   xmlns="http://www.w3.org/2000/svg"
   xmlns:xlink="http://www.w3.org/1999/xlink"
   xmlns:sodipodi="http://inkscape.sourceforge.net/DTD/sodipodi-0.dtd"
   xmlns:inkscape="http://www.inkscape.org/namespaces/inkscape"
   width="16px"
   height="16px"
   id="svg1371"
   sodipodi:version="0.32"
   inkscape:version="0.43"
   sodipodi:docbase="/lmb/wear/emsley/Projects/coot/pixmaps"
   sodipodi:docname="smiles.svg"
   inkscape:export-filename="/lmb/wear/emsley/Projects/coot/pixmaps/smiles.png"
   inkscape:export-xdpi="90"
   inkscape:export-ydpi="90">
  <defs
     id="defs1373">
    <linearGradient
       id="linearGradient2288">
      <stop
         style="stop-color:#ffffff;stop-opacity:1;"
         offset="0"
         id="stop2290" />
      <stop
         style="stop-color:#e2e200;stop-opacity:1;"
         offset="1"
         id="stop2292" />
    </linearGradient>
    <radialGradient
       inkscape:collect="always"
       xlink:href="#linearGradient2288"
       id="radialGradient2294"
       cx="6.0591583"
       cy="5.2279353"
       fx="6.0591583"
       fy="5.2279353"
       r="6.9878176"
       gradientTransform="matrix(0.181248,0.825233,-0.896241,0.174382,9.646434,-0.233635)"
       gradientUnits="userSpaceOnUse" />
  </defs>
  <sodipodi:namedview
     id="base"
     pagecolor="#ffffff"
     bordercolor="#666666"
     borderopacity="1.0"
     inkscape:pageopacity="0.0"
     inkscape:pageshadow="2"
     inkscape:zoom="22.197802"
     inkscape:cx="8"
     inkscape:cy="8"
     inkscape:current-layer="layer1"
     showgrid="true"
     inkscape:grid-bbox="true"
     inkscape:document-units="px"
     inkscape:window-width="888"
     inkscape:window-height="748"
     inkscape:window-x="446"
     inkscape:window-y="93" />
  <metadata
     id="metadata1376">
    <rdf:RDF>
      <cc:Work
         rdf:about="">
        <dc:format>image/svg+xml</dc:format>
        <dc:type
           rdf:resource="http://purl.org/dc/dcmitype/StillImage" />
      </cc:Work>
    </rdf:RDF>
  </metadata>
  <g
     id="layer1"
     inkscape:label="Layer 1"
     inkscape:groupmode="layer">
    <path
       sodipodi:type="arc"
       style="fill:#616100;fill-opacity:0.36904764;stroke:none;stroke-width:0.77613044;stroke-miterlimit:4;stroke-dasharray:none;stroke-opacity:1"
       id="path2296"
       sodipodi:cx="8.1764851"
       sodipodi:cy="8.4767323"
       sodipodi:rx="6.5997524"
       sodipodi:ry="5.6311884"
       d="M 14.776237 8.4767323 A 6.5997524 5.6311884 0 1 1  1.5767326,8.4767323 A 6.5997524 5.6311884 0 1 1  14.776237 8.4767323 z"
       transform="matrix(1.037543,0,0,1.151246,0.669018,-0.241687)" />
    <path
       sodipodi:type="arc"
       style="fill:url(#radialGradient2294);fill-opacity:1.0;stroke:#000000;stroke-width:0.77613044;stroke-miterlimit:4;stroke-dasharray:none;stroke-opacity:1"
       id="path1397"
       sodipodi:cx="8.1764851"
       sodipodi:cy="8.4767323"
       sodipodi:rx="6.5997524"
       sodipodi:ry="5.6311884"
       d="M 14.776237 8.4767323 A 6.5997524 5.6311884 0 1 1  1.5767326,8.4767323 A 6.5997524 5.6311884 0 1 1  14.776237 8.4767323 z"
       transform="matrix(1,0,0,1.062455,0,-0.912332)" />
    <path
       style="fill:#000000;fill-opacity:1;fill-rule:nonzero;stroke:none;stroke-width:1px;stroke-linecap:butt;stroke-linejoin:miter;stroke-opacity:1"
       id="path2276"
       d="M 11.618926,5.9689994 C 11.420146,5.8313183 11.243626,5.6540817 11.030002,5.5435521 C 10.041039,5.5025633 11.597054,4.8485236 10.844488,5.4484614 C 10.476822,5.7519542 10.100706,5.981727 9.7308069,6.2691955 L 9,6.4652834 C 9.3689457,6.1506782 9.7503433,5.9438233 10.121648,5.6398016 C 10.690725,5.163989 11.305615,4.8079736 11.768569,5.1139327 C 11.977596,5.2363506 12.148855,5.4358106 12.37088,5.5256504 L 11.618926,5.9689994 z " />
    <path
       style="fill:#000000;fill-opacity:1;fill-rule:nonzero;stroke:none;stroke-width:1px;stroke-linecap:butt;stroke-linejoin:miter;stroke-opacity:1"
       id="path2284"
       d="M 4.751954,5.9689994 C 4.950734,5.8313183 5.127254,5.6540817 5.340878,5.5435521 C 6.329841,5.5025633 4.773826,4.8485236 5.526392,5.4484614 C 5.894058,5.7519542 6.270174,5.981727 6.6400731,6.2691955 L 7.37088,6.4652834 C 7.0019343,6.1506782 6.6205367,5.9438233 6.249232,5.6398016 C 5.680155,5.163989 5.065265,4.8079736 4.602311,5.1139327 C 4.393284,5.2363506 4.222025,5.4358106 4,5.5256504 L 4.751954,5.9689994 z " />
    <path
       style="fill:none;fill-opacity:0.75;fill-rule:evenodd;stroke:#bf1c00;stroke-width:1.60000002;stroke-linecap:butt;stroke-linejoin:miter;stroke-miterlimit:4;stroke-dasharray:none;stroke-opacity:1"
       d="M 3.5415836,7.890099 C 9.5059401,15.331682 12.839604,7.7549505 12.839604,7.7549505"
       id="path2286"
       sodipodi:nodetypes="cc" />
  </g>
</svg>
