<?xml version="1.0" encoding="UTF-8" standalone="no"?>
<!-- Created with Inkscape (http://www.inkscape.org/) -->
<svg
   xmlns:dc="http://purl.org/dc/elements/1.1/"
   xmlns:cc="http://web.resource.org/cc/"
   xmlns:rdf="http://www.w3.org/1999/02/22-rdf-syntax-ns#"
   xmlns:svg="http://www.w3.org/2000/svg"
   xmlns="http://www.w3.org/2000/svg"
   xmlns:sodipodi="http://sodipodi.sourceforge.net/DTD/sodipodi-0.dtd"
   xmlns:inkscape="http://www.inkscape.org/namespaces/inkscape"
   width="16"
   height="16"
   id="svg2200"
   sodipodi:version="0.32"
   inkscape:version="0.45.1"
   version="1.0"
   sodipodi:docbase="/y/people/lohkamp/test/svg"
   sodipodi:docname="stop.svg"
   inkscape:output_extension="org.inkscape.output.svg.inkscape">
  <defs
     id="defs2202" />
  <sodipodi:namedview
     id="base"
     pagecolor="#ffffff"
     bordercolor="#666666"
     borderopacity="1.0"
     gridtolerance="10000"
     guidetolerance="10"
     objecttolerance="10"
     inkscape:pageopacity="0.0"
     inkscape:pageshadow="2"
     inkscape:zoom="25.4375"
     inkscape:cx="8"
     inkscape:cy="7.790747"
     inkscape:document-units="px"
     inkscape:current-layer="layer1"
     width="16px"
     height="16px"
     showgrid="true"
     inkscape:window-width="814"
     inkscape:window-height="620"
     inkscape:window-x="210"
     inkscape:window-y="267" />
  <metadata
     id="metadata2205">
    <rdf:RDF>
      <cc:Work
         rdf:about="">
        <dc:format>image/svg+xml</dc:format>
        <dc:type
           rdf:resource="http://purl.org/dc/dcmitype/StillImage" />
      </cc:Work>
    </rdf:RDF>
  </metadata>
  <g
     inkscape:label="Layer 1"
     inkscape:groupmode="layer"
     id="layer1">
    <g
       id="g2279"
       transform="translate(0.3291456,-0.3291461)">
      <polyline
         transform="matrix(4.1267712e-2,0,0,-4.1267712e-2,-4.937257,29.986854)"
         points="127.92,598.25 127.92,451.12 232.08,347.21 379.2,347.21 483.12,451.12 483.12,598.25 379.2,702.41 232.08,702.41 127.92,598.25 128.16,598.25 "
         style="font-style:normal;font-variant:normal;font-weight:normal;font-stretch:normal;letter-spacing:normal;word-spacing:normal;text-anchor:start;fill:#ffffff;fill-opacity:1;stroke:#1e1916;stroke-width:0.20292;stroke-linecap:butt;stroke-linejoin:miter;stroke-miterlimit:10.43299961;stroke-dasharray:none;stroke-dashoffset:0;stroke-opacity:1"
         id="polyline14" />
      <path
         id="path2518"
         style="font-style:normal;font-variant:normal;font-weight:normal;font-stretch:normal;letter-spacing:normal;word-spacing:normal;text-anchor:start;fill:#ffffff;fill-opacity:1;fill-rule:nonzero;stroke:#ffffff;stroke-width:0;stroke-linecap:round;stroke-linejoin:round;stroke-miterlimit:10.43299961;stroke-dasharray:none;stroke-dashoffset:0;stroke-opacity:1"
         d="M 3.9369433,9.3199806 L 3.9357054,9.2551906 L 3.9319913,9.1916386 L 3.9262139,9.1289116 L 3.9175477,9.0674226 L 3.9068181,9.0063463 L 3.8936125,8.9465079 L 3.8775179,8.8870827 L 3.8593603,8.8284825 L 3.8383136,8.7707078 L 3.8147912,8.7137582 L 3.7887923,8.6572214 L 3.7603177,8.6015102 L 3.7293669,8.5462115 L 3.6955273,8.4917379 L 3.6592118,8.4372646 L 3.6200075,8.3840292 L 3.578327,8.3307939 L 3.5337581,8.2779713 L 3.4867128,8.2255614 L 3.4367789,8.1735639 L 3.3843689,8.1219795 L 3.3290701,8.0708073 L 3.2708827,8.0196355 L 3.2098064,7.9688763 L 3.1462542,7.9181167 L 3.0794006,7.8677702 L 3.0100709,7.8174236 L 2.9378521,7.7670771 L 2.8627449,7.7171431 L 2.7843363,7.6667964 L 2.7034515,7.6168625 L 2.6196782,7.5669286 C 2.2631253,7.3589395 2.1640827,7.2198671 2.1640827,6.9920695 C 2.1640827,6.6751334 2.4116891,6.4374316 2.7286251,6.4374316 C 3.0356568,6.4374316 3.2634544,6.6553249 3.283263,6.9920695 L 3.9369433,6.9920695 C 3.917135,6.2591548 3.4021141,5.7441339 2.7286251,5.7441339 C 2.0452317,5.7441339 1.5104021,6.2987719 1.5104021,6.9920695 C 1.5104021,7.4179523 1.7183915,7.7844095 2.0947529,8.0518243 C 3.0653694,8.7055047 2.7979547,8.5272283 2.8969971,8.6266835 C 3.1842205,8.8445769 3.283263,9.0521536 3.283263,9.3199806 C 3.283263,9.7157386 2.9861355,10.072292 2.6196782,10.072292 C 2.1442742,10.072292 1.9461893,9.6265996 1.9461893,9.2106216 L 1.5104021,9.2106216 C 1.5104021,10.032675 1.9759019,10.765589 2.7286251,10.765589 C 3.4021141,10.765589 3.9369433,10.121813 3.9369433,9.3199806 z " />
      <polygon
         id="polygon16"
         style="font-style:normal;font-variant:normal;font-weight:normal;font-stretch:normal;letter-spacing:normal;word-spacing:normal;text-anchor:start;fill:#d8261c;fill-opacity:1;stroke:#d8261c;stroke-width:0;stroke-linecap:butt;stroke-linejoin:round;stroke-miterlimit:10.43299961;stroke-dasharray:none;stroke-dashoffset:0;stroke-opacity:1"
         transform="matrix(4.1267712e-2,0,0,-4.1267712e-2,-4.937257,29.986854)"
         points="136.8,594.65 235.68,693.53 375.36,693.53 474.24,594.65 474.24,454.96 375.36,356.09 235.68,356.09 136.8,454.96 136.8,594.65 " />
      <path
         id="path18"
         style="font-style:normal;font-variant:normal;font-weight:normal;font-stretch:normal;letter-spacing:normal;word-spacing:normal;text-anchor:start;fill:#ffffff;fill-opacity:1;fill-rule:nonzero;stroke:#ffffff;stroke-width:0;stroke-linecap:round;stroke-linejoin:round;stroke-miterlimit:10.43299961;stroke-dasharray:none;stroke-dashoffset:0;stroke-opacity:1"
         d="M 2.7045329,5.9819059 C 2.0326417,5.9951732 1.5108566,6.5660923 1.5108566,7.2768172 C 1.5108566,7.7185825 1.7184369,8.0984988 2.0947984,8.3758865 L 3.0006307,8.9880262 C 3.0010307,8.9883188 3.2833163,9.2786866 3.2833163,9.4706746 C 3.2833163,9.7994306 3.0359128,10.046429 2.7189766,10.046429 C 2.4119448,10.046429 2.1837309,9.8199776 2.1639224,9.4706746 L 1.5108566,9.4706746 C 1.5306649,10.230922 2.0454875,10.765587 2.7189766,10.765587 C 3.4023697,10.765587 3.9374136,10.189828 3.9374136,9.4706746 C 3.9374136,9.0289096 3.7288016,8.6489932 3.35244,8.3716057 L 2.446608,7.7583956 L 2.4455763,7.7583956 C 2.2298109,7.6002126 2.1639224,7.4688051 2.1639224,7.2768172 C 2.1639225,6.9480615 2.4113257,6.7010631 2.7282619,6.7010631 C 3.0352937,6.7010636 3.2635077,6.9275142 3.2833163,7.2768172 L 3.9374136,7.2768172 C 3.9176053,6.51657 3.401751,5.9819059 2.7282619,5.9819059 C 2.7202534,5.9819059 2.7124998,5.9817487 2.7045329,5.9819059 z " />
      <polygon
         id="polygon20"
         style="font-style:normal;font-variant:normal;font-weight:normal;font-stretch:normal;letter-spacing:normal;word-spacing:normal;text-anchor:start;fill:#ffffff;fill-opacity:1;fill-rule:nonzero;stroke:#ffffff;stroke-width:0;stroke-linecap:butt;stroke-linejoin:round;stroke-miterlimit:10.43299961;stroke-dasharray:none;stroke-dashoffset:0;stroke-opacity:1"
         transform="matrix(4.1267712e-2,0,0,-4.1267712e-2,-4.937257,29.986854)"
         points="285.84,566.32 285.84,581.69 227.04,581.69 227.04,566.32 248.16,566.32 248.16,465.77 264.96,465.77 264.96,566.32 285.84,566.32 " />
      <path
         id="path22"
         style="font-style:normal;font-variant:normal;font-weight:normal;font-stretch:normal;letter-spacing:normal;word-spacing:normal;text-anchor:start;fill:#ffffff;fill-opacity:1;fill-rule:nonzero;stroke:#ffffff;stroke-width:0;stroke-linecap:round;stroke-linejoin:round;stroke-miterlimit:10.43299961;stroke-dasharray:none;stroke-dashoffset:0;stroke-opacity:1"
         d="M 8.8733572,5.8133096 C 8.3340542,5.8203459 8.0035102,6.0499326 7.7500232,6.6158098 C 7.5519382,7.0714053 7.4825232,7.5569665 7.4825232,8.2799768 C 7.4825235,9.0227956 7.5519382,9.4782236 7.7500232,9.9433106 C 7.9877262,10.517758 8.3247432,10.765811 8.8991902,10.765811 C 9.4340192,10.765811 9.7806552,10.517757 10.018357,9.9433106 C 10.216442,9.4877156 10.285857,9.0227956 10.285857,8.2799768 L 10.285024,8.2124768 L 10.285024,8.1474767 L 10.283357,8.0833101 L 10.282524,8.0208101 L 10.280024,7.9591434 L 10.277524,7.8991434 L 10.275024,7.84081 L 10.27169,7.78331 L 10.267524,7.7266433 L 10.263357,7.6716433 L 10.253357,7.5641433 L 10.240857,7.4616433 L 10.225857,7.3608099 L 10.20919,7.2641432 L 10.190024,7.1699766 L 10.168357,7.0774765 L 10.143357,6.9874765 L 10.11669,6.8983098 L 10.085857,6.8099765 L 10.053357,6.7233098 L 10.018357,6.6358098 C 9.7806542,6.0415547 9.4439242,5.8133096 8.8991902,5.8133096 C 8.8905242,5.8133096 8.8819172,5.8131979 8.8733572,5.8133096 z M 8.8950232,6.4766431 C 8.8962192,6.4766372 8.8979912,6.4766431 8.8991902,6.4766431 C 9.1765092,6.4766431 9.3645062,6.6657605 9.4833572,7.0916432 C 9.5823992,7.4378793 9.6316902,7.7352428 9.6316902,8.2799768 L 9.6316902,8.3308101 L 9.6316902,8.3808101 L 9.6308572,8.4291435 L 9.6300232,8.4758101 L 9.6291902,8.5216435 L 9.6283572,8.5658102 L 9.6266902,8.6091435 L 9.6250232,8.6516435 L 9.6233572,8.6924769 L 9.6208572,8.7324769 L 9.6183572,8.7716435 L 9.6158572,8.8099769 L 9.6091902,8.8849769 L 9.6025232,8.9566436 L 9.5933572,9.0266436 L 9.5825232,9.0958106 L 9.5700232,9.1633106 L 9.5566902,9.2316436 L 9.5408572,9.2983106 L 9.5233572,9.3666436 L 9.5041902,9.4366436 L 9.4833572,9.5074766 C 9.3645062,9.9135506 9.1765092,10.092478 8.8991902,10.092478 C 8.5921582,10.092478 8.4138742,9.9135516 8.2950232,9.5074766 C 8.1860772,9.1212106 8.1366902,8.8141646 8.1366902,8.2991434 C 8.1366902,7.7544092 8.1662682,7.4376878 8.2950232,7.0716432 C 8.4134102,6.6671554 8.5901922,6.4781111 8.8950232,6.4766431 z " />
      <path
         id="path26"
         style="font-style:normal;font-variant:normal;font-weight:normal;font-stretch:normal;letter-spacing:normal;word-spacing:normal;text-anchor:start;fill:#ffffff;fill-opacity:1;fill-rule:nonzero;stroke:#ffffff;stroke-width:0;stroke-linecap:round;stroke-linejoin:round;stroke-miterlimit:10.43299961;stroke-dasharray:none;stroke-dashoffset:0;stroke-opacity:1"
         d="M 11.315857,5.981643 L 11.315857,10.765811 L 12.009191,10.765811 L 12.009191,8.6658102 L 12.741691,8.6658102 C 13.543935,8.6658105 14.000024,8.2002093 14.000024,7.3191432 L 13.998358,7.2449766 L 13.994191,7.1716432 L 13.986691,7.1008099 L 13.976691,7.0316432 L 13.963358,6.9633098 L 13.948358,6.8983098 L 13.930024,6.8333098 L 13.909191,6.7716431 L 13.885024,6.7116431 L 13.859191,6.6533098 L 13.830858,6.5974764 L 13.800024,6.5433098 L 13.766691,6.4916431 L 13.730858,6.4416431 L 13.693358,6.3941431 L 13.653358,6.3491431 L 13.610858,6.306643 L 13.565858,6.266643 L 13.519191,6.2283097 L 13.470858,6.1933097 L 13.420024,6.1608097 L 13.366691,6.1308097 L 13.312524,6.1024763 L 13.255858,6.0783097 L 13.197524,6.0558097 L 13.137524,6.036643 L 13.075024,6.0199763 L 13.011691,6.006643 L 12.946691,5.9958097 L 12.880024,5.9883097 L 12.811691,5.9833096 L 12.741691,5.981643 L 11.315857,5.981643 z M 12.009191,6.6458098 L 12.712524,6.6458098 C 13.078981,6.6458098 13.325858,6.913069 13.325858,7.3191432 L 13.325024,7.3599766 L 13.323358,7.3999766 L 13.320024,7.4391433 L 13.315858,7.4766433 L 13.310858,7.51331 L 13.303358,7.5491433 L 13.295024,7.5824766 L 13.285858,7.61581 L 13.275024,7.6466433 L 13.263358,7.6774767 L 13.250858,7.7066433 L 13.235858,7.7341433 L 13.220858,7.76081 L 13.204191,7.78581 L 13.186691,7.81081 L 13.167524,7.83331 L 13.147524,7.8541434 L 13.126691,7.8741434 L 13.104191,7.89331 L 13.080857,7.91081 L 13.055857,7.9266434 L 13.030024,7.9416434 L 13.003357,7.9549767 L 12.975024,7.9666434 L 12.945857,7.9774767 L 12.915857,7.9866434 L 12.885024,7.9941434 L 12.851691,8.0008101 L 12.818357,8.0058101 L 12.784191,8.0099767 L 12.749191,8.0116434 L 12.712524,8.0124767 L 12.009191,8.0124767 L 12.009191,6.6458098 z " />
    </g>
  </g>
</svg>
